<svg xmlns="http://www.w3.org/2000/svg" width="24" height="24" fill="none"><path fill="#fff" d="M8.25 19.5v1.875c0 .207.168.375.375.375h1.5a.375.375 0 0 0 .375-.375V19.5h.75v1.875c0 .207.168.375.375.375h1.5a.375.375 0 0 0 .375-.375V19.5h.126c2.988 0 5.124-1.55 5.124-4.23 0-2.253-1.51-3.484-3.28-3.66v-.132c1.456-.363 2.525-1.461 2.525-3.285 0-2.298-1.725-3.693-4.357-3.693H13.5V2.625a.375.375 0 0 0-.375-.375h-1.5a.375.375 0 0 0-.375.375V4.5h-.86V2.625a.375.375 0 0 0-.375-.375h-1.39a.375.375 0 0 0-.375.375V4.5l-2.997.016a.375.375 0 0 0-.375.375v1.484c0 .205.165.375.372.375l1.132-.008A1.125 1.125 0 0 1 7.5 7.867v8.258a1.125 1.125 0 0 1-1.125 1.125l-1.122.017a.375.375 0 0 0-.375.375v1.5c0 .207.168.375.375.375L8.25 19.5Zm2.14-12.77h2.579c1.359 0 2.157.747 2.157 1.968 0 1.307-.863 2.043-2.816 2.043h-1.92v-4.01Zm0 6.077h2.76c1.706 0 2.634.87 2.634 2.286 0 1.43-.939 2.175-3.237 2.175H10.39v-4.461Z"/></svg>