<svg xmlns="http://www.w3.org/2000/svg" width="24" height="24" fill="none"><path fill="#3F845F" stroke="#3F845F" d="M11.4 4.1h.5V3a.1.1 0 1 1 .2 0v1.1h4.1a1.3 1.3 0 0 1 1.3 1.3v4.8a1.3 1.3 0 0 1-1.3 1.3H7.8a1.3 1.3 0 0 1-1.3-1.3V5.4a1.3 1.3 0 0 1 1.3-1.3h3.6Zm.894 16.998-.187.002h-.213l-.188-.002c-3.084-.04-4.833-.703-5.815-1.599-.915-.835-1.148-1.856-1.185-2.718l-.006-.127v-.678c0-.924.748-1.672 1.672-1.672H10.7V14.3h2.6v.004H17.628a1.672 1.672 0 0 1 1.672 1.67v.68l-.005.127c-.038.86-.27 1.882-1.186 2.72-.982.894-2.731 1.558-5.815 1.597Zm5.68-1.746h.001c.955-.873 1.125-1.962 1.125-2.852v-.524a1.472 1.472 0 0 0-1.472-1.472H6.372a1.472 1.472 0 0 0-1.472 1.47v.526c0 .889.171 1.98 1.125 2.852.96.875 2.73 1.548 5.975 1.548 3.245 0 5.015-.673 5.975-1.548ZM13.906 7.305a.7.7 0 1 1 .99.99.7.7 0 0 1-.99-.99ZM8.9 7.8a.7.7 0 1 1 1.4 0 .7.7 0 0 1-1.4 0Zm7.3-3.5H7.8a1.1 1.1 0 0 0-1.1 1.1v4.8a1.1 1.1 0 0 0 1.1 1.1h8.4a1.1 1.1 0 0 0 1.1-1.1V5.4a1.1 1.1 0 0 0-1.1-1.1Z"/></svg>