<svg xmlns="http://www.w3.org/2000/svg" width="24" height="24" fill="none"><g clip-path="url(#a)"><path fill="#0D1E30" d="M12 24c6.627 0 12-5.373 12-12S18.627 0 12 0 0 5.373 0 12s5.373 12 12 12Z"/><g filter="url(#b)"><path fill="#000" d="M11.794 4.545c.36-.185.798.243.607.596-.111.288-.532.365-.747.145-.227-.21-.153-.627.14-.742Zm-3.866.41c.218-.09.495.107.472.342.023.254-.292.441-.515.32-.295-.112-.261-.583.043-.663Zm7.918.67c-.341-.041-.395-.57-.067-.676.255-.121.489.107.526.345-.054.203-.226.389-.459.33Zm-7.039.948c.366-.227.886.11.83.529-.019.42-.587.665-.908.38-.31-.224-.264-.737.078-.91Zm5.573.241c.163-.412.823-.426 1.008-.024.184.313-.042.7-.368.807-.433.08-.843-.38-.64-.783Zm-3.052.76c-.004-.355.325-.62.668-.644.228.045.475.14.573.366.182.312.02.74-.308.883-.15.083-.328.052-.492.042-.25-.12-.46-.357-.44-.647Zm-5.75.518c.334-.203.784.165.658.522-.07.308-.49.433-.732.237-.257-.185-.216-.628.075-.76Zm12.347-.002c.283-.216.75.032.716.383.02.32-.385.563-.666.398-.309-.137-.34-.605-.05-.78Zm-4.98.638a1.127 1.127 0 0 1 1.287.443c.351.5.165 1.262-.38 1.55-.564.34-1.388.052-1.598-.57-.236-.554.11-1.249.69-1.423h.001Zm-2.74.055c.518-.24 1.215-.039 1.464.482.294.507.067 1.212-.459 1.474-.526.295-1.27.071-1.524-.472-.285-.527-.032-1.242.52-1.484Zm-2.742.922c.04-.328.354-.542.67-.564a.735.735 0 0 1 .653.643c-.022.337-.287.666-.65.664-.4.034-.75-.358-.673-.743Zm8.101-.492c.41-.235.98.106.962.57.027.491-.603.837-1.01.549-.425-.24-.392-.915.048-1.12Zm-6.472 1.73c.478-.13 1.027.092 1.262.526a1.085 1.085 0 0 1-.248 1.363c-.513.47-1.46.28-1.732-.36-.314-.587.067-1.374.717-1.53v.001Zm5.195-.002c.466-.131 1.013.045 1.264.463.331.477.173 1.19-.32 1.498-.517.358-1.317.17-1.602-.39-.345-.577.002-1.395.658-1.571Zm-8.28.544c.414-.153.873.296.705.7-.102.368-.63.504-.902.233-.318-.255-.2-.822.197-.933Zm11.227.587a.627.627 0 0 1 .59-.656c.284.045.56.27.538.574.026.401-.465.674-.813.485-.163-.081-.246-.246-.315-.403ZM3.97 11.685c.249-.107.557.105.5.377-.014.308-.476.428-.646.17-.15-.18-.06-.455.146-.548Zm15.711-.007c.176-.122.458-.034.527.167.118.22-.098.522-.35.486-.354.031-.468-.5-.177-.653Zm-9.237 1.48c.655-.167 1.36.37 1.365 1.035.042.671-.653 1.266-1.323 1.111-.52-.082-.927-.574-.91-1.09 0-.493.377-.952.868-1.056Zm2.596 0c.665-.184 1.391.364 1.38 1.043.036.659-.637 1.234-1.294 1.103-.618-.078-1.074-.747-.902-1.338.087-.393.422-.712.816-.81v.001Zm-5.007.408c.46-.077.893.427.706.858-.137.459-.815.583-1.115.208-.35-.36-.088-1.017.41-1.066Zm7.616.02c.41-.17.915.18.883.619.017.482-.606.815-1.007.533-.455-.253-.372-.997.124-1.152Zm2.128 2.1c-.16-.295.131-.685.465-.63.165-.004.281.125.387.233.022.174.059.383-.09.517-.2.25-.653.179-.762-.12Zm-12.2-.549c.31-.203.758.1.688.458-.038.317-.443.498-.71.318-.286-.163-.275-.627.021-.776Zm6.144.662c.407-.176.926.173.887.614.03.487-.611.825-1.01.532-.442-.25-.368-.99.123-1.146Zm-2.846.654c.347-.18.812.13.78.513.01.313-.3.58-.615.534-.26-.006-.43-.236-.513-.454.004-.238.104-.503.348-.593Zm5.765.006c.357-.218.864.094.83.502.01.428-.564.7-.896.42-.321-.22-.282-.748.066-.922Zm1.003 2.437c-.16-.235.027-.52.285-.574.207.042.427.195.383.43-.03.321-.506.419-.668.145Zm-7.959-.205c.063-.187.216-.372.44-.324.327.023.424.507.138.657-.257.17-.555-.063-.578-.333Zm3.84.216c.063-.278.426-.412.666-.265.16.067.206.241.246.39a6.718 6.718 0 0 0-.06.232c-.098.114-.225.23-.388.225-.304.036-.578-.303-.464-.582Z"/></g><path fill="#fff" d="M11.794 4.545c.36-.185.798.243.607.596-.111.288-.532.365-.747.145-.227-.21-.153-.627.14-.742Zm-3.866.41c.218-.09.495.107.472.342.023.254-.292.441-.515.32-.295-.112-.261-.583.043-.663Zm7.918.67c-.341-.041-.395-.57-.067-.676.255-.121.489.107.526.345-.054.203-.226.389-.459.33Zm-7.039.948c.366-.227.886.11.83.529-.019.42-.587.665-.908.38-.31-.224-.264-.737.078-.91Zm5.573.241c.163-.412.823-.426 1.008-.024.184.313-.042.7-.368.807-.433.08-.843-.38-.64-.783Zm-3.052.76c-.004-.355.325-.62.668-.644.228.045.475.14.573.366.182.312.02.74-.308.883-.15.083-.328.052-.492.042-.25-.12-.46-.357-.44-.647Zm-5.75.518c.334-.203.784.165.658.522-.07.308-.49.433-.732.237-.257-.185-.216-.628.075-.76Zm12.347-.002c.283-.216.75.032.716.383.02.32-.385.563-.666.398-.309-.137-.34-.605-.05-.78Zm-4.98.638a1.127 1.127 0 0 1 1.287.443c.351.5.165 1.262-.38 1.55-.564.34-1.388.052-1.598-.57-.236-.554.11-1.249.69-1.423h.001Zm-2.74.055c.518-.24 1.215-.039 1.464.482.294.507.067 1.212-.459 1.474-.526.295-1.27.071-1.524-.472-.285-.527-.032-1.242.52-1.484Zm-2.742.922c.04-.328.354-.542.67-.564a.735.735 0 0 1 .653.643c-.022.337-.287.666-.65.664-.4.034-.75-.358-.673-.743Zm8.101-.492c.41-.235.98.106.962.57.027.491-.603.837-1.01.549-.425-.24-.392-.915.048-1.12Zm-6.472 1.73c.478-.13 1.027.092 1.262.526a1.085 1.085 0 0 1-.248 1.363c-.513.47-1.46.28-1.732-.36-.314-.587.067-1.374.717-1.53v.001Zm5.195-.002c.466-.131 1.013.045 1.264.463.331.477.173 1.19-.32 1.498-.517.358-1.317.17-1.602-.39-.345-.577.002-1.395.658-1.571Zm-8.28.544c.414-.153.873.296.705.7-.102.368-.63.504-.902.233-.318-.255-.2-.822.197-.933Zm11.227.587a.627.627 0 0 1 .59-.656c.284.045.56.27.538.574.026.401-.465.674-.813.485-.163-.081-.246-.246-.315-.403ZM3.97 11.685c.249-.107.557.105.5.377-.014.308-.476.428-.646.17-.15-.18-.06-.455.146-.548Zm15.711-.007c.176-.122.458-.034.527.167.118.22-.098.522-.35.486-.354.031-.468-.5-.177-.653Zm-9.237 1.48c.655-.167 1.36.37 1.365 1.035.042.671-.653 1.266-1.323 1.111-.52-.082-.927-.574-.91-1.09 0-.493.377-.952.868-1.056Zm2.596 0c.665-.184 1.391.364 1.38 1.043.036.659-.637 1.234-1.294 1.103-.618-.078-1.074-.747-.902-1.338.087-.393.422-.712.816-.81v.001Zm-5.007.408c.46-.077.893.427.706.858-.137.459-.815.583-1.115.208-.35-.36-.088-1.017.41-1.066Zm7.616.02c.41-.17.915.18.883.619.017.482-.606.815-1.007.533-.455-.253-.372-.997.124-1.152Zm2.128 2.1c-.16-.295.131-.685.465-.63.165-.004.281.125.387.233.022.174.059.383-.09.517-.2.25-.653.179-.762-.12Zm-12.2-.549c.31-.203.758.1.688.458-.038.317-.443.498-.71.318-.286-.163-.275-.627.021-.776Zm6.144.662c.407-.176.926.173.887.614.03.487-.611.825-1.01.532-.442-.25-.368-.99.123-1.146Zm-2.846.654c.347-.18.812.13.78.513.01.313-.3.58-.615.534-.26-.006-.43-.236-.513-.454.004-.238.104-.503.348-.593Zm5.765.006c.357-.218.864.094.83.502.01.428-.564.7-.896.42-.321-.22-.282-.748.066-.922Zm1.003 2.437c-.16-.235.027-.52.285-.574.207.042.427.195.383.43-.03.321-.506.419-.668.145Zm-7.959-.205c.063-.187.216-.372.44-.324.327.023.424.507.138.657-.257.17-.555-.063-.578-.333Zm3.84.216c.063-.278.426-.412.666-.265.16.067.206.241.246.39a6.718 6.718 0 0 0-.06.232c-.098.114-.225.23-.388.225-.304.036-.578-.303-.464-.582Z"/></g><defs><clipPath id="a"><path fill="#fff" d="M0 0h24v24H0z"/></clipPath><filter id="b" width="18.491" height="16.992" x="2.75" y="4" color-interpolation-filters="sRGB" filterUnits="userSpaceOnUse"><feFlood flood-opacity="0" result="BackgroundImageFix"/><feColorMatrix in="SourceAlpha" result="hardAlpha" values="0 0 0 0 0 0 0 0 0 0 0 0 0 0 0 0 0 0 127 0"/><feOffset dy=".5"/><feGaussianBlur stdDeviation=".5"/><feColorMatrix values="0 0 0 0 0 0 0 0 0 0 0 0 0 0 0 0 0 0 0.204257 0"/><feBlend in2="BackgroundImageFix" result="effect1_dropShadow_6_7537"/><feBlend in="SourceGraphic" in2="effect1_dropShadow_6_7537" result="shape"/></filter></defs></svg>