<svg xmlns="http://www.w3.org/2000/svg" width="24" height="24" fill="none"><g clip-path="url(#a)"><path fill="#fff" d="m16.624 13.92 2.717 2.716-7.353 7.353-7.352-7.352 2.717-2.717 4.636 4.66 4.635-4.66Zm4.637-4.636L24 12l-2.715 2.716L18.568 12l2.693-2.716Zm-9.272 0 2.716 2.692-2.717 2.717L9.272 12l2.716-2.715.001-.001Zm-9.273 0L5.41 12l-2.692 2.692L0 12l2.716-2.716ZM11.99.01l7.352 7.33-2.717 2.715-4.636-4.636-4.635 4.66-2.717-2.716L11.989.011 11.99.01Z"/></g><defs><clipPath id="a"><path fill="#fff" d="M0 0h24v24H0z"/></clipPath></defs></svg>