<svg xmlns="http://www.w3.org/2000/svg" width="24" height="24" fill="none"><path fill="#FF8A00" stroke="#FF8A00" d="m20.845 4.184.013-.006.013-.005c.264-.12.43-.056.507.019.084.081.213.32.084.838l-.002.009-.002.008-3.019 14.228v.002c-.092.44-.24.561-.311.593-.073.033-.25.057-.599-.129l-4.57-3.376-.342-.252-.305.296-2.21 2.148a2.867 2.867 0 0 1-.018.019l.245-3.657 8.379-7.562.002-.002c.121-.108.293-.3.303-.566a.605.605 0 0 0-.142-.414.665.665 0 0 0-.295-.199 1.01 1.01 0 0 0-.527-.02 1.63 1.63 0 0 0-.512.208l-.007.004L7.194 12.89l-4.332-1.351-.002-.001a1.015 1.015 0 0 1-.336-.158.557.557 0 0 1 .06-.06c.096-.086.266-.193.534-.3l17.727-6.836Z"/></svg>