<svg xmlns="http://www.w3.org/2000/svg" width="337" height="339" fill="none"><path fill="url(#a)" d="M185.174 28.232C107.706 22.148 39.462 86.699 32.736 172.409 26.01 258.12 83.352 332.519 160.82 338.603c77.468 6.084 145.712-58.467 152.438-144.177 6.726-85.711-50.616-160.128-128.084-166.194Z" style="mix-blend-mode:multiply"/><path fill="url(#b)" d="M281.447 92.658c8.153-22.035 16.985-48.6 37.128-62.32 1.909-1.285 6.584-3.908 11.615-5.71 4.871-1.766 6.69-5.46 4.728-10.866-1.303-3.55-5.192-5.316-7.993-5.53-31.169-2.498-58.271 15.754-68.886 15.879-10.598.142-6.334-17.342-18.199-17.414-11.864-.089-33.791 15.915-44.175 15.647-10.384-.285-9.742-17.003-21.999-16.878-12.257.107-32.525 15.79-41.588 15.826-9.082.053-6.548-16.7-15.54-16.86-17.913-.322-33.774 18.18-42.784 31.722-10.17 15.29-16.718 32.774-21.553 50.384-6.565 23.89-21.178 141.305-23.247 152.117-2.677 13.898-13.756 30.437-25.46 41.624-4.14 3.943-1.713 10.883 3.96 11.347 6.977.553 43.73-13.327 53.668-12.525 9.01.714 4.96 17.2 15.469 18.038 8.528.696 37.485-14.13 46.512-13.417 9.385.75 6.923 17.681 16.325 18.431 15.219 1.231 39.484-13.72 52.918-12.65 16.093 1.285.607 16.932 23.587 18.769 13.274 1.053 26.263-13.113 33.024-27.012 8.279-17.038 15.451-86.46 18.038-111.045 2.034-19.483 10.777-67.602 14.452-77.557Z"/><path fill="url(#c)" d="M275.649 74.031c8.153-22.034 17.948-42.909 38.091-56.629 4.068-2.765 11.49-6.084 15.023-9.028C313.223 2.683 118.18.167 109.187.007 91.292-.314 83.692 10.96 74.682 24.503c-10.17 15.29-16.718 32.757-21.553 50.385-6.565 23.89-21.16 141.304-23.247 152.116-2.676 13.899-13.756 30.42-25.46 41.625-4.121 3.943-1.713 10.883 3.96 11.347 6.977.553 43.73-13.328 53.686-12.525 8.992.714 4.942 17.199 15.45 18.038 8.529.678 37.486-14.131 46.514-13.417 9.384.749 6.94 17.681 16.325 18.43 15.218 1.213 39.501-13.72 52.917-12.649 16.093 1.284 10.705 21.124 23.248 17.591 8.742-2.462 15.629-5.602 22.391-19.483 8.279-17.038 14.63-100.733 17.128-120.376 2.516-19.662 15.932-71.598 19.608-81.554Z"/><path fill="#729EB1" d="M144.71 156.869c-38.395 2.552-84.194 2.891-121.27-1.213-13.987-1.695-21.07-11.472-19.446-24.996 2.747-20.75 10.08-48.19 18.84-68.94 5.852-13.506 16.397-22.89 31.437-23.176 40.268-.767 82.785-1.873 120.484-3.122 14.487-.482 26.53 14.434 24.853 28.44-2.997 22.248-9.831 47.101-19.715 69.421-6.351 13.845-20.303 22.462-35.183 23.586Z" opacity=".3"/><path fill="url(#d)" d="M335.525 13.745c-1.374-4.247-5.745-7.458-10.259-5.87-8.046 2.819-15.451 7.94-22.177 14.737-15.254 15.433-25.139 36.54-32.329 56.754-6.369 17.948-10.758 36.842-13.988 55.612-2.337 13.72-4.139 27.547-5.744 41.374-2.248 19.447-4.14 38.948-6.709 58.36-1.659 12.525-3.657 25.174-8.171 37.039-2.159 5.673-4.996 12.881-9.242 17.235-4.264 4.371-11.044 5.263-13.256 9.366-1.713 3.141-.714 8.457 4.067 9.225 10.866 1.748 21.053-6.745 26.852-15.077 6.048-8.724 9.206-19.161 11.561-29.402.607-2.659 1.16-5.353 1.695-8.047 4.96-25.174 6.655-50.955 9.599-76.433 1.57-13.488 3.301-26.976 5.602-40.375 2.962-17.396 6.869-34.773 12.311-51.562 5.584-17.235 13.452-35.95 26.262-49.082 5.674-5.817 12.097-10.206 19.376-12.757 4.746-1.677 5.959-6.833 4.55-11.097Z"/><path fill="#D35D38" d="m244.479 114.656-1.106 2.855-2.355 6.066-2.159 5.531c-1.391 3.479-3.514 3.532-6.066 2.747-2.426-.731-4.603-1.659-5.174-2.819l-.838-10.847-3.64-7.351-12.007-24.193c-1.303-2.623-.072-5.816 2.658-6.869l41.285-20.16c1.124-.447 3.212.356 5.014 1.587 2.069 1.41 3.14 3.283 2.248 6.262l-4.675 13.22c.089.019.179.037.268.054l-13.453 33.917Z"/><path fill="url(#e)" d="M282.928 172.231c-.803-1.945.856-4.425 1.178-6.263.374-2.069.267-4.371.089-6.44-.464-5.638-2.427-11.24-5.014-16.236-5.174-9.956-13.773-18.056-23.657-23.23-5.442-2.854-11.169-5.031-16.718-7.422l-1.106 2.837-2.355 6.084-2.623 6.762a2.913 2.913 0 0 1-2.694 1.891c-1.088.036-2.212-.5-2.783-1.659l-6.138-12.4-3.639-7.351-12.008-24.175c-1.302-2.623-.071-5.816 2.659-6.869l45.727-17.752c2.427-.946 4.8 1.445 3.872 3.871l-5.727 14.79c.089.019.178.037.268.054 8.51 2.32 16.806 6.584 24.21 11.294 5.674 3.604 11.08 7.69 15.844 12.453 7.689 7.69 13.738 17.432 14.63 28.244.178 2.158.16 4.371-.107 6.619-.428 3.711-1.428 7.368-2.784 10.955-1.213 3.264-16.271 31.329-20.892 24.371a2.572 2.572 0 0 1-.232-.428Z"/><path fill="url(#f)" d="M231.42 129.839c-.429.232-.91.357-1.392.375-1.088.036-2.212-.5-2.783-1.659l-6.138-12.4-3.639-7.351-12.008-24.175c-1.302-2.623-.071-5.816 2.659-6.869l45.727-17.752c2.427-.946 4.8 1.445 3.872 3.871-1.302 3.355-2.551 6.727-3.854 10.08-.446 1.125-1.837 4.675-1.837 4.675s-2.73.286-4.104.589c-4.799 1.053-9.295 5.923-11.74 9.991-2.515 4.229-3.282 9.207-1.659 13.899.625 1.784 1.463 3.461 2.319 5.12.696 1.338 1.963 4.443 1.963 4.443s-1.731 4.407-1.998 5.103l-1.463 3.782-2.623 6.762a2.973 2.973 0 0 1-1.302 1.516Z"/><path fill="url(#g)" d="M280.252 172.195s1.07-1.088 1.588-1.73c4.674-5.638 2.123-17.949-2.659-27.173-5.977-11.49-16.646-20.197-28.386-25.496-3.372-1.516-11.989-5.156-11.989-5.156s-9.956-18.109-5.977-25.031c5.317-9.26 20.161-9.242 28.439-5.71 5.299 2.248 10.348 5.032 15.201 8.118 5.674 3.604 11.08 7.69 15.843 12.454 7.69 7.689 13.738 17.431 14.631 28.243.178 2.159.16 4.371-.108 6.619-.428 3.711-1.427 7.368-2.783 10.955-3.782 8.314-11.204 20.089-14.558 23.39-1.731 1.677-5.531 4.514-5.531 4.514l-3.711-3.997Z"/><path fill="#F0592A" d="M89.204 209.769c1.089 1.356 1.767 3.016 2.552 4.568 1.284 2.551 2.551 5.138 3.836 7.689l2.783 5.478 12.221 24.068c2.516 4.514.607 8.261-4.067 10.419-5.567 2.552-11.383 4.532-17.075 6.798-9.491 3.783-16.521 7.511-26.53 9.742-1.749.374-10.42.446-8.939-3.462 1.802-4.799 3.997-9.509 5.549-14.38 5.442-17.092 13.024-35.683 19.322-52.4 1.303-3.408 6.495-1.446 8.636-.072.678.428 1.23.964 1.712 1.552Z"/><path fill="url(#h)" d="m83.638 208.36 6.262 12.328 3.711 7.315 12.204 24.086c1.338 2.605.125 5.799-2.587 6.887l-45.567 18.163c-2.409.963-4.818-1.41-3.908-3.836l5.603-14.826a1.476 1.476 0 0 1-.268-.072c-8.528-2.248-16.86-6.423-24.318-11.061-5.71-3.551-11.133-7.601-15.95-12.311-7.761-7.618-13.899-17.306-14.88-28.118a34.232 34.232 0 0 1 .036-6.62c.41-3.711 1.373-7.368 2.676-10.972 1.927-4.336 4.068-8.6 6.583-12.632 2.07-3.336 4.425-7.333 7.833-9.42 1.106-.66 2.248-1.213 3.568-1.035 2.409.303 2.98 2.444 2.284 4.425-.767 2.194-.857 4.585-.66 6.904.481 5.603 2.515 11.116 5.084 16.076.084.142.167.291.25.446 5.246 9.902 13.917 17.93 23.854 23.015 5.478 2.801 11.205 4.924 16.79 7.28l1.07-2.855 2.301-6.102 2.552-6.78c.463-1.231 1.57-1.891 2.694-1.927 1.088-.053 2.212.482 2.783 1.642Z"/><path fill="url(#i)" d="m83.638 208.36 6.262 12.328 3.711 7.315 12.204 24.086c1.338 2.605.125 5.799-2.587 6.887l-45.567 18.163c-2.409.963-4.818-1.392-3.908-3.836 3.301-8.778 7.512-17.413 10.901-26.227 4.907-12.721 8.707-25.745 13.507-38.431.463-1.231 1.57-1.891 2.694-1.927 1.088-.053 2.212.482 2.783 1.642Z"/><path fill="url(#j)" d="m83.638 208.36 6.262 12.328 3.711 7.315 12.204 24.086c1.338 2.605.125 5.799-2.587 6.887l-45.567 18.163c-2.409.963-4.818-1.392-3.908-3.836 3.301-8.778 7.512-17.413 10.901-26.227 4.907-12.721 8.707-25.745 13.507-38.431.463-1.231 1.57-1.891 2.694-1.927 1.088-.053 2.212.482 2.783 1.642Z"/><path fill="url(#k)" d="M70.025 224.024c1.017.857 1.855 1.856 2.444 2.998 1.73 3.443.642 7.654-1.249 11.008-3.407 6.048-9.349 10.598-16.057 12.346-14.024 3.64-26.87-6.066-36.343-15.343-7.761-7.619-13.899-17.307-14.88-28.119a34.222 34.222 0 0 1 .036-6.619c.41-3.711 1.373-7.368 2.676-10.972 3.71-8.368 7.6-14.951 12.007-20.126 4.425-5.156 9.35-8.439 16.29-11.668 6.958-3.211 8.67-2.979 8.67-2.979l.143 5.745s-9.741 1.266-14.898 6.886c-5.156 5.638-2.14 17.735 2.73 26.905 5.246 9.902 13.917 17.931 23.854 23.016 4.068 2.087 10.634 3.586 14.577 6.922Z"/><path fill="url(#l)" d="M89.204 209.769c-.481-.589-1.034-1.124-1.712-1.552-1.713-1.088-5.406-2.587-7.476-1.356a2.957 2.957 0 0 0-1.855 1.784l-2.552 6.78-2.301 6.102-1.07 2.854-4.015-1.659c-3.586-2.248-8.368-3.586-11.83-5.174-.302-.143-.623-.285-.945-.446a57.707 57.707 0 0 1-12.132-8.279c-4.728-4.192-8.778-9.17-11.722-14.737-4.87-9.17-7.886-21.267-2.73-26.905 5.157-5.62 14.898-6.886 14.898-6.886l-.143-5.745s-1.712-.232-8.67 2.979c-6.94 3.229-11.865 6.512-16.29 11.668-4.407 5.175-8.296 11.758-12.007 20.126-1.303 3.604-2.266 7.261-2.676 10.972a34.222 34.222 0 0 0-.036 6.619c.981 10.812 7.119 20.5 14.88 28.119 4.46 4.353 9.652 8.813 15.361 11.918.19.131.387.261.589.392 7.458 4.639 15.79 8.814 24.318 11.062.09.036.178.054.268.071l-5.603 14.827-.053.214c-.018.071-.054.16-.072.25-.017.053-.017.124-.035.196 0 .071-.018.16-.018.25-.018.053 0 .125 0 .178v.25c0 .071.018.125.036.196 0 .071.018.161.035.232.018.071.036.125.054.178.035.072.053.143.071.215.018.053.054.089.072.142-.518 3.372 7.422 3.283 9.08 2.926 10.01-2.23 17.04-5.959 26.531-9.741 5.692-2.266 11.508-4.246 17.075-6.798 4.674-2.159 6.583-5.905 4.067-10.419l-12.221-24.068-2.783-5.478c-1.285-2.551-2.552-5.138-3.836-7.689-.785-1.553-1.463-3.212-2.552-4.568Z"/><path fill="url(#m)" d="M140.945 153.087c-38.395 2.569-84.194 2.908-121.269-1.196C5.671 150.179-1.394 140.419.23 126.896c2.73-20.768 10.063-48.19 18.823-68.94 5.87-13.524 16.396-22.873 31.437-23.194 40.25-.856 82.588-3.675 120.483-3.122 14.488.232 26.531 14.434 24.854 28.439-2.998 22.248-9.831 47.119-19.715 69.421-6.352 13.845-20.304 22.463-35.166 23.587Z"/><path fill="url(#n)" d="M140.945 153.087c-38.395 2.569-84.194 2.908-121.269-1.195C5.671 150.179-1.394 140.419.23 126.896c2.73-20.768 10.063-48.19 18.823-68.94 5.87-13.524 16.396-22.909 31.437-23.194 40.268-.767 82.802-1.873 120.483-3.122 14.488-.464 26.531 14.434 24.854 28.44-2.998 22.248-9.831 47.119-19.715 69.42-6.352 13.845-20.304 22.463-35.166 23.587Z"/><path fill="#432594" d="M147.065 117.85c-.488.059-.97.089-1.446.089l-11.454-.143c-5.263-.053-8.475-4.674-7.154-10.312 1.32-5.656 6.655-10.17 11.918-10.116l11.436.143c5.281.053 8.475 4.674 7.155 10.33-1.178 5.12-5.692 9.313-10.455 10.009Zm-34.327-.41a8.665 8.665 0 0 1-1.463.089l-11.437-.125c-5.263-.072-8.475-4.692-7.154-10.33 1.32-5.638 6.655-10.17 11.918-10.099l11.436.125c5.281.072 8.475 4.693 7.155 10.33-1.196 5.121-5.692 9.332-10.455 10.01Zm-34.328-.411c-.487.072-.975.107-1.462.107l-11.437-.142c-5.263-.054-8.475-4.675-7.154-10.313 1.32-5.656 6.654-10.17 11.918-10.116l11.436.143c5.263.053 8.475 4.674 7.155 10.33-1.196 5.12-5.692 9.313-10.456 9.991Zm-34.327-.392a8.658 8.658 0 0 1-1.463.089l-11.436-.125c-5.263-.071-8.475-4.692-7.154-10.33 1.32-5.638 6.654-10.17 11.918-10.099l11.436.125c5.263.072 8.475 4.693 7.154 10.331-1.195 5.12-5.709 9.331-10.455 10.009Z" opacity=".3"/><path fill="#402A69" d="m61.711 120.74-23.658-.267-7.886-.107c-3.64-.036-7.315 3.086-8.225 6.976-.892 3.889 1.303 7.065 4.942 7.118 0 0 32.222.339 32.543.304 3.283-.482 6.388-3.372 7.226-6.905.892-3.889-1.302-7.083-4.942-7.119ZM99.232 120.633l-11.936.018-7.886-.089c-3.622-.036-7.297 3.086-8.207 6.976-.91 3.889 1.302 7.065 4.924 7.119 0 0 20.482.035 20.82 0 3.284-.482 6.388-3.372 7.209-6.905.91-3.889-1.303-7.065-4.924-7.119Z" opacity=".3"/><path fill="url(#o)" d="M146.762 115.281c-.488.071-.975.107-1.463.107l-11.436-.143c-5.264-.053-8.475-4.692-7.155-10.33 1.32-5.638 6.655-10.17 11.918-10.098l11.437.125c5.263.071 8.474 4.692 7.154 10.33-1.195 5.12-5.691 9.331-10.455 10.009Zm-34.345-.393c-.476.06-.957.09-1.445.09l-11.436-.143c-5.264-.054-8.475-4.675-7.155-10.313 1.32-5.655 6.655-10.17 11.918-10.116l11.437.143c5.263.054 8.474 4.675 7.154 10.33-1.195 5.121-5.709 9.314-10.473 10.009Zm-34.327-.41a8.377 8.377 0 0 1-1.445.089l-11.437-.125c-5.28-.071-8.474-4.692-7.154-10.33 1.302-5.638 6.637-10.17 11.918-10.098l11.437.125c5.263.071 8.474 4.692 7.154 10.33-1.195 5.12-5.71 9.331-10.473 10.009Zm-34.327-.41a9.778 9.778 0 0 1-1.445.107l-11.437-.143c-5.28-.053-8.474-4.674-7.154-10.33 1.302-5.638 6.637-10.152 11.918-10.099l11.436.143c5.264.054 8.475 4.675 7.155 10.313-1.195 5.138-5.71 9.331-10.473 10.009Z"/><path fill="#402A69" d="m50.935 82.773-11.133-.339c-3.176-.107-5.352-3.229-4.336-6.244l4.015-11.972a7.908 7.908 0 0 1 7.422-5.388l12.168-.09c3.175-.017 5.477 3.052 4.567 6.103l-3.318 11.15a9.454 9.454 0 0 1-9.385 6.78ZM153.38 82.756l-11.115-.34c-3.176-.106-5.37-3.229-4.353-6.244l4.014-11.972c1.071-3.193 4.068-5.352 7.44-5.388l12.15-.089c3.194-.018 5.495 3.051 4.585 6.102l-3.318 11.169a9.48 9.48 0 0 1-9.403 6.762Z" opacity=".3"/><path fill="url(#p)" d="m49.864 80.74-11.133-.34c-3.176-.107-5.37-3.247-4.353-6.262l4.014-11.954a7.907 7.907 0 0 1 7.44-5.388l12.15-.089c3.194-.018 5.495 3.033 4.585 6.102l-3.318 11.15a9.469 9.469 0 0 1-9.385 6.78Z"/><path fill="url(#q)" d="M50.917 77.546a6.522 6.522 0 0 1-.964.035l-11.133-.338c-.678-.036-1.07-.447-1.249-.678a1.61 1.61 0 0 1-.196-1.41l4.014-11.954c.589-1.73 2.123-2.997 3.925-3.211.179-.024.357-.036.536-.036l12.15-.09c.696 0 1.106.393 1.284.643.179.232.446.732.25 1.392l-3.319 11.169a6.331 6.331 0 0 1-5.298 4.478Z"/><path fill="#75A0B3" d="M240.518 231.036c-9.777 31.99-41.552 50.652-70.973 41.66-29.403-8.992-45.318-42.231-35.523-74.238 9.778-31.99 41.553-50.652 70.956-41.66 29.421 8.992 45.318 42.231 35.54 74.238Z"/><path fill="url(#r)" d="M231.848 212.981c-1.856 12.061-7.511 23.729-15.629 33.221-6.53 7.654-14.666 13.916-23.587 18.037a952.243 952.243 0 0 0-1.909-5.352c7.422-3.675 14.416-8.921 20.429-15.683 8.171-9.188 13.381-19.875 15.575-30.598l5.121.375Zm-5.121-.375c-2.194 10.723-7.404 21.41-15.575 30.598-6.013 6.762-13.007 12.008-20.429 15.683l-1.07-2.997c6.904-3.551 13.416-8.529 19.054-14.862 7.672-8.636 12.668-18.609 14.934-28.636l3.086.214Zm-3.086-.214c-2.266 10.027-7.262 20-14.934 28.636-5.638 6.333-12.15 11.311-19.054 14.862-.75-2.118-1.505-4.235-2.266-6.352 5.905-3.158 11.472-7.493 16.325-12.953 6.655-7.458 11.044-16.022 13.203-24.693l6.726.5Zm-6.726-.5c-2.159 8.671-6.548 17.235-13.203 24.693-4.853 5.46-10.42 9.795-16.325 12.953l-.535-1.499c5.727-2.997 11.115-7.136 15.807-12.4 6.387-7.19 10.58-15.486 12.543-23.872.571.048 1.142.09 1.713.125Zm-1.713-.125c-1.963 8.386-6.156 16.682-12.543 23.872-4.692 5.264-10.08 9.403-15.807 12.4-.155-.428-.31-.862-.464-1.302 5.531-2.873 10.758-6.869 15.29-11.972 6.209-6.958 10.223-15.005 12.061-23.105l1.463.107Zm-1.463-.107c-1.838 8.1-5.852 16.147-12.061 23.105-4.532 5.103-9.759 9.099-15.29 11.972-1.82-5.091-3.646-10.188-5.478-15.29 3.283-1.713 6.37-4.086 9.046-7.101 3.729-4.175 6.137-9.01 7.226-13.881 5.519.404 11.038.803 16.557 1.195Zm-16.557-1.195c-1.089 4.871-3.497 9.706-7.226 13.881-2.676 3.015-5.763 5.388-9.046 7.101l-8.135-22.766 24.407 1.784Zm-4.55 53.774c-15.968 7.369-34.47 7.904-50.973-2.729-4.46-2.605-8.314-5.71-11.597-9.224l.892-.928a40.635 40.635 0 0 0 2.427 2.337c15.29 13.595 37.806 14.88 57.342 5.192a952.243 952.243 0 0 1 1.909 5.352Zm-1.909-5.352c-19.536 9.688-42.052 8.403-57.342-5.192a40.635 40.635 0 0 1-2.427-2.337c.5-.5.993-.999 1.481-1.499a36.763 36.763 0 0 0 1.855 1.731c14.684 13.06 36.469 14.023 55.363 4.3l1.07 2.997Zm-1.07-2.997c-18.894 9.723-40.679 8.76-55.363-4.3a36.763 36.763 0 0 1-1.855-1.731l4.068-4.139.553.517c13.31 11.829 33.221 12.489 50.331 3.301.761 2.117 1.516 4.234 2.266 6.352Zm-2.266-6.352c-17.11 9.188-37.021 8.528-50.331-3.301l-.553-.517c.642-.666 1.29-1.332 1.945-1.998.261.249.529.493.802.731 12.65 11.258 31.437 12.043 47.602 3.586l.535 1.499Zm-.535-1.499c-16.165 8.457-34.952 7.672-47.602-3.586a24.213 24.213 0 0 1-.802-.731l1.855-1.892a29.78 29.78 0 0 0 1.659 1.606c11.74 10.437 29.243 11.151 44.426 3.301.154.44.309.874.464 1.302Zm-.464-1.302c-15.183 7.85-32.686 7.136-44.426-3.301a29.78 29.78 0 0 1-1.659-1.606c4.341-4.424 8.683-8.855 13.024-13.292.321.334.661.661 1.017.982 7.03 6.244 17.503 6.655 26.566 1.927 1.832 5.102 3.658 10.199 5.478 15.29Zm-5.478-15.29c-9.063 4.728-19.536 4.317-26.566-1.927a19.795 19.795 0 0 1-1.017-.982c6.483-6.613 12.965-13.232 19.448-19.857l8.135 22.766Zm-50.848 20.839c-11.704-12.543-15.843-30.117-11.972-47.584l1.285.107c-3.818 17.146 0 34.577 11.579 46.549l-.892.928Zm.892-.928c-11.579-11.972-15.397-29.403-11.579-46.549.618.048 1.237.089 1.855.125-3.8 16.664-.124 33.542 11.205 44.925-.488.5-.981.999-1.481 1.499Zm1.481-1.499c-11.329-11.383-15.005-28.261-11.205-44.925 1.356.107 2.712.208 4.068.303-3.265 15.184.429 30.474 11.205 40.483l-4.068 4.139Zm4.068-4.139c-10.776-10.009-14.47-25.299-11.205-40.483l2.534.179c-2.998 14.309.499 28.743 10.616 38.306-.655.666-1.303 1.332-1.945 1.998Zm1.945-1.998c-10.117-9.563-13.614-23.997-10.616-38.306l3.836.285c-3.194 13.381-.357 26.959 8.635 36.129l-1.855 1.892Zm1.855-1.892c-8.992-9.17-11.829-22.748-8.635-36.129 5.519.405 11.038.803 16.557 1.196-1.945 8.011-.268 16.146 5.102 21.641-4.341 4.437-8.683 8.868-13.024 13.292Zm13.024-13.292c-5.37-5.495-7.047-13.63-5.102-21.641l24.55 1.784a30668.427 30668.427 0 0 1-19.448 19.857Zm-35.237-23.836c2.32-10.491 7.547-20.928 15.754-30.188 6.263-7.029 13.417-12.417 20.946-16.146.131.38.268.761.411 1.142-7.44 3.675-14.452 8.938-20.464 15.718-7.922 8.885-13.043 19.18-15.362 29.581l-1.285-.107Zm1.285.107c2.319-10.401 7.44-20.696 15.362-29.581 6.012-6.78 13.024-12.043 20.464-15.718.202.582.41 1.165.624 1.748-7.136 3.586-13.881 8.671-19.697 15.201-7.636 8.6-12.614 18.502-14.898 28.475a96.238 96.238 0 0 1-1.855-.125Zm1.855.125c2.284-9.973 7.262-19.875 14.898-28.475 5.816-6.53 12.561-11.615 19.697-15.201.44 1.237.88 2.468 1.32 3.693-6.619 3.23-12.881 7.904-18.269 13.952-7.066 7.94-11.597 17.11-13.578 26.334a463.517 463.517 0 0 1-4.068-.303Zm4.068.303c1.981-9.224 6.512-18.394 13.578-26.334 5.388-6.048 11.65-10.722 18.269-13.952l.821 2.32c-6.298 3.051-12.239 7.457-17.342 13.185-6.673 7.511-10.954 16.218-12.792 24.96l-2.534-.179Zm2.534.179c1.838-8.742 6.119-17.449 12.792-24.96 5.103-5.728 11.044-10.134 17.342-13.185l1.32 3.675c-5.673 2.89-11.043 6.958-15.682 12.168-6.066 6.815-10.063 14.666-11.936 22.587l-3.836-.285Zm3.836.285c1.873-7.921 5.87-15.772 11.936-22.587 4.639-5.21 10.009-9.278 15.682-12.168 1.82 5.103 3.64 10.199 5.46 15.29-3.408 1.713-6.637 4.157-9.438 7.297-3.586 4.033-5.959 8.689-7.083 13.364a7674.52 7674.52 0 0 1-16.557-1.196Zm16.557 1.196c1.124-4.675 3.497-9.331 7.083-13.364 2.801-3.14 6.03-5.584 9.438-7.297l8.029 22.445-24.55-1.784Zm6.565-48.529c20.714-10.259 44.337-7.975 60.34 7.119-.297.297-.588.594-.874.892a57.685 57.685 0 0 0-1.748-1.642c-15.291-13.595-37.771-14.88-57.307-5.227-.143-.381-.28-.762-.411-1.142Zm.411 1.142c19.536-9.653 42.016-8.368 57.307 5.227a57.685 57.685 0 0 1 1.748 1.642c-.523.523-1.041 1.046-1.552 1.57a39.522 39.522 0 0 0-2.159-2.07c-14.523-12.899-35.986-13.988-54.72-4.621-.214-.583-.422-1.166-.624-1.748Zm.624 1.748c18.734-9.367 40.197-8.278 54.72 4.621a39.522 39.522 0 0 1 2.159 2.07 1291.01 1291.01 0 0 0-4.193 4.282 37.02 37.02 0 0 0-2.979-2.962c-12.811-11.401-31.74-12.436-48.387-4.318-.44-1.225-.88-2.456-1.32-3.693Zm1.32 3.693c16.647-8.118 35.576-7.083 48.387 4.318a37.02 37.02 0 0 1 2.979 2.962l-1.909 1.944a37.022 37.022 0 0 0-2.569-2.533c-12.257-10.901-30.259-11.972-46.067-4.371l-.821-2.32Zm.821 2.32c15.808-7.601 33.81-6.53 46.067 4.371.904.809 1.76 1.653 2.569 2.533l-1.731 1.767a29.746 29.746 0 0 0-1.552-1.481c-11.65-10.366-28.939-11.151-44.033-3.515l-1.32-3.675Zm1.32 3.675c15.094-7.636 32.383-6.851 44.033 3.515.536.476 1.053.969 1.552 1.481a13768.31 13768.31 0 0 0-13.024 13.292 15.814 15.814 0 0 0-.91-.875c-6.922-6.155-17.199-6.637-26.191-2.123-1.82-5.091-3.64-10.187-5.46-15.29Zm5.46 15.29c8.992-4.514 19.269-4.032 26.191 2.123.321.286.625.577.91.875a31435.078 31435.078 0 0 1-19.072 19.447l-8.029-22.445Zm50.384-20.749a52.292 52.292 0 0 1 7.03 8.189c9.135 11.989 11.757 25.906 9.688 39.305a792.351 792.351 0 0 1-5.121-.375c3.533-17.146-.606-34.47-12.471-46.227.286-.298.577-.595.874-.892Zm-.874.892c11.865 11.757 16.004 29.081 12.471 46.227l-3.086-.214c3.711-16.45.107-33.096-10.937-44.443.511-.524 1.029-1.047 1.552-1.57Zm-1.552 1.57c11.044 11.347 14.648 27.993 10.937 44.443l-6.726-.5c3.604-14.523.838-29.331-8.404-39.661a1291.01 1291.01 0 0 1 4.193-4.282Zm-4.193 4.282c9.242 10.33 12.008 25.138 8.404 39.661a75.844 75.844 0 0 1-1.713-.125c3.211-13.791.374-27.814-8.6-37.592l1.909-1.944Zm-1.909 1.944c8.974 9.778 11.811 23.801 8.6 37.592l-1.463-.107c2.997-13.256.089-26.655-8.868-35.718l1.731-1.767Zm-1.731 1.767c8.957 9.063 11.865 22.462 8.868 35.718a7674.42 7674.42 0 0 1-16.557-1.195c1.748-7.886 0-15.843-5.335-21.231 4.342-4.437 8.683-8.868 13.024-13.292Zm-13.024 13.292c5.335 5.388 7.083 13.345 5.335 21.231l-24.407-1.784c6.363-6.483 12.721-12.965 19.072-19.447Z"/><path fill="url(#s)" fill-rule="evenodd" d="M193.399 205.184c-.036.607-1.499.446-2.284.5-1.409.107-2.944.446-4.317.41l-3.533-2.712s2.783-1.677 2.373-2.89c-.268-.999-3.372-6.013-3.907-5.103-.946 3.176-1.909 6.352-2.855 9.528-.089.285-.036.392.178.517 4.104 2.623 3.676 1.963 6.084 3.872 4.586 3.282 6.316 9.527 4.55 14.737-2.658 8.118-11.722 12.328-19.858 11.739-2.515 5.174-1.552 8.618-3.497 8.404-.892-.018-2.497-.5-5.62-.999l-3.514-2.677s6.761-6.012 5.727-6.833c-1.16-.642-2.498-1.731-3.694-2.658.339.16-1.784-1.892-2.355-2.552-1.052.999-1.837 2.498-2.801 3.622-.107.161-.232.196-.41.179-1.088-.215-2.302-.429-3.39-.625l-3.515-2.676s5.174-10.437 5.906-16.254c.018-.196 3.211-3.532 3.211-3.532s2.944 2.158 3.479 2.676c.91 3.836 1.338 8.296 3.854 11.597 1.356 1.606 2.551 2.89 2.766 2.159.57-1.927 1.159-3.836 1.712-5.763 1.214-4.764 2.248-5.388 1.249-6.245-1.07-.66-2.141-1.32-3.193-2.016-1.892-1.177-3.248-2.105-5.014-3.657-1.017-.91 3.444-26.192 17.431-23.123.803-2.694 1.588-5.352 2.409-8.064 1.267.232 2.587-1.517 2.587-1.517l3.782 2.659c-.82 2.872-1.73 5.78-2.569 8.671 1.196 1.034 2.89 2.248 4.068 3.425.571.393 2.212-4.103 2.212-4.103l3.551 2.676c.214 1.231-.107 2.605-.107 3.889-.214 4.247-.5 8.457-.696 12.739Zm-35.041 25.157c.286.214.571.428.874.678-.089-.054-.356-.25-.874-.678Zm14.595-28.154c.856-3.176 2.123-6.512 2.765-9.563-7.654-.66-8.939 6.726-2.765 9.563Zm3.568 15.807c1.088.768-.874-.535-1.303-.731-.785 2.765-1.712 5.566-2.515 8.35a42.659 42.659 0 0 0-.607 2.373c2.391.035 5.014-.625 6.548-2.641 1.641-3.015.357-5.691-2.123-7.351Z" clip-rule="evenodd"/><path fill="url(#t)" fill-rule="evenodd" d="M186.155 221.349c-2.373 7.368-10.401 11.739-17.823 11.739a57.465 57.465 0 0 0-2.034 0c-.268.054-.286.446-.357.66-3.39 9.385.303 8.225-8.742 6.762 3.318-12.542 4.228-6.993-1.749-12.507-.767-.642-1.356-1.623-2.123-2.23-.482.197-.839 1.178-1.231 1.588-.518.678-1.071 1.32-1.552 2.034-.107.161-.232.214-.411.179-1.088-.197-2.301-.429-3.372-.607.018-.553.107-.981.179-1.481.713-5.959 1.463-11.65 2.194-17.467.018-.196.054-.321.303-.339a727.16 727.16 0 0 0 6.245-.553c.268.036.303.107.321.286.571 4.406 1.57 9.01 4.514 12.435.375.268 1.873 1.909 1.927 1.071.589-1.909 1.16-3.836 1.731-5.745 1.926-7.636 3.389-4.639-3.087-9.01-11.686-7.369-6.369-23.051 6.066-25.799 2.516-.767 4.96-.5 7.476-.25.803-2.676 1.588-5.352 2.408-8.046 1.695.303 3.408.553 5.085.892.732.142 1.303.196 1.178.624-.821 2.73-1.624 5.495-2.462 8.243-.072.268-.036.375.178.482 1.534.695 2.605 1.98 3.889 2.997.536.41 1.428-1.16 1.909-1.624.678-.678 1.463-.285 2.159-.142.482.125 1.802.018 1.784.588-.124 5.46-.588 10.919-.892 16.379-.178.571-1.695.268-2.283.482-1.303.142-2.605.285-3.89.428-.392.036-.464.107-.535-.375-.303-1.748-.5-3.568-1.053-5.245-.267-.999-3.354-6.013-3.907-5.103-.946 3.176-1.891 6.352-2.855 9.527-.089.286-.035.411.179.536 1.873 1.142 3.782 2.212 5.566 3.479 4.925 3.229 6.851 9.581 5.067 15.112Zm-11.044 1.302c1.909-3.497-.142-6.566-3.425-8.082-.981 3.568-2.355 7.279-3.122 10.723 2.39.035 5.013-.625 6.547-2.641Zm-5.691-23.158c.856-3.176 2.123-6.53 2.765-9.581-7.315-.589-9.331 6.28-2.765 9.581Z" clip-rule="evenodd"/><defs><linearGradient id="b" x1="11.5" x2="392.276" y1="-53.166" y2="19.43" gradientUnits="userSpaceOnUse"><stop offset=".01" stop-color="#B7DFED"/><stop offset=".273" stop-color="#DDEBEE"/><stop offset=".939" stop-color="#B7DFED"/></linearGradient><linearGradient id="c" x1="321.793" x2="298.139" y1="6.899" y2="303.11" gradientUnits="userSpaceOnUse"><stop stop-color="#B7DFED"/><stop offset=".121" stop-color="#F3F8FB"/><stop offset=".521" stop-color="#B7DFED"/><stop offset=".835" stop-color="#9EC9D8"/><stop offset=".987" stop-color="#CFEBFE"/></linearGradient><linearGradient id="d" x1="747.031" x2="511.794" y1="333.696" y2="608.6" gradientUnits="userSpaceOnUse"><stop stop-color="#729EB1"/><stop offset=".171" stop-color="#CFEBFE"/><stop offset=".727" stop-color="#8AB3C1"/><stop offset=".905" stop-color="#CFEBFE"/></linearGradient><linearGradient id="e" x1="174.635" x2="293.545" y1="137.289" y2="201.671" gradientUnits="userSpaceOnUse"><stop offset=".034" stop-color="#FFC39D"/><stop offset=".677" stop-color="#FB824C"/><stop offset="1" stop-color="#F0592A"/></linearGradient><linearGradient id="f" x1="294.359" x2="270.952" y1="80.787" y2="71.612" gradientUnits="userSpaceOnUse"><stop stop-color="#FB824C"/><stop offset=".311" stop-color="#D56340"/><stop offset="1" stop-color="#FB824C"/></linearGradient><linearGradient id="h" x1="26.611" x2="154.436" y1="78.692" y2="136.451" gradientUnits="userSpaceOnUse"><stop offset=".034" stop-color="#FFC39D"/><stop offset=".677" stop-color="#FB824C"/><stop offset="1" stop-color="#F0592A"/></linearGradient><linearGradient id="i" x1="54.341" x2="47.711" y1="289.712" y2="272.339" gradientUnits="userSpaceOnUse"><stop offset=".036" stop-color="#D35B36"/><stop offset=".279" stop-color="#FB824C"/><stop offset=".989" stop-color="#FFC39D"/></linearGradient><linearGradient id="j" x1="115.84" x2="106.59" y1="257.882" y2="262.461" gradientUnits="userSpaceOnUse"><stop stop-color="#D35B36"/><stop offset=".356" stop-color="#FB824C"/><stop offset="1" stop-color="#FFC39D"/></linearGradient><linearGradient id="m" x1="148.031" x2="145.363" y1="2.751" y2="183.73" gradientUnits="userSpaceOnUse"><stop stop-color="#6945A8"/><stop offset=".13" stop-color="#CF8AFF"/><stop offset=".667" stop-color="#9A6CF0"/><stop offset=".872" stop-color="#6945A9"/><stop offset="1" stop-color="#402A69"/></linearGradient><linearGradient id="n" x1="5.923" x2="237.305" y1="-14.834" y2="59.096" gradientUnits="userSpaceOnUse"><stop offset=".802" stop-color="#4050E7"/><stop offset=".99" stop-color="#5367FE"/></linearGradient><linearGradient id="o" x1="98.008" x2="96.725" y1="78.899" y2="136.376" gradientUnits="userSpaceOnUse"><stop offset=".029" stop-color="#CFEBFE"/><stop offset=".179" stop-color="#F3F8FB"/><stop offset=".531" stop-color="#CFEBFE"/><stop offset=".933" stop-color="#70AED8"/></linearGradient><linearGradient id="p" x1="48.774" x2="71.814" y1="45.48" y2="73.997" gradientUnits="userSpaceOnUse"><stop stop-color="#F9D075"/><stop offset="1" stop-color="#FB793F"/></linearGradient><linearGradient id="q" x1="41.519" x2="62.247" y1="59.363" y2="59.898" gradientUnits="userSpaceOnUse"><stop stop-color="#F29E50"/><stop offset=".251" stop-color="#F9D075"/><stop offset=".745" stop-color="#FB793F"/><stop offset="1" stop-color="#F29E50"/></linearGradient><linearGradient id="r" x1="230.512" x2="155.944" y1="214.128" y2="161.275" gradientUnits="userSpaceOnUse"><stop stop-color="#fff"/><stop offset="1" stop-color="#C9C9C9"/></linearGradient><linearGradient id="s" x1="217.484" x2="236.248" y1="163.291" y2="236.051" gradientUnits="userSpaceOnUse"><stop stop-color="#F29E50"/><stop offset="1" stop-color="#FB793F"/></linearGradient><linearGradient id="t" x1="217.361" x2="234.054" y1="160.675" y2="233.978" gradientUnits="userSpaceOnUse"><stop stop-color="#F9D075"/><stop offset=".366" stop-color="#FFFDA6"/><stop offset="1" stop-color="#F29E50"/></linearGradient><radialGradient id="a" cx="0" cy="0" r="1" gradientTransform="rotate(-85.513 185.684 -1.844) scale(155.668)" gradientUnits="userSpaceOnUse"><stop offset=".488" stop-color="#729EB1"/><stop offset="1" stop-color="#ABC0C3"/></radialGradient><radialGradient id="g" cx="0" cy="0" r="1" gradientTransform="rotate(78.627 15.444 226.101) scale(61.6544)" gradientUnits="userSpaceOnUse"><stop offset=".729" stop-color="#F0592A"/><stop offset=".939" stop-color="#FFC39D"/><stop offset="1" stop-color="#FFC39D"/></radialGradient><radialGradient id="k" cx="0" cy="0" r="1" gradientTransform="rotate(-31.905 334.396 -39.502) scale(130.226)" gradientUnits="userSpaceOnUse"><stop offset=".36" stop-color="#F0592A"/><stop offset=".46" stop-color="#FB793F"/><stop offset=".824" stop-color="#FFC39D"/></radialGradient><radialGradient id="l" cx="0" cy="0" r="1" gradientTransform="rotate(-31.905 479.828 -36.452) scale(38.4978)" gradientUnits="userSpaceOnUse"><stop stop-color="#FFC39D"/><stop offset="1" stop-color="#FB824C"/></radialGradient></defs></svg>