<svg xmlns="http://www.w3.org/2000/svg" width="104" height="49" fill="none"><path fill="url(#a)" fill-rule="evenodd" d="M1 49V22.243s5.675 12.205 6.652 11.84c5.273-1.976 11.559-14.144 14.506-14.144 2.947 0 12.472 10.126 16.66 10.126 4.19 0 12.197-28.585 15.4-28.585 3.202 0 9.283 20.763 12.244 20.763 2.96 0 12.147-8.197 15.103-8.197 2.957 0 10.594 5.893 13.55 5.893 1.063 0 7.885-3.914 7.885-3.914V49H1Z" clip-rule="evenodd"/><path stroke="#FF4842" stroke-width="2" d="M1 21.788S5.558 33.64 8.145 33.64c2.586 0 11.066-14.16 14.013-14.16 2.947 0 12.472 10.138 16.66 10.138C43.009 29.618 51.016 1 54.219 1 57.42 1 63.5 21.788 66.461 21.788c2.96 0 12.147-8.208 15.103-8.208 2.957 0 10.594 5.9 13.55 5.9 2.958 0 7.885-3.918 7.885-3.918"/><defs><linearGradient id="a" x1="1" x2="1" y1="1.48" y2="49" gradientUnits="userSpaceOnUse"><stop stop-color="#E74040"/><stop offset="1" stop-color="#fff" stop-opacity=".01"/></linearGradient></defs></svg>