<svg xmlns="http://www.w3.org/2000/svg" width="118" height="129" fill="none"><path fill="url(#a)" fill-rule="evenodd" d="M33.864 9.016c-.884.773-1.705 1.506-2.462 2.207 1.936-1.044 4.12-2.167 6.024-2.98.35-.486.67-.972.964-1.474a50.784 50.784 0 0 0-4.526 2.247Zm1.968-1.674c-.43.356-.847.707-1.25 1.052a51.08 51.08 0 0 1 4.11-2.167c.16-.298.303-.595.431-.893a44.408 44.408 0 0 0-3.29 2.008Zm3.291-2.008c-.127.298-.27.595-.43.893.438-.207.868-.415 1.314-.606.107-.303.202-.608.287-.916a51.15 51.15 0 0 0-1.171.63Zm1.171-.63c-.085.309-.18.614-.287.917.383-.167.75-.358 1.132-.518.069-.318.133-.621.191-.908-.345.165-.69.335-1.036.51Zm1.036-.509c-.058.287-.122.59-.191.908.382-.159.701-.438 1.076-.581.183-.423.414-.765.661-1.036-.515.223-1.03.46-1.546.709Zm1.546-.71c-.247.272-.478.614-.661 1.037 2.183-.821 4.318-1.642 6.502-2.128.263-.55.63-.932 1.012-1.219a42.044 42.044 0 0 0-6.853 2.31ZM53.027.506c-1.1.181-2.199.404-3.298.67-.383.287-.75.67-1.012 1.22a46.413 46.413 0 0 1 5.53-.877A3.24 3.24 0 0 1 55.998.13a39.51 39.51 0 0 0-2.972.375ZM56 .132a3.24 3.24 0 0 0-1.753 1.387c2.28-.215 4.678-.28 6.797-.168.51-.565 1.092-.964 1.706-1.187-2.16-.2-4.415-.223-6.75-.032Zm6.75.032c-.614.223-1.196.622-1.706 1.187 2.447.136 4.741.598 6.956 1.044.335-.478.734-.86 1.236-1.115A42.01 42.01 0 0 0 62.748.163Zm6.485 1.116c-.501.255-.9.637-1.234 1.115.844.167 1.537.231 2.342.43-.175-.597-.279-1.051-.303-1.33a35.457 35.457 0 0 0-.805-.215Zm.805.215c.024.279.128.733.303 1.33.35.096.677.311 1.028.407a52.087 52.087 0 0 1-.805-1.586c-.175-.053-.35-.103-.526-.151Zm.526.151c.215.438.478.972.805 1.586.374.103.717.175 1.084.279a34.44 34.44 0 0 0-1.291-1.69 85.054 85.054 0 0 0-.598-.175Zm.598.175a34.44 34.44 0 0 1 1.29 1.69c.574.175 1.108.295 1.698.51-.725-.765-1.41-1.41-2.056-1.913l-.932-.287Zm.932.287c.645.502 1.33 1.148 2.056 1.913.908.326 1.777.613 2.709 1.028-1.155-.98-2.31-1.825-3.33-2.447-.473-.17-.951-.334-1.435-.494Zm1.434.494c1.02.622 2.176 1.466 3.331 2.447 1.904.836 3.65 1.57 5.442 2.669a46.996 46.996 0 0 0-5.888-3.904A31.582 31.582 0 0 0 73.529 2.6Zm2.885 1.212a46.996 46.996 0 0 1 5.888 3.904c2.295 1.33 4.956 3.219 6.837 4.82a41.231 41.231 0 0 0-3.865-3.298c-2.773-2.112-5.904-4.032-8.86-5.427Zm-45.012 7.41c-.845.78-1.61 1.514-2.303 2.215a55.912 55.912 0 0 1 7.108-3.626c.422-.51.836-1.035 1.219-1.57-1.905.814-4.088 1.937-6.024 2.98Zm3.18-2.829a43.2 43.2 0 0 0-.718.622 50.784 50.784 0 0 1 4.526-2.247c.106-.18.207-.362.303-.542a51.08 51.08 0 0 0-4.112 2.167Zm4.11-2.167c-.095.18-.196.361-.302.542.467-.202.935-.396 1.402-.582a17.6 17.6 0 0 0 .215-.566c-.446.191-.876.399-1.314.606Zm1.315-.606a17.6 17.6 0 0 1-.215.566c.404-.165.81-.321 1.22-.47.047-.213.09-.417.127-.614-.383.16-.75.35-1.132.518Zm1.132-.518c-.037.197-.08.401-.128.614.314-.117.627-.231.94-.343.064-.31.16-.597.264-.852-.375.143-.694.422-1.076.581Zm1.076-.581c-.104.255-.2.542-.263.852a50.447 50.447 0 0 1 6.406-1.76c.072-.479.2-.877.359-1.22-2.184.486-4.32 1.307-6.502 2.128Zm6.502-2.128c-.16.343-.287.741-.359 1.22A56.114 56.114 0 0 1 51.92 3c.595-.08 1.184-.149 1.769-.207.135-.463.319-.893.557-1.275a46.413 46.413 0 0 0-5.53.876Zm5.53-.876a5.115 5.115 0 0 0-.558 1.275 47.828 47.828 0 0 1 6.534-.208 6.16 6.16 0 0 1 .82-1.235c-2.12-.111-4.518-.047-6.797.168Zm6.796-.168a6.16 6.16 0 0 0-.82 1.235c2.526.096 4.948.383 7.235.805a5.63 5.63 0 0 1 .541-.996c-2.215-.446-4.51-.908-6.956-1.044ZM68 2.394a5.63 5.63 0 0 0-.541.996c1.115.2 2.207.438 3.259.701-.144-.478-.271-.9-.375-1.267-.805-.199-1.498-.262-2.343-.43Zm2.343.43c.104.367.231.79.375 1.267.44.107.876.218 1.306.335-.239-.422-.454-.82-.653-1.195-.35-.096-.677-.31-1.028-.407Zm1.028.407c.2.374.414.773.653 1.195.457.128.911.258 1.363.39-.319-.462-.637-.9-.932-1.306-.367-.104-.71-.176-1.084-.28Zm1.084.279c.295.406.613.844.932 1.306.693.208 1.41.447 2.135.718a56.74 56.74 0 0 0-1.37-1.514c-.59-.215-1.124-.335-1.697-.51Zm1.697.51c.438.47.9.972 1.37 1.514 1.116.406 2.271.884 3.427 1.418a33.136 33.136 0 0 0-2.088-1.904c-.932-.415-1.8-.702-2.71-1.028Zm2.709 1.028c.71.59 1.41 1.235 2.088 1.904a57.367 57.367 0 0 1 6.916 3.76 53.33 53.33 0 0 0-3.562-2.995c-1.793-1.1-3.538-1.833-5.442-2.67Zm5.442 2.669a53.33 53.33 0 0 1 3.562 2.996c1.984 1.267 3.8 2.613 5.267 3.944-.218-.239-.438-.483-.661-.733a30.58 30.58 0 0 0-1.331-1.386c-1.88-1.602-4.542-3.49-6.837-4.821ZM36.207 9.813c-1.714 2.023-3.642 3.776-4.893 4.876-.78.677-2.446 2.2-4.438 4.542.276-.075.558-.149.845-.223a98.847 98.847 0 0 1 4.43-1.012 38.71 38.71 0 0 1 2.127-3.307c.893-1.227 2.662-3.355 4.104-5.753-.728.276-1.453.568-2.175.877Zm-2.462-.997c-.298.218-.593.441-.885.67a44.39 44.39 0 0 1 1.721-1.092c.404-.345.82-.696 1.251-1.052a45.67 45.67 0 0 0-2.087 1.474ZM38.39 6.77c-.295.502-.614.988-.964 1.474.59-.255 1.171-.51 1.76-.741.224-.439.423-.877.606-1.315-.467.186-.935.38-1.402.582Zm1.402-.582c-.183.438-.382.876-.605 1.315.534-.207 1.044-.478 1.585-.67.085-.387.165-.76.24-1.115-.41.149-.816.305-1.22.47Zm1.22-.47a114.6 114.6 0 0 1-.24 1.115c.375-.12.694-.255 1.06-.366.008-.399.048-.757.12-1.092-.314.112-.627.226-.94.343Zm.94-.343a5.726 5.726 0 0 0-.12 1.092 55.122 55.122 0 0 1 6.478-1.642c-.024-.454 0-.852.048-1.21a50.447 50.447 0 0 0-6.406 1.76ZM51.92 3c-1.185.164-2.372.369-3.562.613a6.487 6.487 0 0 0-.048 1.211 54.577 54.577 0 0 1 5.1-.74c.064-.439.151-.877.279-1.291-.585.058-1.174.127-1.77.207Zm1.769-.207a8.649 8.649 0 0 0-.28 1.29 50.917 50.917 0 0 1 6.343-.302c.133-.436.29-.834.47-1.196a47.828 47.828 0 0 0-6.533.208Zm6.534-.208c-.181.362-.338.76-.47 1.196 2.533.063 4.996.35 7.298.725.12-.399.255-.773.407-1.116a50.353 50.353 0 0 0-7.235-.805Zm7.235.805a9.597 9.597 0 0 0-.407 1.116c1.395.23 2.765.478 4.048.78-.138-.43-.266-.828-.382-1.195a48.913 48.913 0 0 0-3.26-.7Zm3.259.701.382 1.196c.582.135 1.14.326 1.713.478-.287-.462-.542-.909-.789-1.339-.43-.117-.865-.228-1.306-.335Zm1.306.335c.247.43.502.877.79 1.339.501.143 1.027.287 1.537.446a94.296 94.296 0 0 1-.964-1.395c-.452-.132-.906-.262-1.363-.39Zm1.363.39c.303.447.621.909.964 1.395.789.247 1.642.526 2.462.829-.438-.518-.868-1.028-1.29-1.506-.726-.271-1.443-.51-2.136-.718Zm2.135.718c.423.478.853.988 1.291 1.506 1.227.462 2.502.988 3.745 1.561-.566-.581-1.131-1.14-1.61-1.65a44.706 44.706 0 0 0-3.426-1.417Zm3.427 1.418c.478.51 1.044 1.068 1.61 1.65 2.541 1.17 5.09 2.541 7.242 3.975a49.24 49.24 0 0 0-1.936-1.864 57.367 57.367 0 0 0-6.916-3.761Zm3.458 3.625c1.203 1.467 2.398 2.933 3.633 4.367 1.164 1.347 2.311 2.71 3.37 4.135a44.29 44.29 0 0 1 1.945.558c1.116.35 2.136.686 3.084 1.02a61.65 61.65 0 0 0-2.128-2.94 54.11 54.11 0 0 0-2.422-2.924c-2.12-1.482-4.741-2.94-7.482-4.216Zm-53.307 2.861a57.22 57.22 0 0 0-2.582 2.749c-.645.741-1.745 2.136-3.043 4.064a56.329 56.329 0 0 1 3.402-1.02c1.992-2.343 3.657-3.865 4.438-4.542 1.251-1.1 3.18-2.853 4.893-4.877a55.912 55.912 0 0 0-7.108 3.626Zm9.283-4.502c-1.442 2.398-3.211 4.526-4.104 5.753a38.71 38.71 0 0 0-2.127 3.307c2.16-.446 4.319-.821 6.486-1.132.67-3.259 1.315-6.215 1.84-8.661-.695.228-1.394.473-2.095.733Zm-.956-.693c-.383.534-.797 1.06-1.22 1.57.723-.309 1.448-.6 2.176-.877a19.4 19.4 0 0 0 .805-1.434c-.59.23-1.172.486-1.761.74Zm1.76-.741a19.4 19.4 0 0 1-.804 1.434c.701-.26 1.4-.505 2.096-.733.1-.473.199-.93.294-1.37-.541.19-1.051.462-1.585.669Zm1.586-.67c-.095.441-.194.898-.294 1.37.467-.153.934-.3 1.402-.437-.024-.43-.048-.86-.048-1.3-.366.112-.685.248-1.06.367Zm1.06-.366c0 .438.024.868.048 1.299a56.616 56.616 0 0 1 6.51-1.538c-.024-.47-.064-.94-.08-1.403-2.16.407-4.319.957-6.478 1.642Zm6.478-1.642c.016.463.056.933.08 1.403a57.125 57.125 0 0 1 4.884-.67c.032-.494.064-.988.136-1.474a54.577 54.577 0 0 0-5.1.741Zm5.1-.74c-.072.485-.104.98-.136 1.474a55.74 55.74 0 0 1 6.144-.232c.016-.106.029-.204.04-.294.074-.447.172-.864.294-1.251a50.917 50.917 0 0 0-6.342.302Zm6.343-.303c-.123.387-.221.804-.295 1.25-.011.09-.024.19-.04.295 2.534.048 4.964.263 7.275.59.111-.486.223-.964.358-1.41-2.302-.375-4.765-.662-7.299-.725Zm7.298.725c-.135.446-.247.924-.358 1.41 1.713.247 3.354.558 4.916.916l-.51-1.545c-1.283-.303-2.653-.55-4.048-.781Zm4.048.78.51 1.546c.574.133 1.14.269 1.697.407l.526.143a40.462 40.462 0 0 1-1.02-1.617c-.573-.152-1.131-.343-1.713-.478Zm1.713.479c.311.526.654 1.06 1.02 1.617.558.149 1.126.316 1.705.502-.414-.573-.812-1.14-1.187-1.673-.51-.16-1.036-.303-1.538-.446Zm1.538.446c.375.534.773 1.1 1.187 1.673.917.287 1.849.614 2.79.972-.519-.621-1.02-1.227-1.515-1.816a52.693 52.693 0 0 0-2.462-.83Zm2.462.829c.494.59.996 1.195 1.514 1.816a56.25 56.25 0 0 1 4.08 1.721c-.558-.66-1.211-1.33-1.849-1.976a56.704 56.704 0 0 0-3.745-1.561ZM80.557 8.6c.638.646 1.291 1.315 1.849 1.976 2.74 1.275 5.362 2.733 7.482 4.216a51.8 51.8 0 0 0-2.088-2.216c-2.151-1.434-4.7-2.804-7.243-3.976Zm7.243 3.976a51.8 51.8 0 0 1 2.088 2.216c.518.366 1.012.733 1.466 1.1.932.74 1.8 1.457 2.614 2.174a56.56 56.56 0 0 0-1.443-1.784c-1.49-1.339-3.051-2.606-4.725-3.706ZM27.72 14.3c-.18.111-.358.225-.533.342a50.603 50.603 0 0 0-4.67 5.936c.314-.111.633-.22.957-.326 1.298-1.928 2.398-3.323 3.043-4.064a57.22 57.22 0 0 1 2.582-2.749c-.462.276-.922.563-1.378.86Zm2.08-2.247c-.908.82-1.777 1.689-2.613 2.59.175-.118.353-.232.534-.343.456-.298.916-.585 1.378-.861a71.308 71.308 0 0 1 2.303-2.215c-.534.279-1.076.534-1.602.829Zm2.518-2.136a48.777 48.777 0 0 0-2.518 2.136c.526-.295 1.068-.55 1.602-.83.757-.7 1.578-1.433 2.462-2.206-.515.287-1.03.587-1.546.9Zm.542-.43-.542.43c.516-.313 1.03-.613 1.546-.9a43.2 43.2 0 0 1 .717-.622 44.39 44.39 0 0 0-1.721 1.092Zm7.618-1.283c-.526 2.446-1.172 5.402-1.841 8.661a121.29 121.29 0 0 1 3.633-.47c-.167-4.27-.318-7.091-.39-8.63-.468.139-.935.285-1.402.439Zm1.402-.438c.072 1.538.223 4.358.39 8.63a128.9 128.9 0 0 1 6.526-.59c-.151-4.726-.303-7.81-.406-9.578a56.616 56.616 0 0 0-6.51 1.538ZM51.92 5.7c-1.18.138-2.356.313-3.53.526.103 1.769.255 4.852.406 9.578 1.041-.07 2.083-.13 3.124-.184l1.203-.048c0-3.904.024-7.76.151-10.015-.451.042-.903.09-1.354.143Zm1.354-.143c-.127 2.255-.151 6.111-.151 10.015 1.76-.063 3.474-.095 5.155-.103.455-5.442.9-8.646 1.14-10.144a55.74 55.74 0 0 0-6.144.232Zm6.144-.232c-.24 1.498-.685 4.702-1.14 10.144 2.415 0 4.733.064 6.94.167.566-4.932 1.084-7.8 1.3-8.884.058-.287.116-.566.175-.837a60.021 60.021 0 0 0-7.275-.59Zm7.275.59c-.059.271-.117.55-.176.837-.215 1.083-.733 3.952-1.298 8.884 2.892.136 5.593.343 8.087.59.473.048.954.1 1.443.16-1.172-3.698-2.287-6.989-3.14-9.555a60.663 60.663 0 0 0-4.916-.916Zm6.613 1.323c-.557-.138-1.123-.274-1.697-.407.853 2.566 1.968 5.857 3.14 9.554 2.398.28 4.988.67 7.482 1.124-2.263-2.773-4.216-4.717-5.227-5.897a43.969 43.969 0 0 1-3.172-4.23c-.175-.049-.35-.096-.526-.144Zm.526.143a43.969 43.969 0 0 0 3.172 4.231c1.011 1.18 2.964 3.124 5.227 5.897.595.111 1.181.223 1.76.334-1.29-1.601-2.677-3.123-4.08-4.63a53.821 53.821 0 0 1-4.374-5.33 35.475 35.475 0 0 0-1.705-.502Zm1.705.502a53.821 53.821 0 0 0 4.375 5.33c1.402 1.507 2.789 3.029 4.08 4.63.916.184 1.816.375 2.669.566a64.441 64.441 0 0 0-3.578-4.12c-1.665-1.752-3.259-3.649-4.757-5.434a48.588 48.588 0 0 0-2.789-.972Zm2.79.972c1.497 1.785 3.09 3.682 4.756 5.435a64.441 64.441 0 0 1 3.578 4.12 60.99 60.99 0 0 1 2.749.668c-1.06-1.426-2.207-2.788-3.37-4.135-1.236-1.434-2.431-2.9-3.634-4.367a56.25 56.25 0 0 0-4.08-1.72Zm7.537 1.857a49.24 49.24 0 0 1 1.936 1.864c1.674 1.1 3.235 2.367 4.725 3.706a77.242 77.242 0 0 0-1.394-1.626c-1.466-1.33-3.283-2.677-5.267-3.944Zm5.49 5.18a29.243 29.243 0 0 0-1.466-1.1 54.11 54.11 0 0 1 2.422 2.924 61.65 61.65 0 0 1 2.128 2.94c.653.24 1.275.47 1.872.71a49.122 49.122 0 0 0-2.342-3.3 66.334 66.334 0 0 0-2.614-2.175Zm-68.837 4.684a59.269 59.269 0 0 0-5.936 11.212l.75-.048a64.277 64.277 0 0 1 6.143-11.49c-.325.106-.643.215-.957.326Zm.957-.326a64.277 64.277 0 0 0-6.144 11.49c.574-.037 1.164-.075 1.77-.112a51.433 51.433 0 0 1 7.776-12.398 56.329 56.329 0 0 0-3.402 1.02Zm4.247-1.243c-.287.074-.569.149-.845.223a51.433 51.433 0 0 0-7.777 12.398 383.1 383.1 0 0 1 3.713-.199 441.49 441.49 0 0 1 3.809-.175c1.73-5.992 3.896-10.423 5.53-13.26-1.482.304-2.959.64-4.43 1.013Zm4.43-1.012c-1.634 2.836-3.8 7.267-5.53 13.259a614.52 614.52 0 0 1 9.45-.327c.757-4.892 1.681-9.745 2.566-14.064-2.167.311-4.327.686-6.486 1.132Zm6.486-1.132c-.885 4.319-1.809 9.172-2.566 14.064 2.21-.058 4.42-.109 6.63-.151a743.268 743.268 0 0 0-.43-14.383 121.29 121.29 0 0 0-3.634.47Zm3.633-.47c.152 3.682.303 8.438.43 14.383 2.152-.038 4.3-.067 6.447-.088a838.86 838.86 0 0 0-.35-14.884 128.9 128.9 0 0 0-6.527.59Zm9.65-.773c-1.041.053-2.083.114-3.124.184.128 3.824.255 8.725.35 14.884a211.3 211.3 0 0 1 1.834-.024l2.143-.016V15.574l-1.203.047Zm1.203-.048V30.65c1.445-.01 2.863-.016 4.255-.016.255-6.303.574-11.299.9-15.163-1.68.008-3.394.04-5.155.103Zm5.155-.103c-.326 3.864-.645 8.86-.9 15.163 2.27 0 4.478 0 6.605.016.36-6.287.813-11.25 1.236-15.012a147.928 147.928 0 0 0-6.94-.167Zm15.028.757a156.208 156.208 0 0 0-8.087-.59c-.423 3.761-.877 8.725-1.235 15.012 4.302.024 8.286.088 11.888.152.964.024 1.952.04 2.972.071-1.211-5.06-2.693-10.064-4.095-14.486-.49-.058-.97-.111-1.443-.16Zm1.443.16c1.402 4.421 2.884 9.425 4.095 14.485 3.905.096 8.12.231 11.809.383-2.526-5.857-5.705-10.399-8.422-13.745a119.911 119.911 0 0 0-7.482-1.124Zm7.482 1.123c2.717 3.346 5.896 7.888 8.422 13.745.531.026 1.052.05 1.562.071-2.455-5.689-5.53-10.15-8.224-13.482-.579-.111-1.165-.223-1.76-.334Zm1.76.334c2.694 3.331 5.77 7.793 8.224 13.482.796.032 1.57.072 2.294.112-2.302-5.362-5.219-9.721-7.848-13.028-.853-.191-1.753-.382-2.67-.566Zm2.67.566c2.63 3.307 5.546 7.666 7.848 13.028.67.032 1.3.064 1.889.104-2.016-5.044-4.63-9.243-6.988-12.463a60.99 60.99 0 0 0-2.75-.669Zm4.693 1.227a44.29 44.29 0 0 0-1.944-.558c2.358 3.22 4.972 7.419 6.988 12.463 1.248.069 2.497.146 3.745.23a53.016 53.016 0 0 0-5.705-11.115 94.029 94.029 0 0 0-3.084-1.02Zm3.084 1.02a53.016 53.016 0 0 1 5.705 11.116c.526.037 1.036.074 1.53.111a48.556 48.556 0 0 0-1.307-3.083c-1.37-2.933-2.67-5.3-4.056-7.435-.597-.239-1.219-.47-1.872-.709ZM16.58 31.79a44.54 44.54 0 0 0-1.107 3.131c-1.626 5.22-3.148 11.18-3.1 19.283h.749a59.847 59.847 0 0 1 1.1-12.2c.725-3.697 1.832-7.147 3.107-10.262l-.749.048Zm.75-.048c-1.276 3.115-2.383 6.566-3.108 10.263a59.847 59.847 0 0 0-1.1 12.199c.42-.005.84-.008 1.259-.008.064-3.992.55-8.08 1.41-12.263A50.274 50.274 0 0 1 19.1 31.629c-.605.037-1.195.075-1.769.112Zm5.481-.311a383.1 383.1 0 0 0-3.713.2 50.274 50.274 0 0 0-3.307 10.302c-.86 4.183-1.346 8.27-1.41 12.263l9.14-.032c.047-3.984.35-8.056.9-12.231a72.377 72.377 0 0 1 2.199-10.677 441.49 441.49 0 0 0-3.809.175Zm3.809-.175a72.377 72.377 0 0 0-2.2 10.677c-.549 4.175-.852 8.247-.9 12.231 3.65-.016 7.3-.03 10.949-.04a179.749 179.749 0 0 1-.072-5.187c0-5.41.701-11.745 1.673-18.008-3.163.088-6.31.191-9.45.327Zm9.45-.327c-.972 6.263-1.673 12.598-1.673 18.008 0 1.809.024 3.53.072 5.187l8.494-.032c-.024-9.219-.128-16.94-.263-23.314-2.21.042-4.42.093-6.63.151Zm6.63-.151c.135 6.374.239 14.095.263 23.314 2.12-.01 4.241-.018 6.366-.023-.008-9.267-.08-16.996-.183-23.379-2.146.021-4.295.05-6.446.088Zm8.279-.112a211.3 211.3 0 0 0-1.833.024c.104 6.383.175 14.112.183 23.379l3.793-.016V30.649l-2.143.016Zm2.143-.016v23.403l3.793-.016c.032-9.275.207-17.012.462-23.403-1.392 0-2.81.006-4.255.016Zm4.255-.016c-.255 6.39-.43 14.128-.462 23.403l6.374-.016c.056-9.235.327-16.988.694-23.37-2.128-.017-4.335-.017-6.606-.017Zm18.494.168a963.183 963.183 0 0 0-11.889-.152c-.366 6.383-.637 14.136-.693 23.37 6.014-.026 12.027-.05 18.04-.071.072-1.602.112-3.267.112-5.012-.008-5.426-1.092-11.785-2.598-18.064-1.02-.032-2.008-.047-2.972-.071Zm2.972.071c1.506 6.28 2.59 12.638 2.598 18.064 0 1.745-.04 3.41-.112 5.012L95.18 53.9c0-.414-.003-.828-.008-1.243-.152-8.494-2.016-15.593-4.518-21.402-3.69-.152-7.904-.287-11.809-.383Zm11.809.383c2.502 5.808 4.366 12.908 4.518 21.402.005.415.008.829.008 1.243.457-.005.913-.008 1.37-.008a63.54 63.54 0 0 0-.183-5.641c-.478-5.817-1.84-11.562-4.151-16.925-.51-.02-1.03-.045-1.562-.071Zm1.562.071c2.31 5.363 3.673 11.108 4.151 16.925.151 1.88.2 3.76.183 5.641.723 0 1.445-.003 2.168-.008.016-.637.023-1.285.023-1.944 0-7.928-1.768-14.78-4.23-20.502-.726-.04-1.499-.08-2.295-.112Zm2.294.112A51.479 51.479 0 0 1 98.74 51.94c0 .659-.007 1.307-.023 1.944.579 0 1.158-.002 1.737-.008.008-.677.016-1.346.008-2.032-.12-7.936-1.77-14.709-4.064-20.302-.59-.04-1.22-.072-1.889-.104Zm1.889.104c2.295 5.593 3.944 12.366 4.064 20.302.008.686 0 1.355-.008 2.032 1.184 0 2.369-.002 3.553-.008-.111-8.964-1.665-16.215-3.864-22.095a293.99 293.99 0 0 0-3.745-.231Zm3.745.23c2.199 5.881 3.753 13.132 3.864 22.096.537-.005 1.073-.008 1.61-.008-.024-4.255-.454-8.334-.725-9.88-.319-1.825-1.147-6.71-3.219-12.096a337.19 337.19 0 0 0-1.53-.111Zm-87.769 22.43c.008 1.89.111 3.897.31 6.033.351 3.729 1.02 7.091 1.873 10.143.287.022.577.04.869.056-1.379-5.06-2.231-10.542-2.303-16.231h-.749Zm.749 0c.072 5.69.924 11.172 2.303 16.232l1.243.08c-1.65-5.307-2.375-10.733-2.287-16.319-.42 0-.84.003-1.259.008Zm1.259-.007c-.088 5.586.637 11.012 2.287 16.319 1.477.095 3.057.183 4.74.263 1.212.058 2.428.114 3.65.167-1.115-5.458-1.601-11.036-1.538-16.78l-9.14.031Zm9.14-.032c-.064 5.745.422 11.323 1.537 16.781 3.586.151 7.195.279 10.813.367-.645-4.861-1.211-10.439-1.402-17.188-3.65.01-7.3.024-10.949.04Zm10.948-.04c.19 6.75.757 12.327 1.402 17.188 2.337.063 4.675.116 7.012.159.056-4.032.08-8.63.08-13.889v-3.49l-8.494.032Zm8.494-.032v3.49c0 5.26-.024 9.857-.08 13.889 2.114.032 4.226.061 6.335.088.071-4.582.111-9.546.111-14.893v-2.597c-2.125.005-4.247.013-6.366.023Zm6.366-.023v2.597c0 5.347-.04 10.31-.111 14.893.499.005.996.007 1.49.007.812.011 1.617.02 2.414.024V54.052l-3.793.016Zm3.793-.016v17.537l4.032.016a453.09 453.09 0 0 1-.24-17.57l-3.792.017Zm3.793-.016a453.09 453.09 0 0 0 .24 17.57c2.182 0 4.302 0 6.357-.017a376.194 376.194 0 0 1-.239-14.008c0-1.21.006-2.398.016-3.561l-6.374.016Zm6.374-.016c-.01 1.163-.016 2.35-.016 3.561 0 5.323.088 9.96.24 14.008 4.748-.023 9.147-.087 13.099-.159.82-.016 1.673-.04 2.542-.056 1.004-4.916 1.88-10.565 2.175-17.426-6.013.021-12.026.045-18.04.072Zm18.04-.072c-.295 6.86-1.171 12.51-2.175 17.426a765.22 765.22 0 0 0 13.745-.462c1.458-5.004 2.287-10.67 2.279-17.012l-13.849.048ZM95.18 53.9c.008 6.343-.82 12.008-2.28 17.012.463-.016.917-.034 1.363-.056 1.41-4.908 2.24-10.55 2.287-16.964-.457 0-.913.003-1.37.008Zm1.37-.008c-.048 6.414-.876 12.056-2.287 16.964.694-.031 1.371-.071 2.008-.103 1.323-4.701 2.287-10.327 2.447-16.869-.723.005-1.445.008-2.168.008Zm2.168-.008c-.16 6.542-1.124 12.168-2.447 16.869a97.41 97.41 0 0 0 1.897-.104c1.538-5.458 2.215-11.107 2.287-16.773-.58.006-1.158.008-1.737.008Zm1.737-.008c-.072 5.666-.75 11.315-2.287 16.773a444.93 444.93 0 0 0 3.801-.239c1.139-4.016 1.896-8.518 2.016-13.506a83.85 83.85 0 0 0 .023-3.036c-1.184.006-2.369.008-3.553.008Zm3.553-.008c.011.988.003 2-.023 3.036-.12 4.988-.877 9.49-2.016 13.506l1.354-.096c.701-2.478 1.626-6.501 2.096-11.362.159-1.625.215-3.37.199-5.092-.537 0-1.073.003-1.61.008Zm-89.45 16.51a60.423 60.423 0 0 0 3.61 9.57c.276.106.558.21.844.31-.329-.68-.64-1.37-.932-2.071a66.04 66.04 0 0 1-2.653-7.753 44.867 44.867 0 0 1-.869-.056Zm.869.056a66.04 66.04 0 0 0 2.653 7.753c.292.701.603 1.392.932 2.072.712.255 1.456.504 2.232.749-1.96-3.458-3.475-6.948-4.574-10.494l-1.243-.08Zm5.984.343c-1.684-.08-3.264-.168-4.741-.263 1.1 3.546 2.613 7.036 4.573 10.494 1.164.366 2.39.717 3.69 1.044 1.216.308 2.438.594 3.665.86a72.764 72.764 0 0 1-3.538-11.968 770.298 770.298 0 0 1-3.65-.167Zm3.65.167a72.764 72.764 0 0 0 3.537 11.968c3.044.661 6.112 1.195 9.18 1.618-.51-3.984-1.252-8.224-1.905-13.22a601.746 601.746 0 0 1-10.813-.366Zm10.812.367c.653 4.995 1.394 9.235 1.904 13.219 1.6.217 3.2.409 4.805.573.128-3.641.231-8.103.303-13.633a770.033 770.033 0 0 1-7.012-.16Zm7.012.159a628.28 628.28 0 0 1-.303 13.633c2.096.216 4.2.383 6.295.518.135-4.199.263-8.884.343-14.063-2.11-.027-4.22-.056-6.335-.088Zm7.825.096c-.494 0-.991-.003-1.49-.008-.08 5.179-.208 9.864-.343 14.063.834.048 1.67.093 2.51.136.584.026 1.163.048 1.737.063V71.59c-.797-.006-1.602-.014-2.414-.025Zm2.414.023V85.82c1.63.059 3.227.09 4.789.096-.31-4.255-.582-9.028-.757-14.31l-4.032-.017Zm4.032.016c.175 5.283.446 10.056.757 14.311 2.287.008 4.494-.032 6.621-.111-.438-3.722-.797-8.359-1.02-14.216-2.055.016-4.175.016-6.358.016Zm19.458-.175c-3.952.072-8.35.135-13.1.16.224 5.856.582 10.493 1.02 14.215 3.682-.144 7.116-.399 10.231-.718.457-.042.92-.09 1.387-.143.773-4.088 1.952-8.43 3.004-13.57-.869.016-1.721.04-2.542.056Zm2.542-.056c-1.052 5.14-2.231 9.482-3.004 13.57 3.61-.414 7.61-1.068 11.211-1.8 2.287-3.523 4.183-7.594 5.538-12.232-4.215.183-9.211.35-13.745.462Zm13.745-.462c-1.355 4.638-3.251 8.71-5.538 12.231.59-.122 1.166-.247 1.73-.374 2.055-3.291 3.816-7.243 5.17-11.913-.446.022-.9.04-1.362.056Zm1.362-.056c-1.354 4.67-3.115 8.622-5.17 11.913a88.12 88.12 0 0 0 2.557-.606c1.585-2.852 3.283-6.661 4.621-11.41-.637.032-1.314.072-2.008.103Zm2.008-.103c-1.338 4.749-3.035 8.558-4.621 11.41.789-.2 1.53-.398 2.215-.605 1.522-2.869 3.092-6.542 4.303-10.909-.59.04-1.227.072-1.897.104Zm1.897-.104c-1.211 4.367-2.781 8.04-4.303 10.909a84.694 84.694 0 0 0 4.303-1.419 53.964 53.964 0 0 0 3.801-9.729 444.93 444.93 0 0 1-3.801.24Zm3.801-.239a53.964 53.964 0 0 1-3.801 9.73 51.28 51.28 0 0 0 1.705-.646 65.576 65.576 0 0 0 3.139-8.128c.096-.308.2-.658.311-1.052l-1.354.096Zm-83.801 9.538c.844 1.793 1.713 3.41 2.526 4.884.037.07.074.136.111.2.377.143.752.29 1.124.438a48.791 48.791 0 0 1-2.917-5.211c-.286-.101-.568-.205-.844-.311Zm.844.31a48.791 48.791 0 0 0 2.917 5.212c1.02.406 2.032.853 3.036 1.33a62.877 62.877 0 0 1-3.721-5.793 60.622 60.622 0 0 1-2.232-.748Zm5.92 1.794a65.064 65.064 0 0 1-3.689-1.044 62.877 62.877 0 0 0 3.722 5.793c2.645 1.258 5.227 2.725 7.617 4.239-.829-1.323-1.705-2.845-2.478-4.558a78.601 78.601 0 0 1-1.506-3.57 107.895 107.895 0 0 1-3.665-.86Zm3.666.86c.468 1.19.97 2.38 1.506 3.57.773 1.713 1.65 3.235 2.478 4.558a77.83 77.83 0 0 1 5.761 4.04c.16-3.554-.103-6.949-.566-10.55a120.888 120.888 0 0 1-9.179-1.618Zm9.18 1.618c.462 3.601.724 6.996.565 10.55.773.59 1.482 1.163 2.136 1.72.478.394.95.763 1.418 1.108.191-2.693.462-6.534.685-12.805a146.267 146.267 0 0 1-4.805-.573Zm4.804.573a329.17 329.17 0 0 1-.685 12.805c2.167 1.61 4.247 2.709 6.27 3.387.24-4.096.495-9.315.71-15.674-2.096-.135-4.2-.302-6.295-.518Zm8.805.654c-.84-.043-1.676-.088-2.51-.136a642.909 642.909 0 0 1-.71 15.674c1.682.557 3.324.82 4.957.844V85.82a97.785 97.785 0 0 1-1.737-.063Zm1.737.063v16.319c2.12.024 4.223-.358 6.359-1.06-.558-4-1.116-9.051-1.57-15.163a147.878 147.878 0 0 1-4.789-.096Zm4.789.096c.454 6.112 1.012 11.163 1.57 15.163 2.43-.804 4.908-2.007 7.49-3.458-.869-2.502-1.753-6.063-2.439-11.816-2.127.08-4.334.12-6.621.111Zm16.852-.829c-3.115.32-6.55.574-10.23.718.685 5.752 1.57 9.314 2.438 11.816 1.705-.956 3.45-2.016 5.267-3.147.932-.59 1.96-1.195 3.043-1.785.032-2.574.367-5.108.869-7.745-.468.053-.93.1-1.387.143Zm1.387-.143c-.502 2.637-.837 5.171-.869 7.745 2.343-1.283 5.004-2.558 7.81-3.753a41.616 41.616 0 0 1 1.8-2.382 41.907 41.907 0 0 0 2.47-3.41c-3.602.732-7.602 1.386-11.211 1.8Zm11.211-1.8a41.907 41.907 0 0 1-2.47 3.41 41.616 41.616 0 0 0-1.8 2.382c.695-.298 1.401-.592 2.119-.884 1.282-1.77 2.725-3.41 3.88-5.283-.563.127-1.14.252-1.729.374Zm1.73-.375c-1.156 1.872-2.599 3.514-3.881 5.283 1.131-.455 2.27-.9 3.418-1.323.853-1.06 1.912-2.582 3.02-4.566a88.12 88.12 0 0 1-2.558.606Zm2.557-.606c-1.108 1.984-2.167 3.506-3.02 4.566.797-.292 1.594-.58 2.39-.86.83-1.092 1.865-2.543 2.845-4.311-.685.207-1.426.406-2.215.605Zm2.215-.605c-.98 1.768-2.016 3.219-2.845 4.31a128.248 128.248 0 0 1 4.805-1.553 57.025 57.025 0 0 0 2.343-4.176c-1.427.51-2.86.988-4.303 1.419Zm4.303-1.419a57.025 57.025 0 0 1-2.343 4.175c.6-.175 1.193-.345 1.777-.51.853-1.434 1.61-2.9 2.271-4.31-.55.223-1.115.43-1.705.645Zm-77.363 4.893a32.26 32.26 0 0 0 2.088 3.227c.382.127.82.207 1.211.35a54.789 54.789 0 0 1-2.175-3.14 71.006 71.006 0 0 0-1.124-.437Zm1.124.438a54.789 54.789 0 0 0 2.175 3.14c1.315.485 3.14 1.736 4.486 2.39-1.203-1.235-2.478-2.63-3.625-4.2a50.842 50.842 0 0 0-3.036-1.33Zm3.036 1.33c1.147 1.57 2.422 2.965 3.625 4.2 1.865.908 4.128 1.825 5.825 2.916-.51-.829-1.156-1.785-1.833-2.876-2.39-1.514-4.972-2.98-7.617-4.24Zm7.617 4.24c.677 1.091 1.323 2.047 1.833 2.876a38.555 38.555 0 0 1 3.825 2.781c.047-.547.082-1.086.103-1.618a77.83 77.83 0 0 0-5.76-4.04Zm7.897 5.76a49.884 49.884 0 0 0-2.136-1.72c-.021.53-.056 1.07-.103 1.617 1.25.972 2.286 2.2 3.506 3.195.047-.59.095-1.243.15-1.984-.467-.345-.94-.714-1.417-1.107Zm1.418 1.108c-.056.741-.104 1.395-.151 1.984 1.219 1.012 2.382 2.024 3.45 2.813.94.709 1.864 1.394 2.773 1.864.063-.998.13-2.09.199-3.274-2.024-.678-4.104-1.777-6.271-3.387Zm6.27 3.387a586.319 586.319 0 0 1-.198 3.274c1.768.941 3.49 1.522 5.187 1.65a572.323 572.323 0 0 1-.032-4.08 16.374 16.374 0 0 1-4.956-.844Zm4.957.844c.008 1.466.016 2.829.032 4.08 2.295.183 4.63-.183 6.94-1.155-.2-1.188-.406-2.518-.613-3.985-2.136.702-4.24 1.084-6.359 1.06Zm6.359-1.06c.207 1.467.414 2.797.613 3.985 2.813-1.315 5.379-3.116 7.88-4.941a30.03 30.03 0 0 1-1.003-2.502c-2.582 1.45-5.06 2.654-7.49 3.458Zm12.757-6.605c-1.817 1.131-3.562 2.191-5.267 3.147a30.03 30.03 0 0 0 1.004 2.502c2.462-1.65 4.812-3.498 7.386-4.98a28.301 28.301 0 0 1-.08-2.454 54.199 54.199 0 0 0-3.043 1.785Zm3.043-1.785c-.008.813.016 1.626.08 2.454 1.896-1.06 3.618-2.095 5.825-3.091a25.546 25.546 0 0 1 1.904-3.116c-2.805 1.195-5.466 2.47-7.809 3.753Zm7.81-3.753a25.546 25.546 0 0 0-1.905 3.116c.63-.287 1.362-.662 2.008-.94a32.702 32.702 0 0 1 2.016-3.06c-.718.292-1.424.586-2.12.884Zm2.119-.884c-.718.98-1.41 2-2.016 3.06a113.45 113.45 0 0 1 3.203-1.347 39.592 39.592 0 0 1 2.231-3.036c-1.147.422-2.287.868-3.418 1.323Zm3.418-1.323a39.592 39.592 0 0 0-2.231 3.036c.789-.319 1.578-.462 2.359-.757.733-1.06 1.49-2.104 2.262-3.14-.796.282-1.593.569-2.39.86Zm2.39-.86c-.773 1.035-1.53 2.079-2.263 3.139 1.594-.59 3.1-.55 4.606-1.012a60.129 60.129 0 0 0 2.462-3.681c-1.57.47-3.18.996-4.805 1.553Zm4.805-1.555a60.129 60.129 0 0 1-2.462 3.682c.638-.215 1.379-.55 1.984-.741a65.8 65.8 0 0 0 1.825-2.75l.43-.7c-.584.164-1.177.334-1.777.51ZM22.892 88.26c.964 1.338 2 2.605 3.02 3.753.398.106.802.228 1.211.366a61.222 61.222 0 0 1-3.02-3.769c-.39-.143-.829-.223-1.211-.35Zm1.211.35a61.222 61.222 0 0 0 3.02 3.77c1.753.589 3.554 1.473 5.339 2.533-.885-1.02-2.32-2.327-3.873-3.912-1.346-.654-3.171-1.905-4.486-2.39ZM28.59 91c1.554 1.586 2.988 2.893 3.873 3.913a48.21 48.21 0 0 1 3.641 2.43c-.422-1.203-1.004-2.342-1.69-3.426-1.696-1.091-3.96-2.008-5.824-2.916Zm5.825 2.917c.685 1.084 1.267 2.223 1.69 3.426.652.478 1.29.972 1.911 1.475.096-.718.17-1.424.224-2.12a38.555 38.555 0 0 0-3.825-2.78Zm3.825 2.781a37.81 37.81 0 0 1-.224 2.12 65.57 65.57 0 0 1 3.618 3.139 60.74 60.74 0 0 1 .111-2.064c-1.219-.996-2.255-2.223-3.505-3.195Zm6.956 6.008c-1.068-.789-2.231-1.801-3.45-2.813a60.74 60.74 0 0 0-.112 2.064 59.306 59.306 0 0 1 3.323 3.378 23.655 23.655 0 0 0 2.78 2.614c.07-.967.147-2.093.232-3.379-.909-.47-1.833-1.155-2.773-1.864Zm2.773 1.864a644.451 644.451 0 0 1-.232 3.379c1.905 1.498 3.722 2.319 5.515 2.606-.04-1.283-.072-2.726-.096-4.335-1.697-.128-3.419-.709-5.187-1.65Zm5.187 1.65c.024 1.609.056 3.052.096 4.335 2.533.406 5.011-.263 7.577-1.626a80.014 80.014 0 0 1-.733-3.864c-2.31.972-4.645 1.338-6.94 1.155Zm6.94-1.155c.255 1.521.502 2.812.733 3.864 2.614-1.394 5.323-3.506 8.287-5.92.08-.064.16-.13.24-.199-.55-.845-.965-1.769-1.38-2.686-2.501 1.825-5.067 3.626-7.88 4.941Zm7.88-4.941c.415.917.83 1.841 1.38 2.686 1.808-1.483 4.015-2.989 6.421-4.423a27.352 27.352 0 0 1-.414-3.243c-2.574 1.482-4.924 3.33-7.386 4.98Zm7.387-4.98c.072 1.068.207 2.144.414 3.243a79.214 79.214 0 0 1 3.897-2.167c.303-1.434.82-2.813 1.514-4.167-2.207.996-3.929 2.031-5.825 3.091Zm5.825-3.091c-.694 1.354-1.211 2.733-1.514 4.167.531-.271 1.065-.54 1.601-.805.463-1.506 1.132-2.94 1.92-4.303-.645.28-1.378.654-2.007.94Zm2.008-.94c-.79 1.362-1.458 2.796-1.92 4.302.844-.414 1.697-.813 2.533-1.195a41.181 41.181 0 0 1 2.59-4.454 113.45 113.45 0 0 0-3.203 1.346Zm3.203-1.347a41.181 41.181 0 0 0-2.59 4.454c.781-.35 1.546-.677 2.311-.996.797-1.45 1.697-2.845 2.638-4.215-.781.295-1.57.438-2.36.757Zm2.359-.757c-.94 1.37-1.841 2.765-2.638 4.215a60.054 60.054 0 0 1 4.47-1.634 77.873 77.873 0 0 0 2.773-3.593c-1.506.462-3.012.422-4.605 1.012Zm4.605-1.012a77.873 77.873 0 0 1-2.773 3.593 42.79 42.79 0 0 1 1.849-.541 53.984 53.984 0 0 0 2.908-3.793c-.606.191-1.347.526-1.984.74Zm-67.45 4.016a59.681 59.681 0 0 0 3.06 3.21c.403.128.81.277 1.219.447a52.646 52.646 0 0 1-2.064-2.143c-.34-.377-.675-.76-1.004-1.148-.409-.138-.813-.26-1.211-.366Zm1.211.366c.33.388.664.77 1.004 1.148.661.733 1.37 1.458 2.064 2.143 1.697.717 3.442 1.769 5.155 3.012-.733-1.29-1.793-2.486-2.82-3.69l-.064-.079c-1.785-1.06-3.586-1.944-5.339-2.534Zm5.339 2.534.063.08c1.028 1.203 2.088 2.398 2.821 3.689.462.34.924.693 1.387 1.06a15.807 15.807 0 0 0-.63-2.399 48.21 48.21 0 0 0-3.641-2.43Zm3.641 2.43c.271.773.478 1.57.63 2.399.34.276.68.558 1.02.844.1-.6.188-1.19.262-1.768a50.688 50.688 0 0 0-1.912-1.475Zm1.912 1.475a46.05 46.05 0 0 1-.263 1.768 57.033 57.033 0 0 1 3.85 3.586c-.009-.637 0-1.378.03-2.215a65.57 65.57 0 0 0-3.617-3.14Zm6.94 6.517a59.306 59.306 0 0 0-3.322-3.378c-.032.837-.04 1.578-.032 2.215a62.162 62.162 0 0 1 4.566 5.227c.451.585.9 1.118 1.346 1.602.056-.741.136-1.753.224-3.052a23.655 23.655 0 0 1-2.781-2.614Zm2.782 2.614c-.088 1.299-.168 2.311-.224 3.052 2.072 2.255 4.024 3.482 5.929 3.928a134.26 134.26 0 0 1-.191-4.374c-1.793-.287-3.61-1.108-5.514-2.606Zm5.514 2.606c.047 1.729.119 3.179.19 4.374 2.813.653 5.539-.414 8.407-2.454l-.183-.43c-.207-.51-.502-1.554-.837-3.116-2.566 1.363-5.044 2.032-7.578 1.626Zm15.864-7.546c-2.964 2.414-5.673 4.526-8.287 5.92.335 1.562.63 2.606.837 3.116l.183.43c2.04-1.45 4.151-3.395 6.422-5.554a38.787 38.787 0 0 1 2.622-2.343c-.526-.438-1.044-1.019-1.538-1.768-.08.069-.16.135-.239.199Zm.24-.199c.493.749 1.011 1.33 1.537 1.768a57.796 57.796 0 0 1 5.402-3.896c-.207-.775-.38-1.54-.518-2.295-2.406 1.434-4.613 2.94-6.422 4.423Zm6.421-4.423c.139.755.311 1.52.518 2.295a72.984 72.984 0 0 1 3.084-1.888 15.15 15.15 0 0 1 .295-2.574 79.214 79.214 0 0 0-3.897 2.167Zm3.897-2.167a15.15 15.15 0 0 0-.295 2.574c.42-.24.84-.476 1.259-.71.112-.884.359-1.784.637-2.669-.536.266-1.07.534-1.601.805Zm1.601-.805c-.278.885-.525 1.785-.637 2.67.664-.362 1.325-.71 1.984-1.044.295-.885.71-1.841 1.187-2.821-.836.382-1.689.78-2.534 1.195Zm2.534-1.195c-.478.98-.892 1.936-1.187 2.82a73.47 73.47 0 0 1 1.849-.9c.47-1.012 1.083-1.952 1.649-2.916-.765.319-1.53.645-2.31.996Zm2.311-.996c-.566.964-1.18 1.904-1.65 2.916a46.941 46.941 0 0 1 3.586-1.498c.343-.422.733-.884 1.164-1.402.374-.462.844-1.012 1.37-1.65a60.054 60.054 0 0 0-4.47 1.634Zm4.47-1.634c-.526.638-.996 1.188-1.37 1.65-.43.518-.821.98-1.164 1.402a33.466 33.466 0 0 1 1.602-.542 54.25 54.25 0 0 0 2.78-3.051c-.594.159-1.21.34-1.848.541Zm-61.617 3.634a44.386 44.386 0 0 0 2.12 1.928 232.59 232.59 0 0 1 2.653 2c-.869-.9-2.192-2.12-3.554-3.482-.41-.17-.816-.319-1.22-.446Zm1.219.446c1.362 1.363 2.685 2.582 3.554 3.482a68.833 68.833 0 0 1 2.462 1.944c-.128-.852-.439-1.649-.86-2.414-1.714-1.243-3.46-2.295-5.156-3.012Zm5.155 3.012c.422.765.733 1.562.86 2.414.048.043.096.083.144.12.167.143.367.319.582.518a14.792 14.792 0 0 0-.2-1.992c-.462-.367-.924-.72-1.386-1.06Zm1.387 1.06c.111.645.175 1.315.199 1.992.16.149.33.311.51.486.117-.553.22-1.097.31-1.634-.34-.286-.68-.568-1.02-.844Zm1.02.844a39.85 39.85 0 0 1-.311 1.634c1.346 1.291 3.147 3.163 4.255 4.47.053.058.103.117.151.175-.143-.677-.231-1.538-.247-2.693a57.033 57.033 0 0 0-3.849-3.586Zm8.414 8.813a62.162 62.162 0 0 0-4.566-5.227c.016 1.155.104 2.016.247 2.693 1.45 1.745 3.434 4.534 4.319 5.57.342.406.805.948 1.299 1.498-.056-.502-.064-1.116-.024-1.888l.071-1.044a23.951 23.951 0 0 1-1.346-1.602ZM47.513 111l-.071 1.044c-.04.772-.032 1.386.024 1.888.82.916 1.737 1.888 2.358 2.422.797.678 2.231 1.865 3.976 2.327-.127-.805-.255-2.024-.358-3.753-1.905-.446-3.857-1.673-5.929-3.928Zm5.929 3.928c.103 1.729.23 2.948.358 3.753.455.12.925.191 1.419.191 1.633 0 3.203-.518 5.21-1.984.798-.581 1.77-1.426 2.83-2.398-.519-.423-.973-1.068-1.41-2.016-2.87 2.04-5.594 3.107-8.407 2.454Zm14.828-8.008c-2.27 2.159-4.382 4.104-6.422 5.554.438.948.892 1.593 1.41 2.016 1.626-1.49 3.435-3.275 5.012-4.765 1.363-1.283 2.94-2.717 4.582-4.048a5.692 5.692 0 0 1-1.96-1.1 38.787 38.787 0 0 0-2.622 2.343Zm2.622-2.343c.661.558 1.33.901 1.96 1.1 1.339-1.084 2.725-2.104 4.064-2.916-.234-.707-.441-1.4-.622-2.08a57.796 57.796 0 0 0-5.402 3.896Zm5.402-3.896c.18.68.388 1.373.622 2.08.143-.091.29-.176.438-.255.67-.391 1.403-.805 2.175-1.251a15.345 15.345 0 0 1-.151-2.462 72.984 72.984 0 0 0-3.084 1.888Zm3.084-1.888c-.016.796.032 1.617.151 2.462.32-.181.64-.367.965-.558-.08-.82.015-1.737.143-2.614-.42.234-.84.47-1.259.71Zm1.259-.71c-.128.877-.223 1.793-.144 2.614a69.394 69.394 0 0 0 1.578-.924c-.008-.757.2-1.697.55-2.733-.659.334-1.32.682-1.984 1.043Zm1.984-1.043c-.35 1.035-.558 1.976-.55 2.733.415-.245.826-.492 1.235-.741.112-.718.614-1.77 1.164-2.893a73.47 73.47 0 0 0-1.849.9Zm1.849-.9c-.55 1.123-1.052 2.174-1.164 2.892a72.418 72.418 0 0 0 2.454-1.586c.447-.582 1.156-1.434 2.295-2.805-1.14.414-2.342.924-3.585 1.498Zm3.585-1.499c-1.14 1.37-1.848 2.223-2.295 2.805.55-.374 1.084-.757 1.586-1.14.191-.17.377-.337.558-.501a69.102 69.102 0 0 0 1.753-1.706c-.515.16-1.05.34-1.602.542Zm-56.964 2.51c.037.032.075.061.112.088.621.51 1.354 1.115 2.103 1.745.375.31.75.63 1.124.94a9.84 9.84 0 0 0-.685-.773 232.59 232.59 0 0 0-2.654-2Zm2.654 2c.278.295.517.55.685.773.661.558 1.29 1.1 1.825 1.57a5.117 5.117 0 0 0-.048-.399 68.833 68.833 0 0 0-2.462-1.944Zm2.605 2.064a2.57 2.57 0 0 1-.143-.12c.02.133.037.266.047.399.255.223.486.43.686.613 0-.122-.003-.247-.008-.374a20.068 20.068 0 0 0-.582-.518Zm.582.518c.005.127.008.252.008.374.064.064.127.123.191.176l.247.247c.021-.107.042-.21.064-.311-.18-.175-.35-.337-.51-.486Zm4.765 4.956c-1.108-1.307-2.909-3.179-4.255-4.47-.022.101-.043.204-.064.311 1.22 1.195 3.378 3.617 4.82 5.426a5.17 5.17 0 0 1-.35-1.092 4.453 4.453 0 0 0-.151-.175Zm4.47 5.745c-.885-1.036-2.869-3.825-4.319-5.57.096.431.207.789.35 1.092.155.191.3.374.439.55 1.498 1.952 3.65 4.82 4.59 6.048.159.207.342.446.55.709-.136-.335-.248-.757-.311-1.331a64.921 64.921 0 0 1-1.3-1.498Zm3.657 3.92c-.621-.534-1.538-1.506-2.358-2.422.063.574.175.996.31 1.331.98 1.251 2.359 2.932 3.22 3.737.932.876 2.733 2.518 4.868 2.813-.972-.319-1.514-1.132-1.84-2.064-.072-.215-.152-.566-.224-1.068-1.745-.462-3.179-1.649-3.976-2.327Zm10.606.534c-2.008 1.466-3.578 1.984-5.211 1.984-.494 0-.965-.071-1.419-.191.072.502.152.853.223 1.068.327.932.869 1.745 1.841 2.064.223.031.449.047.677.047 1.57 0 3.076-.589 5.02-2.255 1.116-.956 2.614-2.581 4.16-4.318-.996-.04-1.785-.231-2.463-.797-1.06.972-2.031 1.817-2.828 2.398Zm7.84-7.163c-1.577 1.49-3.386 3.275-5.012 4.765.678.566 1.467.757 2.463.797 1.147-1.283 2.318-2.63 3.386-3.817 1.586-1.769 3.482-3.785 5.418-5.53-.486 0-1.06-.064-1.673-.263-1.641 1.331-3.22 2.765-4.582 4.048Zm4.582-4.048a5.417 5.417 0 0 0 1.673.263 33.02 33.02 0 0 1 2.718-2.247c-.112-.313-.22-.624-.327-.932-1.339.812-2.725 1.832-4.064 2.916Zm4.502-3.171a6.551 6.551 0 0 0-.438.255c.106.308.215.619.327.932.201-.149.403-.29.605-.422.566-.383 1.171-.797 1.809-1.227-.048-.266-.09-.529-.128-.789-.772.446-1.506.86-2.175 1.251Zm2.175-1.251c.038.26.08.523.128.789.308-.208.621-.42.94-.638-.048-.231-.072-.462-.103-.709-.325.191-.646.377-.965.558Zm.965-.558c.031.247.055.478.103.709a71.92 71.92 0 0 0 1.522-1.06 3.203 3.203 0 0 1-.048-.573c-.526.318-1.06.629-1.578.924Zm1.577-.924c0 .207.016.398.048.573.367-.255.733-.512 1.1-.773 0-.167.055-.342.087-.541-.409.25-.82.496-1.235.74Zm1.235-.741c-.032.199-.087.374-.087.541a78.83 78.83 0 0 0 2.19-1.649c.096-.135.208-.295.351-.478a72.418 72.418 0 0 1-2.454 1.586Zm2.454-1.586c-.143.183-.255.343-.35.478.281-.223.56-.446.837-.67.377-.313.743-.629 1.1-.948-.503.383-1.037.766-1.587 1.14Z" clip-rule="evenodd"/><path fill="url(#b)" d="M24.98 39.924c0 11.889 8.924 21.53 19.936 21.53s19.944-9.641 19.944-21.53c0-11.896-8.932-21.537-19.944-21.537-11.012 0-19.936 9.64-19.936 21.537Z" style="mix-blend-mode:multiply"/><g style="mix-blend-mode:multiply"><path fill="#FCF5F5" d="M32.589 84.705c5.602 9.657 21.386 17.235 32.183 14.454 26.231-6.813 37.713-41.211 33.02-59.904-2.677-10.662-11.53-21.594-29.72-20.16-36.63 2.869-47.73 44.534-35.483 65.61Z" opacity=".1"/><path fill="#FCF4F4" d="M32.613 84.665c5.593 9.642 21.29 17.18 32.08 14.407C90.86 92.29 102.374 57.9 97.673 39.279 94.987 28.633 86.19 17.741 68.015 19.175c-36.502 2.86-47.61 44.478-35.402 65.49Z" opacity=".1"/><path fill="#FCF3F3" d="M32.637 84.617c5.585 9.634 21.203 17.132 31.976 14.367 26.103-6.749 37.649-41.14 32.94-59.69-2.693-10.62-11.442-21.473-29.602-20.031-36.366 2.852-47.482 44.406-35.314 65.354Z" opacity=".1"/><path fill="#FCF3F2" d="M32.661 84.577c5.578 9.626 21.108 17.076 31.873 14.327 26.031-6.725 37.617-41.107 32.9-59.593-2.71-10.606-11.394-21.403-29.538-19.969-36.239 2.845-47.362 44.351-35.235 65.235Z" opacity=".1"/><path fill="#FBF2F1" d="M32.685 84.538c5.57 9.61 21.02 17.02 31.769 14.279 25.968-6.694 37.593-41.068 32.86-59.482-2.717-10.59-11.346-21.347-29.482-19.905C31.73 22.267 20.597 63.71 32.685 84.538Z" opacity=".1"/><path fill="#FBF1F0" d="M32.71 84.498c5.561 9.594 20.923 16.972 31.665 14.24 25.896-6.67 37.561-41.045 32.82-59.387C94.47 28.785 85.89 18.076 67.777 19.51c-35.976 2.828-47.116 44.222-35.068 64.987Z" opacity=".1"/><path fill="#FBF0EF" d="M32.741 84.45c5.546 9.593 20.829 16.924 31.554 14.2 25.833-6.638 37.53-41.005 32.78-59.284-2.732-10.542-11.258-21.21-29.362-19.769C31.873 22.41 20.725 63.75 32.741 84.45Z" opacity=".1"/><path fill="#FBEFEE" d="M32.765 84.41c5.538 9.578 20.733 16.869 31.45 14.16 25.77-6.614 37.498-40.98 32.741-59.18-2.749-10.525-11.219-21.155-29.299-19.713C31.944 22.49 20.79 63.773 32.765 84.41Z" opacity=".1"/><path fill="#FAEEED" d="M32.788 84.37c5.53 9.57 20.646 16.813 31.347 14.112 25.697-6.582 37.466-40.94 32.701-59.076-2.757-10.502-11.171-21.083-29.243-19.641-35.578 2.797-46.74 44.024-34.805 64.605Z" opacity=".1"/><path fill="#FAEDEC" d="M32.813 84.33c5.522 9.554 20.55 16.758 31.243 14.072 25.633-6.557 37.442-40.908 32.661-58.98-2.765-10.478-11.123-21.02-29.18-19.577-35.442 2.796-46.62 43.968-34.724 64.486Z" opacity=".1"/><path fill="#FAECEB" d="M32.836 84.283C38.35 93.829 53.3 101 63.976 98.314c25.562-6.525 37.41-40.876 32.63-58.868-2.781-10.462-11.092-20.956-29.132-19.514-35.307 2.78-46.494 43.897-34.638 64.35Z" opacity=".1"/><path fill="#FAEBEA" d="M32.86 84.243c5.506 9.538 20.375 16.685 31.036 13.992 25.514-6.446 37.379-40.845 32.59-58.773-2.797-10.438-11.044-20.892-29.068-19.45-35.18 2.773-46.374 43.84-34.558 64.23Z" opacity=".1"/><path fill="#F9EAE9" d="M32.884 84.203c5.498 9.522 20.287 16.63 30.932 13.944 25.442-6.414 37.347-40.805 32.55-58.669-2.805-10.422-11.004-20.829-29.012-19.379-35.044 2.765-46.24 43.77-34.47 64.104Z" opacity=".1"/><path fill="#F9E9E8" d="M32.908 84.163c5.49 9.514 20.19 16.574 30.828 13.897 25.379-6.375 37.315-40.773 32.51-58.558-2.812-10.407-10.956-20.765-28.948-19.323-34.916 2.757-46.12 43.713-34.39 63.984Z" opacity=".1"/><path fill="#F9E8E7" d="M32.932 84.123c5.483 9.498 20.104 16.518 30.726 13.857 25.314-6.35 37.283-40.741 32.47-58.462-2.829-10.383-10.909-20.701-28.893-19.251-34.78 2.749-45.992 43.641-34.303 63.856Z" opacity=".1"/><path fill="#F9E7E6" d="M32.956 84.076c5.474 9.49 20.008 16.478 30.621 13.816 25.243-6.318 37.251-40.7 32.43-58.35C93.172 29.175 85.14 18.904 67.18 20.346c-34.653 2.741-45.873 43.586-34.223 63.73Z" opacity=".1"/><path fill="#F8E6E5" d="M32.988 84.035c5.45 9.483 19.912 16.423 30.51 13.777 25.179-6.287 37.227-40.677 32.39-58.255-2.845-10.342-10.82-20.573-28.773-19.123-34.518 2.725-45.745 43.514-34.127 63.601Z" opacity=".1"/><path fill="#F8E5E4" d="M33.012 83.996c5.442 9.466 19.816 16.367 30.406 13.73 25.116-6.256 37.195-40.638 32.35-58.152-2.86-10.319-10.78-20.51-28.709-19.06-34.39 2.725-45.625 43.458-34.047 63.482Z" opacity=".1"/><path fill="#F8E4E3" d="M33.036 83.956c5.434 9.45 19.729 16.319 30.303 13.69 25.043-6.232 37.163-40.614 32.31-58.048-2.868-10.303-10.733-20.447-28.653-18.996-34.255 2.709-45.498 43.386-33.96 63.354Z" opacity=".1"/><path fill="#F8E3E2" d="M33.06 83.908c5.426 9.45 19.633 16.271 30.198 13.65 24.98-6.191 37.132-40.574 32.271-57.944C92.653 29.327 84.844 19.23 66.94 20.68c-34.119 2.71-45.378 43.331-33.88 63.227Z" opacity=".1"/><path fill="#F7E2E1" d="M33.083 83.868c5.418 9.434 19.546 16.215 30.095 13.61 24.917-6.168 37.1-40.542 32.231-57.849-2.892-10.263-10.645-20.31-28.534-18.86-33.983 2.693-45.25 43.259-33.792 63.1Z" opacity=".2"/><path fill="#F7E1E0" d="M33.107 83.829c5.41 9.426 19.458 16.167 29.992 13.562 24.845-6.136 37.068-40.51 32.191-57.738-2.9-10.247-10.597-20.255-28.47-18.804-33.856 2.685-45.131 43.203-33.713 62.98Z" opacity=".2"/><path fill="#F7E0DF" d="M33.13 83.789c5.403 9.41 19.363 16.111 29.89 13.514 24.78-6.104 37.035-40.47 32.15-57.634-2.908-10.223-10.549-20.183-28.414-18.733-33.72 2.677-45.004 43.132-33.625 62.853Z" opacity=".2"/><path fill="#F7DFDE" d="M33.155 83.741c5.394 9.403 19.275 16.064 29.785 13.482 24.717-6.072 37.004-40.438 32.111-57.538-2.924-10.199-10.51-20.12-28.35-18.669-33.594 2.67-44.885 43.076-33.546 62.725Z" opacity=".2"/><path fill="#F6DEDD" d="M33.178 83.701c5.387 9.395 19.18 16.016 29.681 13.434 24.646-6.04 36.973-40.406 32.072-57.426C92 29.526 84.47 19.645 66.644 21.103 33.178 23.765 21.88 64.107 33.178 83.701Z" opacity=".2"/><path fill="#F6DDDC" d="M33.21 83.661c5.37 9.379 19.084 15.96 29.57 13.395C87.36 91.04 99.72 56.68 94.812 39.725c-2.94-10.16-10.423-19.992-28.231-18.542C33.25 23.837 21.943 64.131 33.21 83.661Z" opacity=".2"/><path fill="#F6DCDB" d="M33.234 83.621c5.363 9.371 18.988 15.905 29.466 13.347 24.51-5.976 36.909-40.335 31.992-57.227-2.956-10.136-10.374-19.928-28.167-18.47-33.203 2.637-44.518 42.876-33.29 62.35Z" opacity=".2"/><path fill="#F6DCDA" d="M33.258 83.574c5.355 9.362 18.9 15.856 29.363 13.314 24.446-5.952 36.876-40.31 31.952-57.123C91.609 29.637 84.246 19.9 66.462 21.351 33.394 23.988 22.07 64.17 33.258 83.574Z" opacity=".2"/><path fill="#F5DBD9" d="M33.282 83.534c5.347 9.347 18.805 15.809 29.26 13.267 24.382-5.92 36.844-40.271 31.912-57.02-2.973-10.104-10.287-19.8-28.048-18.343-32.933 2.622-44.271 42.75-33.124 62.096Z" opacity=".2"/><path fill="#F5DAD8" d="M33.306 83.494c5.34 9.338 18.718 15.753 29.156 13.227 24.31-5.889 36.813-40.247 31.872-56.924-2.988-10.08-10.239-19.737-27.992-18.28C33.545 24.14 22.2 64.212 33.307 83.495Z" opacity=".2"/><path fill="#F5D9D7" d="M33.33 83.454c5.331 9.323 18.622 15.698 29.052 13.18C86.63 90.777 99.163 56.426 94.215 39.82c-2.996-10.064-10.2-19.673-27.928-18.215-32.67 2.605-44.024 42.621-32.957 61.848Z" opacity=".2"/><path fill="#F5D8D6" d="M33.354 83.406c5.323 9.315 18.534 15.658 28.949 13.148 24.183-5.833 36.749-40.176 31.792-56.717-3.004-10.04-10.151-19.61-27.872-18.152-32.534 2.598-43.897 42.566-32.869 61.721Z" opacity=".2"/><path fill="#F4D7D5" d="M33.378 83.367c5.314 9.306 18.446 15.601 28.844 13.1 24.112-5.802 36.717-40.144 31.753-56.614-3.02-10.016-10.103-19.538-27.808-18.08-32.407 2.59-43.777 42.494-32.79 61.594Z" opacity=".2"/><path fill="#F4D6D4" d="M33.401 83.327c5.307 9.29 18.351 15.546 28.742 13.052 24.047-5.761 36.685-40.104 31.713-56.503-3.028-10-10.064-19.481-27.753-18.023-32.271 2.581-43.65 42.438-32.701 61.474Z" opacity=".2"/><path fill="#F4D5D3" d="M33.426 83.287c5.3 9.282 18.263 15.498 28.638 13.012 23.984-5.737 36.653-40.072 31.673-56.407-3.036-9.984-10.016-19.418-27.69-17.952-32.142 2.574-43.529 42.367-32.62 61.347Z" opacity=".2"/><path fill="#F4D4D2" d="M33.458 83.239c5.283 9.275 18.16 15.45 28.526 12.972 23.912-5.705 36.621-40.04 31.633-56.303-3.052-9.96-9.968-19.347-27.633-17.888-32.008 2.566-43.403 42.31-32.526 61.219Z" opacity=".2"/><path fill="#F3D3D1" d="M33.482 83.199c5.275 9.259 18.071 15.394 28.422 12.932 23.848-5.681 36.59-40.008 31.593-56.199-3.06-9.944-9.928-19.29-27.57-17.825-31.88 2.558-43.282 42.24-32.445 61.092Z" opacity=".2"/><path fill="#F3D2D0" d="M33.505 83.16c5.267 9.25 17.977 15.338 28.32 12.884 23.784-5.642 36.557-39.968 31.553-56.096-3.076-9.92-9.88-19.219-27.514-17.76C34.12 24.736 22.71 64.37 33.505 83.158Z" opacity=".2"/><path fill="#F3D1CF" d="M33.53 83.12c5.258 9.234 17.888 15.29 28.215 12.844 23.713-5.617 36.525-39.944 31.513-56-3.083-9.896-9.84-19.155-27.45-17.69C34.198 24.81 22.772 64.387 33.53 83.12Z" opacity=".2"/><path fill="#F3D0CE" d="M33.553 83.072c5.251 9.235 17.793 15.243 28.112 12.805 23.65-5.586 36.494-39.905 31.474-55.889-3.092-9.88-9.793-19.091-27.394-17.633C34.27 24.889 22.836 64.41 33.553 83.072Z" opacity=".3"/><path fill="#F2CFCD" d="M33.577 83.032c5.243 9.219 17.705 15.187 28.008 12.765 23.578-5.562 36.454-39.88 31.434-55.793-3.107-9.857-9.745-19.028-27.33-17.562-31.347 2.518-42.79 41.984-32.112 60.59Z" opacity=".3"/><path fill="#F2CECC" d="M33.601 82.992c5.236 9.203 17.61 15.14 27.905 12.717 23.514-5.522 36.422-39.84 31.402-55.69-3.123-9.84-9.713-18.963-27.283-17.497-31.21 2.518-42.661 41.928-32.024 60.47Z" opacity=".3"/><path fill="#F2CDCB" d="M33.625 82.952c5.227 9.195 17.522 15.084 27.801 12.677 23.45-5.498 36.39-39.808 31.363-55.585-3.14-9.825-9.666-18.9-27.22-17.434-31.083 2.502-42.541 41.856-31.944 60.342Z" opacity=".3"/><path fill="#F2CCCA" d="M33.649 82.904c5.219 9.188 17.426 15.036 27.697 12.638 23.378-5.466 36.358-39.777 31.323-55.482-3.148-9.801-9.626-18.837-27.164-17.37-30.948 2.493-42.414 41.8-31.856 60.214Z" opacity=".3"/><path fill="#F1CBC9" d="M33.673 82.864c5.235 9.164 17.338 14.98 27.593 12.59C84.581 90.02 97.593 55.717 92.55 40.075c-3.155-9.777-9.578-18.765-27.1-17.298-30.82 2.486-42.263 41.713-31.776 60.087Z" opacity=".3"/><path fill="#F1CAC8" d="M33.705 82.825c5.22 9.155 17.243 14.932 27.483 12.55C84.438 89.971 97.481 55.668 92.43 40.1c-3.17-9.761-9.53-18.71-27.043-17.243C34.7 25.335 23.25 64.506 33.705 82.825Z" opacity=".3"/><path fill="#F1C9C7" d="M33.729 82.785c5.21 9.14 17.147 14.876 27.378 12.502 23.18-5.37 36.263-39.673 31.203-55.171-3.179-9.738-9.49-18.646-26.98-17.172-30.557 2.47-42.008 41.586-31.601 59.84Z" opacity=".3"/><path fill="#F1C8C6" d="M33.753 82.745c5.203 9.123 17.06 14.82 27.275 12.462C84.143 89.86 97.25 55.565 92.19 40.139c-3.195-9.721-9.442-18.582-26.916-17.116-30.423 2.463-41.889 41.522-31.522 59.722Z" opacity=".3"/><path fill="#F0C7C5" d="M33.777 82.697c5.195 9.124 16.964 14.781 27.17 12.422C84 89.805 97.14 55.519 92.072 40.156c-3.203-9.705-9.402-18.518-26.86-17.044C34.924 25.558 23.45 64.57 33.777 82.697Z" opacity=".3"/><path fill="#F0C6C4" d="M33.8 82.657c5.187 9.108 16.877 14.725 27.068 12.383 22.98-5.283 36.159-39.578 31.083-54.869-3.219-9.681-9.354-18.446-26.796-16.972-30.16 2.438-41.642 41.387-31.355 59.458Z" opacity=".3"/><path fill="#F0C5C3" d="M33.825 82.617c5.18 9.092 16.78 14.67 26.964 12.335 22.916-5.251 36.127-39.538 31.044-54.757-3.227-9.665-9.307-18.39-26.741-16.916-30.024 2.43-41.514 41.322-31.267 59.338Z" opacity=".3"/><path fill="#F0C5C2" d="M33.848 82.578c5.172 9.083 16.693 14.613 26.86 12.294 22.845-5.227 36.096-39.505 31.005-54.66-3.235-9.642-9.267-18.328-26.678-16.846-29.896 2.423-41.394 41.26-31.187 59.212Z" opacity=".3"/><path fill="#EFC4C1" d="M33.872 82.53c5.163 9.076 16.598 14.573 26.757 12.255C83.41 89.59 96.685 55.31 91.593 40.227c-3.25-9.617-9.219-18.255-26.621-16.78C35.21 25.86 23.705 64.64 33.872 82.53Z" opacity=".3"/><path fill="#EFC3C0" d="M33.896 82.49c5.155 9.06 16.51 14.518 26.653 12.215 22.717-5.171 36.024-39.442 30.925-54.454-3.26-9.602-9.172-18.2-26.558-16.717-29.633 2.398-41.147 41.131-31.02 58.956Z" opacity=".3"/><path fill="#EFC2BF" d="M33.928 82.45c5.14 9.052 16.407 14.462 26.542 12.167 22.646-5.131 35.992-39.402 30.885-54.35-3.275-9.578-9.132-18.128-26.502-16.654-29.498 2.399-41.02 41.068-30.925 58.837Z" opacity=".3"/><path fill="#EFC1BE" d="M33.952 82.41c5.131 9.036 16.319 14.414 26.438 12.12 22.582-5.1 35.952-39.371 30.845-54.248-3.283-9.561-9.084-18.063-26.439-16.581-29.37 2.382-40.9 41.004-30.844 58.709Z" opacity=".3"/><path fill="#EEC0BD" d="M33.976 82.362C39.099 91.398 50.199 96.73 60.31 94.45c22.518-5.076 35.92-39.339 30.805-54.143-3.299-9.546-9.044-18-26.382-16.526-29.235 2.382-40.773 40.94-30.757 58.581Z" opacity=".3"/><path fill="#EEBFBC" d="M34 82.323c5.115 9.02 16.136 14.31 26.231 12.04 22.446-5.044 35.889-39.3 30.765-54.04C87.689 30.8 82 22.385 64.677 23.867 35.577 26.235 24.024 64.745 34 82.323Z" opacity=".3"/><path fill="#EEBEBB" d="M34.023 82.283c5.108 9.004 16.048 14.255 26.128 12 22.382-5.02 35.856-39.275 30.725-53.945-3.323-9.498-8.948-17.872-26.263-16.39-28.964 2.358-40.526 40.813-30.59 58.335Z" opacity=".3"/><path fill="#EEBDBA" d="M34.047 82.243C39.147 91.239 50 96.45 60.071 94.195c22.311-4.98 35.817-39.235 30.686-53.833-3.331-9.482-8.909-17.808-26.2-16.326-28.836 2.35-40.406 40.749-30.51 58.207Z" opacity=".4"/><path fill="#EDBCB9" d="M34.071 82.195c5.092 8.988 15.865 14.16 25.92 11.92C82.24 89.16 95.776 54.912 90.638 40.378c-3.347-9.458-8.86-17.705-26.144-16.263-28.7 2.399-40.278 40.685-30.422 58.08Z" opacity=".4"/><path fill="#EDBBB8" d="M34.095 82.155c5.084 8.972 15.769 14.104 25.817 11.873 22.183-4.924 35.753-39.171 30.605-53.634-3.354-9.434-8.812-17.641-26.08-16.19-28.565 2.39-40.159 40.62-30.342 57.951Z" opacity=".4"/><path fill="#EDBAB7" d="M34.12 82.116c5.075 8.964 15.68 14.047 25.713 11.832 22.111-4.9 35.713-39.14 30.565-53.53-3.37-9.426-8.773-17.585-26.024-16.135-28.43 2.382-40.031 40.558-30.255 57.833Z" opacity=".4"/><path fill="#EDB9B6" d="M34.143 82.076c5.068 8.948 15.586 14 25.61 11.785 22.048-4.87 35.681-39.1 30.526-53.427-3.379-9.402-8.725-17.514-25.96-16.064-28.303 2.375-39.913 40.495-30.176 57.706Z" opacity=".4"/><path fill="#ECB8B5" d="M34.175 82.028c5.051 8.948 15.49 13.952 25.498 11.753 21.976-4.837 35.65-39.076 30.486-53.331-3.395-9.379-8.678-17.45-25.905-16-28.167 2.367-39.785 40.43-30.08 57.578Z" opacity=".4"/><path fill="#ECB7B4" d="M34.199 81.988c5.043 8.932 15.394 13.896 25.394 11.705 21.912-4.805 35.61-39.036 30.446-53.219-3.402-9.362-8.637-17.386-25.84-15.936-28.04 2.358-39.658 40.366-30 57.45Z" opacity=".4"/><path fill="#ECB6B3" d="M34.222 81.948c5.036 8.916 15.307 13.84 25.291 11.657C81.362 88.832 95.091 54.61 89.92 40.49 86.5 31.15 81.33 23.167 64.135 24.617c-27.905 2.35-39.53 40.303-29.913 57.331Z" opacity=".4"/><path fill="#ECB5B2" d="M34.247 81.908c5.028 8.909 15.212 13.793 25.188 11.618 21.776-4.75 35.537-38.972 30.366-53.02-3.426-9.315-8.55-17.251-25.721-15.8-27.777 2.342-39.41 40.23-29.833 57.202Z" opacity=".4"/><path fill="#EBB4B1" d="M34.27 81.86c5.02 8.9 15.124 13.745 25.084 11.578C81.068 88.72 94.86 54.506 89.681 40.529c-3.442-9.298-8.502-17.195-25.665-15.745C36.374 27.12 24.733 64.96 34.27 81.86Z" opacity=".4"/><path fill="#EBB3B0" d="M34.295 81.82c5.011 8.885 15.027 13.69 24.98 11.539 21.641-4.694 35.474-38.9 30.286-52.813-3.45-9.283-8.454-17.124-25.601-15.674C36.446 27.2 24.797 64.976 34.295 81.821Z" opacity=".4"/><path fill="#EBB2AF" d="M34.319 81.781c5.003 8.876 14.94 13.633 24.876 11.49 21.578-4.653 35.434-38.868 30.247-52.71-3.466-9.258-8.414-17.059-25.538-15.609C36.526 27.271 24.86 65 34.318 81.781Z" opacity=".4"/><path fill="#EBB1AE" d="M34.342 81.74c4.996 8.861 14.845 13.587 24.773 11.451 21.514-4.63 35.403-38.837 30.208-52.606C85.84 31.342 80.956 23.59 63.84 25.04c-27.243 2.302-38.916 39.976-29.498 56.7Z" opacity=".4"/><path fill="#EAB0AD" d="M34.366 81.693c4.988 8.86 14.757 13.538 24.67 11.41 21.442-4.597 35.362-38.796 30.175-52.502-3.498-9.219-8.327-16.932-25.426-15.482-27.116 2.303-38.797 39.92-29.419 56.574Z" opacity=".4"/><path fill="#EAAFAC" d="M34.39 81.653c4.98 8.845 14.669 13.482 24.565 11.37C80.334 88.45 94.286 54.26 89.091 40.618c-3.514-9.195-8.287-16.868-25.37-15.41-26.98 2.287-38.67 39.849-29.331 56.446Z" opacity=".4"/><path fill="#EAAEAB" d="M34.422 81.614c4.964 8.828 14.566 13.426 24.454 11.322 21.315-4.542 35.291-38.733 30.096-52.295-3.522-9.179-8.24-16.804-25.307-15.354-26.853 2.287-38.55 39.793-29.243 56.327Z" opacity=".4"/><path fill="#EAAEAA" d="M34.446 81.573c4.956 8.821 14.478 13.379 24.35 11.275 21.244-4.51 35.26-38.693 30.057-52.19-3.538-9.156-8.2-16.742-25.251-15.284-26.717 2.271-38.423 39.721-29.156 56.2Z" opacity=".4"/><path fill="#E9ADA9" d="M34.47 81.526c4.948 8.813 14.382 13.33 24.247 11.243 21.179-4.486 35.219-38.662 30.016-52.096-3.546-9.14-8.152-16.67-25.188-15.219-26.59 2.271-38.302 39.666-29.075 56.072Z" opacity=".4"/><path fill="#E9ACA8" d="M34.493 81.486c4.94 8.797 14.295 13.275 24.144 11.195 21.108-4.454 35.187-38.63 29.976-51.984-3.562-9.124-8.104-16.614-25.131-15.156-26.455 2.256-38.176 39.594-28.989 55.945Z" opacity=".4"/><path fill="#E9ABA7" d="M34.517 81.446c4.933 8.789 14.2 13.219 24.04 11.155 21.044-4.422 35.148-38.597 29.936-51.888-3.577-9.1-8.063-16.542-25.067-15.092C37.099 27.868 25.37 65.16 34.517 81.446Z" opacity=".5"/><path fill="#E9AAA6" d="M34.541 81.406c4.925 8.773 14.112 13.172 23.937 11.108 20.98-4.39 35.115-38.558 29.896-51.777-3.586-9.084-8.016-16.486-25.012-15.028-26.183 2.24-37.928 39.466-28.82 55.697Z" opacity=".5"/><path fill="#E8A9A5" d="M34.566 81.366c4.916 8.765 14.016 13.116 23.832 11.068C79.307 88.067 93.474 53.9 88.255 40.753c-3.602-9.06-7.976-16.415-24.948-14.965-26.056 2.232-37.81 39.41-28.741 55.578Z" opacity=".5"/><path fill="#E8A8A4" d="M34.59 81.319c4.907 8.757 13.927 13.067 23.728 11.028 20.845-4.335 35.044-38.494 29.817-51.578-3.61-9.036-7.928-16.35-24.893-14.892-25.92 2.223-37.68 39.338-28.653 55.442Z" opacity=".5"/><path fill="#E8A7A3" d="M34.613 81.279c4.9 8.74 13.833 13.012 23.626 10.988 20.773-4.31 35.004-38.462 29.777-51.474-3.626-9.02-7.88-16.295-24.829-14.837C37.394 28.171 25.625 65.24 34.613 81.28Z" opacity=".5"/><path fill="#E8A6A2" d="M34.645 81.239c4.885 8.733 13.737 12.964 23.514 10.94 20.71-4.279 34.972-38.422 29.737-51.37-3.641-9.004-7.84-16.224-24.773-14.765-25.657 2.207-37.434 39.21-28.478 55.195Z" opacity=".5"/><path fill="#E7A5A1" d="M34.67 81.2c4.876 8.716 13.64 12.908 23.41 10.9C78.716 87.845 93.012 53.7 87.776 40.825c-3.65-8.98-7.793-16.16-24.71-14.702-25.53 2.2-37.314 39.156-28.398 55.076Z" opacity=".5"/><path fill="#E7A4A0" d="M34.693 81.151c4.868 8.71 13.553 12.86 23.306 10.86C78.573 87.79 92.892 53.654 87.657 40.85c-3.666-8.965-7.745-16.096-24.654-14.638-25.394 2.183-37.187 39.084-28.31 54.94Z" opacity=".5"/><path fill="#E7A39F" d="M34.716 81.112c4.861 8.7 13.459 12.804 23.204 10.812 20.51-4.191 34.86-38.319 29.617-51.06-3.681-8.94-7.705-16.031-24.59-14.573-25.266 2.183-37.067 39.028-28.23 54.82Z" opacity=".5"/><path fill="#E7A29E" d="M34.74 81.072c4.853 8.685 13.371 12.757 23.1 10.772C78.28 87.685 92.661 53.558 87.418 40.88c-3.69-8.916-7.657-15.96-24.534-14.502-25.131 2.168-36.94 38.956-28.143 54.694Z" opacity=".5"/><path fill="#E6A19D" d="M34.765 81.031C39.609 89.71 48.04 93.733 57.76 91.757c20.374-4.128 34.78-38.255 29.538-50.853-3.706-8.9-7.618-15.904-24.47-14.446-24.997 2.167-36.821 38.9-28.064 54.573Z" opacity=".5"/><path fill="#E6A09C" d="M34.788 80.984c4.837 8.67 13.188 12.653 22.893 10.693C77.984 87.574 92.43 53.454 87.179 40.92c-3.721-8.876-7.57-15.832-24.414-14.374-24.861 2.151-36.694 38.828-27.977 54.438Z" opacity=".5"/><path fill="#E69F9B" d="M34.812 80.944c4.83 8.653 13.092 12.598 22.79 10.645C77.84 87.519 92.31 53.407 87.06 40.937c-3.73-8.852-7.523-15.769-24.351-14.31-24.733 2.143-36.574 38.772-27.897 54.318Z" opacity=".5"/><path fill="#E59E9A" d="M34.836 80.904C39.657 89.55 47.84 93.446 57.522 91.51 77.697 87.462 92.19 53.358 86.94 40.96c-3.745-8.845-7.482-15.713-24.295-14.247C38.047 28.848 26.2 65.414 34.836 80.904Z" opacity=".5"/><path fill="#E59D99" d="M34.86 80.864c4.813 8.63 12.916 12.494 22.582 10.558 20.103-4.016 34.637-38.12 29.378-50.446-3.76-8.82-7.434-15.642-24.23-14.183-24.47 2.127-36.327 38.645-27.73 54.071Z" opacity=".5"/><path fill="#E59C98" d="M34.892 80.817c4.797 8.621 12.813 12.446 22.47 10.526 20.04-3.992 34.598-38.088 29.339-50.35-3.77-8.798-7.395-15.579-24.167-14.113C38.19 29 26.325 65.454 34.891 80.817Z" opacity=".5"/><path fill="#E59B97" d="M34.916 80.776c4.789 8.614 12.725 12.39 22.366 10.479 19.969-3.96 34.558-38.048 29.3-50.24-3.786-8.78-7.347-15.513-24.112-14.055-24.207 2.111-36.08 38.518-27.554 53.817Z" opacity=".5"/><path fill="#E49A96" d="M34.94 80.737c4.78 8.598 12.63 12.335 22.263 10.438C77.107 87.24 91.729 53.16 86.462 41.032c-3.801-8.757-7.3-15.45-24.048-13.984-24.08 2.103-35.96 38.446-27.474 53.689Z" opacity=".5"/><path fill="#E49995" d="M34.964 80.697c4.773 8.59 12.541 12.287 22.159 10.39 19.84-3.904 34.486-37.984 29.22-50.04-3.81-8.732-7.26-15.378-23.993-13.92-23.944 2.096-35.833 38.39-27.386 53.57Z" opacity=".5"/><path fill="#E49894" d="M34.987 80.65C39.752 89.23 47.434 92.887 57.043 91c19.77-3.873 34.447-37.944 29.18-49.928-3.825-8.718-7.212-15.323-23.929-13.857-23.816 2.08-35.713 38.319-27.306 53.434Z" opacity=".6"/><path fill="#E49793" d="M35.012 80.61c4.757 8.565 12.358 12.183 21.952 10.31 19.705-3.849 34.407-37.912 29.14-49.833-3.841-8.693-7.164-15.259-23.873-13.792-23.673 2.08-35.586 38.263-27.22 53.314Z" opacity=".6"/><path fill="#E39692" d="M35.036 80.57c4.749 8.557 12.263 12.127 21.848 10.262 19.634-3.816 34.375-37.872 29.1-49.729-3.857-8.669-7.124-15.187-23.809-13.72-23.546 2.063-35.466 38.19-27.14 53.187Z" opacity=".6"/><path fill="#E39691" d="M35.06 80.53C39.8 89.07 47.235 92.6 56.805 90.753c19.57-3.793 34.334-37.84 29.06-49.626C82 32.474 78.788 25.996 62.11 27.462 38.701 29.518 26.773 65.597 35.06 80.53Z" opacity=".6"/><path fill="#E39590" d="M35.083 80.482c4.733 8.534 12.08 12.032 21.641 10.183 19.498-3.76 34.295-37.809 29.02-49.522-3.88-8.637-7.036-15.06-23.689-13.593-23.283 2.048-35.22 38.064-26.972 52.932Z" opacity=".6"/><path fill="#E3948F" d="M35.115 80.442c4.717 8.526 11.984 11.976 21.53 10.144C76.08 86.849 90.9 52.809 85.625 41.159c-3.896-8.613-6.988-14.996-23.633-13.53C38.844 29.67 26.9 65.637 35.115 80.442Z" opacity=".6"/><path fill="#E2938E" d="M35.139 80.402c4.71 8.51 11.888 11.92 21.426 10.096 19.37-3.705 34.215-37.737 28.948-49.315-3.92-8.597-6.948-14.932-23.577-13.466-23.02 2.032-34.972 37.936-26.797 52.685Z" opacity=".6"/><path fill="#E2928D" d="M35.163 80.362c4.701 8.502 11.801 11.865 21.323 10.056C75.785 86.737 90.661 52.713 85.394 41.2c-3.928-8.574-6.908-14.869-23.522-13.402-22.884 2.023-34.844 37.88-26.709 52.565Z" opacity=".6"/><path fill="#E2918C" d="M35.187 80.315C39.88 88.809 46.892 92.13 56.406 90.33c19.235-3.65 34.143-37.666 28.868-49.116-3.944-8.55-6.86-14.805-23.458-13.33-22.757 2.007-34.725 37.808-26.63 52.43Z" opacity=".6"/><path fill="#E2908B" d="M35.21 80.275c4.686 8.478 11.618 11.768 21.117 9.976C75.49 86.625 90.43 52.609 85.154 41.239c-3.96-8.534-6.82-14.741-23.402-13.275-22.622 2.008-34.598 37.753-26.542 52.31Z" opacity=".6"/><path fill="#E18F8A" d="M35.235 80.235c4.677 8.47 11.522 11.713 21.012 9.928 19.1-3.593 34.064-37.601 28.789-48.908-3.977-8.51-6.773-14.677-23.339-13.203-22.486 1.992-34.478 37.681-26.462 52.183Z" opacity=".6"/><path fill="#E18E89" d="M35.259 80.195c4.669 8.454 11.434 11.657 20.908 9.88 19.028-3.561 34.024-37.561 28.749-48.804-3.992-8.486-6.725-14.606-23.283-13.14-22.35 1.992-34.35 37.626-26.374 52.064Z" opacity=".6"/><path fill="#E18D88" d="M35.282 80.147c4.662 8.454 11.34 11.61 20.805 9.849 18.964-3.538 33.984-37.53 28.71-48.701-4.008-8.47-6.686-14.55-23.22-13.076-22.223 1.976-34.23 37.554-26.294 51.928Z" opacity=".6"/><path fill="#E18C87" d="M35.306 80.108c4.654 8.438 11.251 11.553 20.702 9.8 18.9-3.505 33.944-37.49 28.669-48.597-4.016-8.446-6.638-14.478-23.163-13.012-22.088 1.968-34.104 37.498-26.208 51.809Z" opacity=".6"/><path fill="#E08B86" d="M35.33 80.068c4.646 8.422 11.156 11.498 20.598 9.76 18.829-3.481 33.904-37.457 28.63-48.493-4.033-8.43-6.59-14.422-23.1-12.948-21.96 1.96-33.984 37.426-26.128 51.681Z" opacity=".6"/><path fill="#E08A85" d="M35.362 80.028c4.63 8.414 11.06 11.45 20.486 9.713 18.765-3.45 33.865-37.426 28.59-48.39-4.048-8.407-6.55-14.36-23.044-12.885-21.825 1.952-33.857 37.37-26.032 51.562Z" opacity=".6"/><path fill="#E08984" d="M35.387 79.98c4.621 8.407 10.964 11.403 20.382 9.681 18.694-3.426 33.825-37.394 28.55-48.294-4.064-8.383-6.502-14.287-22.98-12.813C39.642 30.49 27.602 65.853 35.387 79.98Z" opacity=".6"/><path fill="#E08883" d="M35.41 79.94c4.614 8.39 10.877 11.347 20.28 9.633C74.318 86.18 89.473 52.22 84.198 41.39c-4.08-8.366-6.462-14.23-22.924-12.757C39.713 30.57 27.665 65.876 35.41 79.94Z" opacity=".6"/><path fill="#DF8782" d="M35.434 79.9c4.605 8.383 10.78 11.291 20.175 9.594 18.558-3.37 33.745-37.323 28.47-48.088-4.095-8.342-6.414-14.159-22.86-12.685-21.434 1.92-33.49 37.171-25.785 51.18Z" opacity=".6"/><path fill="#DF8681" d="M35.458 79.86c4.597 8.367 10.693 11.236 20.072 9.546 18.494-3.338 33.705-37.283 28.43-47.984-4.112-8.318-6.367-14.095-22.797-12.621-21.307 1.912-33.37 37.115-25.705 51.06Z" opacity=".7"/><path fill="#DF8580" d="M35.482 79.82c4.59 8.36 10.598 11.188 19.968 9.507 18.43-3.315 33.666-37.252 28.39-47.88-4.127-8.304-6.326-14.04-22.74-12.559-21.164 1.905-33.243 37.044-25.618 50.933Z" opacity=".7"/><path fill="#DF847F" d="M35.505 79.773c4.582 8.35 10.51 11.14 19.865 9.466 18.359-3.283 33.626-37.211 28.35-47.777-4.135-8.279-6.278-13.968-22.677-12.494-21.035 1.896-33.123 36.988-25.538 50.805Z" opacity=".7"/><path fill="#DE837E" d="M35.53 79.733c4.573 8.335 10.414 11.084 19.76 9.418 18.295-3.25 33.586-37.171 28.311-47.673-4.151-8.263-6.239-13.904-22.621-12.422-20.9 1.888-32.996 36.916-25.45 50.677Z" opacity=".7"/><path fill="#DE827D" d="M35.554 79.693c4.566 8.327 10.327 11.028 19.657 9.379 18.224-3.228 33.546-37.148 28.271-47.57-4.167-8.247-6.19-13.84-22.557-12.367-20.773 1.88-32.877 36.86-25.37 50.558Z" opacity=".7"/><path fill="#DE817C" d="M35.578 79.653c4.558 8.311 10.231 10.972 19.554 9.33 18.16-3.194 33.506-37.107 28.23-47.465-4.182-8.223-6.143-13.777-22.501-12.295-20.638 1.864-32.75 36.789-25.283 50.43Z" opacity=".7"/><path fill="#DE807B" d="M35.61 79.605c4.541 8.31 10.135 10.924 19.441 9.299 18.088-3.171 33.467-37.076 28.192-47.37-4.2-8.2-6.104-13.714-22.439-12.232-20.51 1.865-32.63 36.733-25.195 50.303Z" opacity=".7"/><path fill="#DD7F7A" d="M35.633 79.566c4.534 8.294 10.048 10.868 19.339 9.25 18.024-3.139 33.426-37.035 28.151-47.259-4.215-8.183-6.056-13.649-22.382-12.167-20.375 1.849-32.502 36.662-25.108 50.175Z" opacity=".7"/><path fill="#DD7F79" d="M35.657 79.525c4.526 8.28 9.952 10.821 19.235 9.212 17.952-3.116 33.386-37.004 28.111-47.164-4.23-8.16-6.016-13.585-22.318-12.103-20.247 1.84-32.383 36.605-25.028 50.055Z" opacity=".7"/><path fill="#DD7E78" d="M35.68 79.486c4.519 8.27 9.865 10.765 19.132 9.163 17.889-3.084 33.347-36.964 28.072-47.06-4.247-8.127-5.968-13.513-22.263-12.031C40.509 31.39 28.366 66.09 35.68 79.486Z" opacity=".7"/><path fill="#DD7D77" d="M35.705 79.438c4.51 8.263 9.768 10.717 19.027 9.132 17.825-3.06 33.307-36.933 28.032-46.957-4.263-8.111-5.92-13.458-22.199-11.976-19.984 1.825-32.135 36.478-24.86 49.801Z" opacity=".7"/><path fill="#DC7C76" d="M35.729 79.398c4.502 8.255 9.681 10.662 18.924 9.084C72.406 85.454 87.92 51.59 82.645 41.629c-4.279-8.087-5.88-13.394-22.143-11.904-19.841 1.809-32.008 36.414-24.773 49.673Z" opacity=".7"/><path fill="#DC7B75" d="M35.753 79.359c4.494 8.239 9.586 10.605 18.82 9.035 17.69-2.996 33.228-36.852 27.953-46.749-4.295-8.063-5.833-13.322-22.08-11.84-19.713 1.809-31.888 36.35-24.693 49.554Z" opacity=".7"/><path fill="#DC7A74" d="M35.776 79.319c4.486 8.223 9.498 10.55 18.717 8.996 17.618-2.98 33.188-36.82 27.913-46.646-4.31-8.047-5.785-13.267-22.024-11.776-19.578 1.792-31.761 36.286-24.606 49.426Z" opacity=".7"/><path fill="#DC7973" d="M35.8 79.27c4.479 8.224 9.403 10.51 18.614 8.957 17.554-2.948 33.14-36.781 27.873-46.542-4.327-8.024-5.745-13.195-21.96-11.713C40.877 31.757 28.685 66.195 35.8 79.27Z" opacity=".7"/><path fill="#DB7872" d="M35.833 79.23c4.462 8.208 9.307 10.455 18.502 8.917 17.482-2.924 33.1-36.749 27.833-46.446-4.343-8-5.698-13.131-21.905-11.641-19.315 1.777-31.514 36.159-24.43 49.17Z" opacity=".7"/><path fill="#DB7771" d="M35.857 79.191c4.454 8.2 9.21 10.399 18.398 8.869 17.418-2.893 33.06-36.71 27.793-46.335-4.359-7.984-5.657-13.076-21.84-11.585C41.02 31.908 28.812 66.234 35.856 79.19Z" opacity=".7"/><path fill="#DB7670" d="M35.88 79.151c4.446 8.183 9.123 10.343 18.294 8.829 17.355-2.869 33.02-36.678 27.753-46.24-4.374-7.96-5.61-13.003-21.785-11.513C41.091 31.98 28.877 66.259 35.88 79.15Z" opacity=".7"/><path fill="#DB756F" d="M35.904 79.104c4.438 8.175 9.028 10.294 18.191 8.788 17.283-2.836 32.98-36.637 27.714-46.135-4.399-7.936-5.562-12.94-21.721-11.45C41.162 32.06 28.94 66.275 35.903 79.104Z" opacity=".7"/><path fill="#DA746E" d="M35.928 79.063c4.43 8.168 8.94 10.24 18.088 8.75C71.235 85 86.948 51.206 81.697 41.78c-4.422-7.92-5.53-12.885-21.673-11.387-18.789 1.737-31.028 35.905-24.096 48.67Z" opacity=".7"/><path fill="#DA736D" d="M35.952 79.024c4.422 8.151 8.845 10.183 17.984 8.701 17.147-2.78 32.892-36.566 27.641-45.928-4.438-7.897-5.482-12.813-21.61-11.323-18.66 1.73-30.907 35.84-24.015 48.55Z" opacity=".8"/><path fill="#DA726C" d="M35.976 78.984c4.414 8.143 8.757 10.127 17.88 8.661C70.94 84.888 86.71 51.111 81.458 41.813c-4.454-7.873-5.442-12.75-21.554-11.252-18.518 1.722-30.78 35.777-23.928 48.423Z" opacity=".8"/><path fill="#DA716B" d="M36 78.936c4.406 8.135 8.661 10.08 17.777 8.622 17.012-2.734 32.813-36.494 27.562-45.722-4.47-7.856-5.395-12.685-21.49-11.195C41.459 32.354 29.187 66.354 36 78.936Z" opacity=".8"/><path fill="#D9706A" d="M36.023 78.896c4.399 8.12 8.574 10.032 17.674 8.574 16.948-2.701 32.764-36.454 27.522-45.617-4.487-7.825-5.347-12.622-21.427-11.124-18.263 1.697-30.542 35.65-23.769 48.167Z" opacity=".8"/><path fill="#D96F69" d="M36.047 78.856c4.39 8.112 8.479 9.977 17.57 8.534C70.494 84.713 86.342 50.968 81.1 41.868c-4.502-7.8-5.306-12.558-21.37-11.06C41.6 32.506 29.314 66.394 36.047 78.856Z" opacity=".8"/><path fill="#D96E68" d="M36.08 78.817c4.374 8.095 8.382 9.92 17.457 8.486C70.35 84.657 86.223 50.92 80.98 41.893c-4.526-7.785-5.26-12.495-21.307-10.997-18 1.682-30.295 35.522-23.594 47.92Z" opacity=".8"/><path fill="#D96D67" d="M36.103 78.769c4.366 8.095 8.287 9.872 17.354 8.454C70.198 84.6 86.095 50.873 80.86 41.908c-4.542-7.76-5.22-12.43-21.251-10.932-17.865 1.673-30.168 35.458-23.506 47.793Z" opacity=".8"/><path fill="#D86C66" d="M36.127 78.729c4.358 8.08 8.199 9.817 17.25 8.406 16.678-2.59 32.598-36.31 27.363-45.203-4.557-7.745-5.171-12.374-21.187-10.868-17.737 1.665-30.048 35.394-23.426 47.665Z" opacity=".8"/><path fill="#D86B65" d="M36.151 78.69c4.35 8.063 8.104 9.76 17.147 8.366 16.614-2.574 32.558-36.28 27.323-45.108-4.574-7.72-5.123-12.303-21.131-10.805-17.602 1.658-29.92 35.34-23.339 47.546Z" opacity=".8"/><path fill="#D86A64" d="M36.175 78.65c4.343 8.055 8.016 9.705 17.044 8.318 16.542-2.542 32.51-36.23 27.283-45.004-4.59-7.69-5.084-12.239-21.068-10.733-17.474 1.642-29.8 35.267-23.259 47.418Z" opacity=".8"/><path fill="#D86963" d="M36.199 78.601c4.327 8.048 7.92 9.658 16.94 8.287 16.478-2.518 32.47-36.199 27.243-44.9-4.613-7.673-5.036-12.183-21.012-10.677C42.032 32.952 29.697 66.52 36.2 78.6Z" opacity=".8"/><path fill="#D76862" d="M36.223 78.562c4.318 8.04 7.832 9.601 16.836 8.239 16.407-2.486 32.43-36.16 27.203-44.797-4.63-7.65-4.988-12.112-20.948-10.606-17.203 1.626-29.554 35.14-23.091 47.164Z" opacity=".8"/><path fill="#D76861" d="M36.246 78.522c4.311 8.024 7.737 9.545 16.733 8.199 16.343-2.462 32.383-36.128 27.164-44.701-4.646-7.626-4.948-12.048-20.893-10.542-17.067 1.617-29.426 35.083-23.004 47.044Z" opacity=".8"/><path fill="#D76760" d="M36.27 78.482c4.303 8.008 7.65 9.498 16.63 8.151 16.27-2.43 32.343-36.087 27.123-44.59-4.66-7.609-4.9-11.991-20.828-10.477-16.94 1.601-29.307 35.012-22.925 46.916Z" opacity=".8"/><path fill="#D7665F" d="M36.303 78.442c4.287 8 7.546 9.442 16.518 8.104 16.207-2.407 32.303-36.048 27.083-44.486-4.685-7.578-4.86-11.92-20.773-10.415-16.804 1.602-29.179 34.957-22.828 46.797Z" opacity=".8"/><path fill="#D6655E" d="M36.326 78.394c4.279 7.992 7.458 9.395 16.414 8.072 16.136-2.383 32.255-36.016 27.044-44.39-4.701-7.554-4.813-11.857-20.71-10.343-16.676 1.585-29.067 34.884-22.748 46.661Z" opacity=".8"/><path fill="#D6645D" d="M36.35 78.354c4.271 7.984 7.363 9.339 16.311 8.024C68.733 84.028 84.876 50.41 79.665 42.1c-4.717-7.537-4.765-11.8-20.653-10.286C42.47 33.39 30.072 66.64 36.351 78.353Z" opacity=".8"/><path fill="#D6635C" d="M36.374 78.314c4.263 7.968 7.275 9.283 16.207 7.984 16-2.326 32.168-35.936 26.965-44.183-4.742-7.514-4.726-11.729-20.59-10.215-16.415 1.57-28.82 34.757-22.582 46.414Z" opacity=".8"/><path fill="#D6625B" d="M36.398 78.275c4.255 7.96 7.18 9.227 16.104 7.936 15.936-2.294 32.127-35.896 26.924-44.08-4.757-7.481-4.677-11.665-20.534-10.15-16.279 1.561-28.693 34.7-22.494 46.294Z" opacity=".8"/><path fill="#D5615A" d="M36.422 78.227c4.247 7.952 7.092 9.18 16 7.904 15.873-2.279 32.08-35.864 26.885-43.976-4.781-7.466-4.638-11.61-20.47-10.088-16.152 1.546-28.574 34.638-22.415 46.16Z" opacity=".9"/><path fill="#D56059" d="M36.446 78.187c4.24 7.936 6.996 9.124 15.897 7.857 15.8-2.247 32.04-35.817 26.844-43.873-4.796-7.442-4.59-11.538-20.414-10.024-16.016 1.538-28.446 34.574-22.327 46.04Z" opacity=".9"/><path fill="#D55F58" d="M36.47 78.147c4.232 7.929 6.909 9.068 15.793 7.817C68 83.741 84.255 50.18 79.068 42.187c-4.813-7.41-4.542-11.474-20.35-9.952-15.881 1.53-28.327 34.51-22.248 45.912Z" opacity=".9"/><path fill="#D55E57" d="M36.494 78.108c4.223 7.912 6.812 9.012 15.689 7.769 15.665-2.191 31.952-35.745 26.765-43.666-4.837-7.394-4.502-11.418-20.295-9.896-15.745 1.522-28.2 34.446-22.16 45.793Z" opacity=".9"/><path fill="#D45D56" d="M36.517 78.06c4.215 7.912 6.725 8.964 15.586 7.737 15.602-2.175 31.904-35.713 26.725-43.57-4.853-7.37-4.462-11.378-20.231-9.825-15.626 1.474-28.08 34.383-22.08 45.658Z" opacity=".9"/><path fill="#D45C55" d="M36.55 78.02c4.2 7.896 6.621 8.908 15.474 7.689 15.53-2.143 31.864-35.665 26.685-43.466-4.876-7.339-4.414-11.315-20.175-9.761C43.044 33.956 30.582 66.8 36.55 78.02Z" opacity=".9"/><path fill="#D45B54" d="M36.574 77.98c4.19 7.88 6.533 8.853 15.37 7.641C67.41 83.51 83.761 49.996 78.59 42.267c-4.892-7.323-4.366-11.251-20.111-9.697-15.355 1.458-27.833 34.255-21.904 45.41Z" opacity=".9"/><path fill="#D45A53" d="M36.597 77.94c4.167 7.88 6.438 8.797 15.26 7.602 15.402-2.088 31.784-35.594 26.613-43.26-4.917-7.29-4.327-11.187-20.048-9.633-15.227 1.458-27.737 34.207-21.825 45.291Z" opacity=".9"/><path fill="#D35952" d="M36.62 77.892c4.16 7.873 6.352 8.75 15.156 7.562C67.115 83.391 83.513 49.908 78.35 42.3c-4.932-7.267-4.279-11.116-19.992-9.562-15.092 1.442-27.61 34.136-21.737 45.155Z" opacity=".9"/><path fill="#D35851" d="M36.645 77.852c4.151 7.865 6.255 8.694 15.052 7.522 15.267-2.04 31.697-35.514 26.534-43.052-4.957-7.243-4.24-11.06-19.929-9.506-14.964 1.435-27.49 34.08-21.657 45.036Z" opacity=".9"/><path fill="#D35750" d="M36.67 77.812c4.142 7.849 6.166 8.638 14.947 7.475 15.203-2.009 31.65-35.475 26.494-42.949-4.972-7.219-4.19-10.996-19.872-9.434-14.829 1.426-27.363 34.008-21.57 44.908Z" opacity=".9"/><path fill="#D3564F" d="M36.693 77.773c4.135 7.833 6.071 8.582 14.844 7.434C66.677 83.223 83.147 49.773 78 42.355c-5.004-7.196-4.151-10.925-19.816-9.363-14.702 1.41-27.244 33.944-21.49 44.78Z" opacity=".9"/><path fill="#D2554E" d="M36.717 77.725c4.12 7.833 5.984 8.534 14.741 7.395C66.526 83.16 83.02 49.724 77.88 42.378c-5.02-7.17-4.111-10.868-19.76-9.306-14.566 1.41-27.116 33.88-21.403 44.653Z" opacity=".9"/><path fill="#D2544D" d="M36.74 77.685c4.112 7.817 5.89 8.478 14.638 7.355C66.382 83.104 82.9 49.685 77.761 42.395c-5.044-7.14-4.064-10.797-19.698-9.236-14.438 1.395-26.996 33.817-21.322 44.526Z" opacity=".9"/><path fill="#D2534C" d="M36.765 77.645c4.104 7.81 5.8 8.423 14.534 7.307 14.932-1.904 31.474-35.314 26.343-42.542-5.06-7.115-4.016-10.733-19.642-9.17-14.303 1.393-26.868 33.752-21.235 44.405Z" opacity=".9"/><path fill="#D2524B" d="M36.797 77.606c4.087 7.792 5.697 8.366 14.422 7.267 14.869-1.889 31.426-35.283 26.303-42.439-5.084-7.091-3.976-10.677-19.578-9.107-14.167 1.378-26.749 33.689-21.147 44.279Z" opacity=".9"/><path fill="#D1514A" d="M36.82 77.558c4.08 7.784 5.61 8.318 14.319 7.227C65.936 82.928 82.525 49.55 77.402 42.45c-5.108-7.068-3.928-10.606-19.522-9.044-14.032 1.37-26.621 33.626-21.06 44.152Z" opacity=".9"/><path fill="#D15149" d="M36.844 77.518c4.072 7.777 5.514 8.263 14.215 7.179 14.733-1.825 31.339-35.195 26.223-42.231-5.123-7.036-3.888-10.542-19.458-8.972-13.904 1.362-26.502 33.562-20.98 44.024Z" opacity=".9"/><path fill="#D15048" d="M36.868 77.478c4.064 7.761 5.426 8.207 14.111 7.14 14.662-1.81 31.3-35.156 26.184-42.128-5.148-7.02-3.84-10.478-19.403-8.916-13.768 1.354-26.374 33.498-20.892 43.904Z" opacity=".9"/><path fill="#D14F47" d="M36.892 77.438c4.056 7.753 5.33 8.152 14.008 7.092 14.598-1.777 31.251-35.116 26.143-42.024-5.17-6.988-3.792-10.414-19.338-8.845-13.642 1.347-26.255 33.435-20.813 43.777Z" opacity=".9"/><path fill="#D04E46" d="M36.916 77.39c4.048 7.745 5.243 8.104 13.904 7.06 14.526-1.753 31.204-35.076 26.104-41.92-5.187-6.965-3.753-10.359-19.283-8.79-13.506 1.34-26.127 33.371-20.725 43.65Z"/><path fill="#D04D45" d="M36.94 77.35c4.04 7.73 5.148 8.032 13.801 7.012 14.462-1.753 31.163-35.036 26.064-41.817-5.211-6.94-3.705-10.287-19.22-8.717C44.208 35.151 31.579 67.135 36.94 77.35Z"/><path fill="#D04C44" d="M36.964 77.31c4.032 7.722 5.052 7.977 13.697 6.973 14.39-1.73 31.116-34.996 26.024-41.721-5.235-6.909-3.665-10.223-19.163-8.654-13.243 1.323-25.88 33.243-20.558 43.403Z"/><path fill="#D04B43" d="M36.988 77.27c4.024 7.706 4.964 7.921 13.594 6.925 14.327-1.697 31.068-34.948 25.984-41.61-5.26-6.884-3.618-10.159-19.1-8.59-13.115 1.308-25.76 33.18-20.478 43.276Z"/><path fill="#CF4A42" d="M37.02 77.223c4.007 7.697 4.86 7.88 13.481 6.892C64.756 82.442 81.53 49.2 76.445 42.601c-5.274-6.852-3.57-10.095-19.043-8.526-12.98 1.307-25.634 33.116-20.383 43.148Z"/><path fill="#CF4941" d="M37.043 77.183c4 7.69 4.773 7.825 13.379 6.845 14.191-1.642 30.98-34.869 25.904-41.41-5.299-6.83-3.53-10.032-18.98-8.455-12.844 1.291-25.514 33.052-20.303 43.02Z"/><path fill="#CF4840" d="M37.067 77.143c3.992 7.674 4.678 7.77 13.275 6.805 14.128-1.617 30.933-34.836 25.865-41.307-5.323-6.804-3.482-9.968-18.924-8.398-12.71 1.283-25.387 32.988-20.216 42.9Z"/><path fill="#CF473F" d="M37.091 77.103c3.984 7.666 4.59 7.714 13.172 6.757 14.056-1.585 30.892-34.788 25.824-41.203-5.346-6.773-3.442-9.904-18.86-8.326C44.645 35.605 31.96 67.255 37.09 77.102Z"/><path fill="#CE463E" d="M37.115 77.064c3.976 7.649 4.494 7.657 13.068 6.709 13.992-1.554 30.837-34.741 25.785-41.1-5.379-6.733-3.395-9.833-18.805-8.263-12.446 1.267-25.14 32.86-20.048 42.654Z"/><path fill="#CE453D" d="M37.139 77.016c3.968 7.641 4.406 7.617 12.964 6.677 13.92-1.53 30.797-34.71 25.745-40.996-5.394-6.717-3.347-9.777-18.741-8.2-12.319 1.26-25.02 32.797-19.968 42.519Z"/></g><path fill="url(#c)" d="M31.314 48.012c-10.454 18.374-7.793 39.617 5.952 47.442 13.737 7.825 33.363-.733 43.825-19.107 10.462-18.375 7.8-39.618-5.944-47.443-13.745-7.824-33.37.733-43.833 19.108Z" style="mix-blend-mode:multiply"/><path fill="url(#d)" fill-rule="evenodd" d="M29.258 24.06c-.526.087-1.02.207-1.506.334-1.25.343-2.406.829-3.641 1.403-.582.279-1.211.645-1.857 1.075a21.618 21.618 0 0 0-2.63 2.136c-1.274 1.219-2.438 2.63-3.234 4.087-1.713 3.148-2.933 7.26-3.004 10.55v.231c-.024 3.26.932 7.546 2.47 11.49 1.362 3.49 4.263 9.227 7.474 14.223.51.79 1.02 1.562 1.538 2.295 3.785 5.434 6.829 8.909 10.972 12.335a23.336 23.336 0 0 0 2.143 1.57 20.71 20.71 0 0 0 2.678 1.442c.7.31 1.37.566 2.008.765a15.345 15.345 0 0 0 2.247.518c.26.037.502.066.725.087.438.032.884.032 1.322 0 .165-.01.34-.023.526-.04.63-.071 1.347-.207 2.144-.438a15.38 15.38 0 0 0 3.267-1.386c.403-.223.82-.473 1.25-.75.51-.334 1.068-.756 1.65-1.242 3.33-2.765 7.546-7.642 9.897-10.893.51-.7 1.067-1.482 1.665-2.35 2.645-3.825 6.016-9.211 9.012-15.976 1.65-3.721 2.47-7.26 2.701-10.463.279-3.944-.335-7.362-1.41-9.944a30.323 30.323 0 0 0-1.81-3.641 20.293 20.293 0 0 0-2.501-3.387c-1.73-1.872-3.944-3.45-6.845-4.462a18.09 18.09 0 0 0-.765-.247 20.267 20.267 0 0 0-3.012-.693c-1.131-.16-2.199-.207-3.187-.16-1.713.08-3.211.43-4.478.893a14.435 14.435 0 0 0-2.845 1.402c-.43.271-.884.59-1.354.94-1.291.965-2.71 2.208-4.215 3.618a99.364 99.364 0 0 0-2.12 2.048c-.16-.191-.334-.406-.526-.637-.175-.223-.374-.463-.573-.71a34.962 34.962 0 0 0-1.642-1.872 27.193 27.193 0 0 0-1.586-1.594c-.31-.279-.996-.813-1.96-1.346-1.346-.741-3.243-1.474-5.442-1.482-.483 0-.943.01-1.378.031-.781.04-1.498.128-2.168.24Z" clip-rule="evenodd"/><defs><radialGradient id="b" cx="0" cy="0" r="1" gradientTransform="rotate(180 22.46 19.961) scale(19.9415)" gradientUnits="userSpaceOnUse"><stop offset=".103" stop-color="#C53D32"/><stop offset="1" stop-color="#fff"/></radialGradient><radialGradient id="c" cx="0" cy="0" r="1" gradientTransform="rotate(-150.35 36.33 23.652) scale(28.6358)" gradientUnits="userSpaceOnUse"><stop offset=".103" stop-color="#C53D32"/><stop offset="1" stop-color="#fff"/></radialGradient><linearGradient id="a" x1="40.802" x2="82.079" y1="6.894" y2="99.787" gradientUnits="userSpaceOnUse"><stop stop-color="#fff"/><stop offset="1" stop-color="#DBDBE0"/></linearGradient><linearGradient id="d" x1="26.218" x2="53.929" y1="31.006" y2="85.421" gradientUnits="userSpaceOnUse"><stop stop-color="#E66F5E"/><stop offset="1" stop-color="#BD302B"/></linearGradient></defs></svg>