<svg xmlns="http://www.w3.org/2000/svg" width="147" height="48" fill="none"><path fill="#fff" d="M24 48c13.255 0 24-10.745 24-24S37.255 0 24 0 0 10.745 0 24s10.745 24 24 24Z" opacity=".2"/><mask id="a" width="48" height="48" x="0" y="0" maskUnits="userSpaceOnUse" style="mask-type:luminance"><path fill="#fff" d="M24 48c13.255 0 24-10.745 24-24S37.255 0 24 0 0 10.745 0 24s10.745 24 24 24Z"/></mask><g fill="#fff" fill-rule="evenodd" clip-rule="evenodd" mask="url(#a)"><path d="M30.38 23.186a789.981 789.981 0 0 0-2.633 3.205s1.142 1.816.676 4.383c-.465 2.566-1.94 4.303-1.94 4.303s-.122-1.51-.456-2.351c-.333-.843-1.649-2.51-1.649-2.51s-.596.726-1.287.76c-.26.014-.68-.19-1.169-.498a9.972 9.972 0 0 1-.179.26c-1.921 2.715-4.598 4.123-5.978 3.147-1.38-.977-.941-3.97.98-6.684.082-.115.164-.226.249-.336-.54-.454-.93-.871-.956-1.164-.06-.667.245-1.123.245-1.123s-1.287-.538-2.574-.573c-1.286-.035-2.632.35-2.632.35s1.24-2.105 3.264-3.228c2.024-1.123 4.586-1.076 4.586-1.076s1.17-2.024 1.731-2.971l.065-.11c.583-.99 1.742-2.956 4.626-4.511 2.994-1.614 6.574-1.369 6.574-1.369s.96 2.714.96 5.522c0 2.807-1.17 4.96-2.504 6.575Zm-3.862-7.476a2.866 2.866 0 1 0 0 5.732 2.866 2.866 0 0 0 0-5.732Zm-9.383 16.2c-.966-.714-.717-2.69.555-4.412a.243.243 0 0 1 .007-.01l.009-.01c.345.258.704.514 1.041.756l.477.342c.244.177.508.375.78.579.398.3.814.611 1.21.89a.539.539 0 0 0-.011.017l-.014.02c-1.273 1.723-3.088 2.54-4.053 1.828ZM6.461 41.539l3.883-5.153a.622.622 0 1 1 .994.748l-3.883 5.153-.994-.748ZM8.519 43.146l2.522-3.346a.622.622 0 0 1 .993.748l-2.522 3.346-.993-.748Z"/></g><path fill="#fff" d="M60.688 27.632c.117 0 .23.048.336.144.107.096.16.25.16.464 0 .17-.128.373-.384.608a5.154 5.154 0 0 1-.992.656 6.86 6.86 0 0 1-1.28.528c-.459.15-.89.224-1.296.224-.576 0-1.12-.15-1.632-.448-.501-.299-.912-.73-1.232-1.296-.32-.576-.48-1.275-.48-2.096 0-.725.133-1.45.4-2.176.267-.725.619-1.424 1.056-2.096a14.98 14.98 0 0 1 1.472-1.872 14.957 14.957 0 0 1 1.632-1.504 9.133 9.133 0 0 1 1.52-.992c.48-.245.875-.368 1.184-.368.213 0 .384.08.512.24.139.15.208.315.208.496a.617.617 0 0 1-.096.32.572.572 0 0 1-.288.256c-.693.341-1.397.779-2.112 1.312a13.322 13.322 0 0 0-1.984 1.824 8.978 8.978 0 0 0-1.472 2.192 5.63 5.63 0 0 0-.56 2.464c0 .747.176 1.317.528 1.712.352.384.832.576 1.44.576.32 0 .65-.059.992-.176a8.36 8.36 0 0 0 .992-.4l.832-.416c.245-.117.427-.176.544-.176Zm4.34 2.672a.545.545 0 0 1-.432-.208c-.118-.139-.176-.33-.176-.576 0-.181.037-.48.112-.896.085-.427.176-.923.272-1.488.106-.565.197-1.152.272-1.76.075-.619.112-1.21.112-1.776 0-.277.07-.48.208-.608a.713.713 0 0 1 .496-.208c.17 0 .299.107.384.32.085.213.101.64.048 1.28.49-1.088 1.03-1.963 1.616-2.624.597-.672 1.19-1.152 1.776-1.44.587-.299 1.115-.448 1.584-.448.31 0 .533.064.672.192.15.117.224.25.224.4a.553.553 0 0 1-.256.48c-.16.107-.443.235-.848.384-.47.181-.901.395-1.296.64a5.159 5.159 0 0 0-1.104.928c-.341.384-.677.875-1.008 1.472-.33.587-.662 1.312-.992 2.176-.33.864-.683 1.904-1.056 3.12-.064.235-.15.4-.256.496a.479.479 0 0 1-.352.144Zm9.226 3.808A8.974 8.974 0 0 1 72.782 34a6.975 6.975 0 0 1-1.296-.32c-.427-.139-.89-.32-1.392-.544a1.762 1.762 0 0 1-.4-.272.425.425 0 0 1-.176-.336c0-.16.101-.33.304-.512.192-.17.373-.256.544-.256.181 0 .405.064.672.192.277.128.597.277.96.448a7.21 7.21 0 0 0 1.2.464 5.22 5.22 0 0 0 1.44.192c.555 0 1.077-.23 1.568-.688.49-.459.89-1.12 1.2-1.984.31-.853.464-1.883.464-3.088 0-.363-.01-.763-.032-1.2-.01-.448-.032-.917-.064-1.408a18.73 18.73 0 0 1-.864 1.648c-.31.544-.635 1.035-.976 1.472-.33.437-.677.79-1.04 1.056-.352.256-.71.384-1.072.384-.459 0-.79-.117-.992-.352-.203-.235-.304-.597-.304-1.088 0-.512.037-1.067.112-1.664.075-.597.17-1.2.288-1.808.128-.619.277-1.205.448-1.76.17-.555.352-1.035.544-1.44.107-.213.267-.32.48-.32.15 0 .293.08.432.24.15.15.224.347.224.592 0 .192-.043.464-.128.816-.085.352-.192.752-.32 1.2-.128.448-.256.917-.384 1.408-.128.48-.235.955-.32 1.424-.085.459-.128.88-.128 1.264 0 .16.107.24.32.24.117 0 .283-.107.496-.32.224-.224.47-.512.736-.864.277-.363.555-.757.832-1.184.288-.437.565-.87.832-1.296.267-.437.496-.837.688-1.2a1.934 1.934 0 0 1-.016-.24v-.208c0-.523.053-.848.16-.976a.561.561 0 0 1 .448-.208c.31 0 .528.07.656.208.128.139.192.379.192.72 0 .128-.016.267-.048.416-.032.139-.085.341-.16.608.085.843.155 1.6.208 2.272.064.672.096 1.35.096 2.032 0 1.29-.208 2.41-.624 3.36-.405.95-.981 1.685-1.728 2.208-.736.523-1.605.784-2.608.784Zm7.793.64a.533.533 0 0 1-.432-.192c-.096-.128-.144-.373-.144-.736 0-.523.037-1.13.112-1.824.075-.693.176-1.43.304-2.208.139-.779.288-1.557.448-2.336.17-.779.347-1.52.528-2.224.192-.704.379-1.328.56-1.872.181-.555.347-.992.496-1.312.16-.32.299-.48.416-.48.203 0 .363.059.48.176.128.117.192.293.192.528 0 .299-.09.784-.272 1.456-.181.661-.416 1.525-.704 2.592.267-.49.555-1.003.864-1.536.31-.533.635-1.05.976-1.552.342-.512.683-.97 1.024-1.376a6.59 6.59 0 0 1 1.024-.976c.33-.245.65-.368.96-.368.33 0 .624.107.88.32.256.203.454.48.592.832.15.341.224.725.224 1.152 0 .885-.15 1.744-.448 2.576a7.711 7.711 0 0 1-1.248 2.224 6.013 6.013 0 0 1-1.856 1.552 4.702 4.702 0 0 1-2.288.576 6.485 6.485 0 0 1-1.472-.16c-.128.704-.25 1.43-.368 2.176a138.91 138.91 0 0 0-.352 2.384c-.032.224-.085.379-.16.464-.075.096-.186.144-.336.144Zm7.12-13.024c-.224 0-.49.128-.8.384a8.385 8.385 0 0 0-.976 1.024c-.341.416-.688.88-1.04 1.392a38.391 38.391 0 0 0-1.024 1.536c-.33.523-.635 1.008-.912 1.456-.267.448-.485.821-.656 1.12.832-.021 1.563-.187 2.192-.496a5.599 5.599 0 0 0 1.616-1.216c.448-.501.81-1.04 1.088-1.616a8.052 8.052 0 0 0 .624-1.696c.128-.555.192-1.035.192-1.44 0-.299-.101-.448-.304-.448Zm2.077 3.152c-.288-.021-.422-.208-.4-.56.01-.085.069-.187.176-.304a.526.526 0 0 1 .368-.208c.33-.032.736-.08 1.216-.144.49-.075 1.029-.16 1.616-.256.106-.523.234-1.072.384-1.648.149-.576.314-1.136.496-1.68.181-.555.373-1.056.576-1.504.202-.448.416-.8.64-1.056.117-.117.224-.197.32-.24a.542.542 0 0 1 .256-.08c.149 0 .266.064.352.192a.702.702 0 0 1 .144.432c0 .085-.016.17-.048.256a34.106 34.106 0 0 0-.688 2.208c-.246.875-.507 1.83-.784 2.864.981-.16 1.962-.33 2.944-.512a99.938 99.938 0 0 0 2.528-.496c.202-.085.357-.07.464.048.117.117.176.235.176.352 0 .15-.043.261-.128.336a1.376 1.376 0 0 1-.24.192l-.016.016a9.847 9.847 0 0 1-.96.304c-.427.107-.918.224-1.472.352-.555.117-1.147.235-1.776.352-.619.117-1.232.224-1.84.32-.246.939-.496 1.904-.752 2.896-.246.981-.491 1.947-.736 2.896-.107.384-.23.624-.368.72a.637.637 0 0 1-.416.16.614.614 0 0 1-.448-.192c-.118-.128-.134-.39-.048-.784l1.168-5.456a27.9 27.9 0 0 1-1.696.208c-.48.043-.816.048-1.008.016Zm11.128 5.28c-.629 0-1.125-.24-1.488-.72-.362-.48-.544-1.104-.544-1.872 0-.277.038-.57.112-.88.086-.32.192-.608.32-.864a.775.775 0 0 1-.176-.304 1.785 1.785 0 0 1-.064-.512c0-.63.107-1.205.32-1.728.214-.523.496-.976.848-1.36a3.915 3.915 0 0 1 1.168-.912c.438-.213.88-.32 1.328-.32.736 0 1.334.267 1.792.8.459.523.688 1.323.688 2.4 0 .565-.085 1.141-.256 1.728a8.259 8.259 0 0 1-.672 1.696 7.045 7.045 0 0 1-.976 1.456 4.93 4.93 0 0 1-1.168 1.024c-.405.245-.816.368-1.232.368Zm-.544-4.88a.546.546 0 0 1 .096.336c0 .16-.032.32-.096.48-.053.16-.112.379-.176.656-.064.277-.096.672-.096 1.184 0 .512.203.768.608.768.448 0 .864-.176 1.248-.528.384-.363.726-.827 1.024-1.392a8 8 0 0 0 .688-1.808 7.25 7.25 0 0 0 .256-1.84c0-.373-.069-.635-.208-.784-.138-.16-.389-.24-.752-.24-.373 0-.762.128-1.168.384a3.101 3.101 0 0 0-.992 1.008c-.266.427-.4.907-.4 1.44 0 .117-.01.23-.032.336Zm16.507 4.544a.736.736 0 0 1-.416-.128c-.117-.085-.208-.256-.272-.512-.064-.267-.096-.656-.096-1.168 0-1.067.101-2.123.304-3.168.203-1.045.491-2.027.864-2.944a11.32 11.32 0 0 1 1.328-2.448c.523-.715 1.099-1.275 1.728-1.68a3.735 3.735 0 0 1 2.032-.608c.779 0 1.392.24 1.84.72.448.47.672 1.141.672 2.016 0 .81-.229 1.483-.688 2.016-.448.533-1.072.8-1.872.8-.139 0-.288-.01-.448-.032a4.894 4.894 0 0 1-.496-.128c.651 1.088 1.301 2.032 1.952 2.832.651.8 1.312 1.52 1.984 2.16.683.63 1.376 1.237 2.08 1.824.107.096.187.192.24.288.053.085.08.187.08.304 0 .181-.043.315-.128.4-.075.085-.235.128-.48.128-.267 0-.597-.117-.992-.352a9.242 9.242 0 0 1-1.264-.96 18.542 18.542 0 0 1-1.392-1.376 28.256 28.256 0 0 1-1.36-1.6 25.83 25.83 0 0 1-1.152-1.648 12.075 12.075 0 0 1-.816-1.504c-.192-.459-.288-.848-.288-1.168 0-.213.053-.379.16-.496a.534.534 0 0 1 .432-.192c.235 0 .448.032.64.096.203.064.416.096.64.096.587 0 1.051-.15 1.392-.448.352-.31.528-.816.528-1.52 0-.619-.416-.928-1.248-.928-.576 0-1.131.23-1.664.688-.533.448-1.024 1.093-1.472 1.936-.437.843-.8 1.856-1.088 3.04-.288 1.173-.475 2.485-.56 3.936-.021.501-.069.875-.144 1.12-.064.245-.144.41-.24.496a.468.468 0 0 1-.32.112Zm13.459.48a.544.544 0 0 1-.432-.208c-.118-.139-.176-.33-.176-.576 0-.181.037-.48.112-.896.085-.427.176-.923.272-1.488.106-.565.197-1.152.272-1.76.074-.619.112-1.21.112-1.776 0-.277.069-.48.208-.608a.711.711 0 0 1 .496-.208c.17 0 .298.107.384.32.085.213.101.64.048 1.28.49-1.088 1.029-1.963 1.616-2.624.597-.672 1.189-1.152 1.776-1.44.586-.299 1.114-.448 1.584-.448.309 0 .533.064.672.192.149.117.224.25.224.4a.554.554 0 0 1-.256.48c-.16.107-.443.235-.848.384-.47.181-.902.395-1.296.64a5.159 5.159 0 0 0-1.104.928c-.342.384-.678.875-1.008 1.472-.331.587-.662 1.312-.992 2.176a49.201 49.201 0 0 0-1.056 3.12c-.064.235-.15.4-.256.496a.48.48 0 0 1-.352.144Zm8.938-.144c-.63 0-1.126-.24-1.488-.72-.363-.48-.544-1.104-.544-1.872 0-.277.037-.57.112-.88a4.53 4.53 0 0 1 .32-.864.752.752 0 0 1-.176-.304 1.75 1.75 0 0 1-.064-.512 4.519 4.519 0 0 1 1.168-3.088 3.903 3.903 0 0 1 1.168-.912 3 3 0 0 1 1.328-.32c.736 0 1.333.267 1.792.8.458.523.688 1.323.688 2.4 0 .565-.086 1.141-.256 1.728a8.259 8.259 0 0 1-.672 1.696 7.126 7.126 0 0 1-.976 1.456 4.95 4.95 0 0 1-1.168 1.024c-.406.245-.816.368-1.232.368Zm-.544-4.88a.546.546 0 0 1 .096.336c0 .16-.032.32-.096.48-.054.16-.112.379-.176.656-.064.277-.096.672-.096 1.184 0 .512.202.768.608.768.448 0 .864-.176 1.248-.528.384-.363.725-.827 1.024-1.392a8.048 8.048 0 0 0 .688-1.808c.17-.65.256-1.264.256-1.84 0-.373-.07-.635-.208-.784-.139-.16-.39-.24-.752-.24-.374 0-.763.128-1.168.384a3.082 3.082 0 0 0-.992 1.008c-.267.427-.4.907-.4 1.44 0 .117-.011.23-.032.336Z"/></svg>