<svg xmlns="http://www.w3.org/2000/svg" width="185" height="176" fill="none"><path fill="url(#a)" fill-rule="evenodd" d="M152.04 26.685c2.443.567 4.494 1.469 6.079 3.083.785.8 1.44 1.745 2.007 2.763.843 1.57 1.439 3.33 1.876 5.206.698 3.054.93 6.355.974 9.366 0 .654.015 1.294 0 1.905-.015 1.963-.189 6.645-.814 12.913-.626 6.312-1.731 14.237-3.592 22.628-1.993 8.973-4.887 18.483-9.06 27.136a65.766 65.766 0 0 1-1.687 3.345c-4.145 7.751-9.816 15.778-16.04 23.166-6.152 7.3-12.841 13.961-19.167 19.109a41.036 41.036 0 0 1-3.359 1.788c-1.469.713-3.245 1.325-4.757 1.907-1.003 1.251-1.671 2.485-2.529 3.677-1.425.771-2.792 1.426-4.087 1.92a17.98 17.98 0 0 1-2.937.902c-.873.189-1.687.291-2.443.291-.77 0-1.585-.102-2.443-.291a18.41 18.41 0 0 1-2.952-.902c-1.295-.494-2.662-1.149-4.087-1.92-1.716-.945-3.52-2.079-5.395-3.388a105.254 105.254 0 0 1-2.487-1.803 85.297 85.297 0 0 1-2.763-2.181c-6.326-5.148-13.015-11.809-19.167-19.109-6.224-7.388-11.895-15.415-16.04-23.166a80.142 80.142 0 0 1-1.687-3.345c-4.159-8.653-7.053-18.163-9.06-27.136-1.861-8.39-2.952-16.316-3.592-22.628-.625-6.267-.785-10.95-.814-12.913v-1.905c.044-3.01.276-6.312.974-9.366.437-1.876 1.033-3.635 1.876-5.206.567-1.018 1.222-1.963 2.007-2.763 1.585-1.614 3.636-2.516 6.093-3.083 3.054-.698 6.719-.872 10.82-1.192 1.658-.131 3.388-.277 5.192-.51 2.98-.377 5.57-1.032 7.838-1.832 5.177-1.817 8.71-4.435 11.343-6.558 3.2-2.603 9.438-8.217 12.812-11.038.596-.509 1.12-.945 1.512-1.236C85.044 2.37 88.432 0 92.504 0c4.057 0 7.445 2.37 10.005 4.32.393.29.916.726 1.512 1.235 3.374 2.821 9.613 8.435 12.812 11.038 2.632 2.123 6.166 4.74 11.343 6.558 2.269.8 4.872 1.455 7.838 1.833 1.804.232 3.534.378 5.192.509 4.101.32 7.766.494 10.834 1.192Z" clip-rule="evenodd"/><path fill="url(#b)" fill-rule="evenodd" d="M152.04 26.685c2.443.567 4.494 1.469 6.079 3.083.785.8 1.44 1.745 2.007 2.763.843 1.57 1.439 3.33 1.876 5.206.698 3.054.93 6.355.974 9.366 0 .654.015 1.294 0 1.905-.015 1.963-.189 6.645-.814 12.913-.626 6.312-1.731 14.237-3.592 22.628-1.993 8.973-4.887 18.483-9.06 27.136a65.766 65.766 0 0 1-1.687 3.345c-4.145 7.751-9.816 15.778-16.04 23.166-6.152 7.3-12.841 13.961-19.167 19.109a41.036 41.036 0 0 1-3.359 1.788 57.74 57.74 0 0 1-4.494 1.934 88.713 88.713 0 0 0-2.792 3.65c-1.425.771-2.792 1.426-4.087 1.92a17.98 17.98 0 0 1-2.937.902c-.873.189-1.687.291-2.443.291-.77 0-1.585-.102-2.443-.291a18.41 18.41 0 0 1-2.952-.902c-1.295-.494-2.662-1.149-4.087-1.92-1.716-.945-3.52-2.079-5.395-3.388a105.254 105.254 0 0 1-2.487-1.803 85.297 85.297 0 0 1-2.763-2.181c-6.326-5.148-13.015-11.809-19.167-19.109-6.224-7.388-11.895-15.415-16.04-23.166a80.142 80.142 0 0 1-1.687-3.345c-4.159-8.653-7.053-18.163-9.06-27.136-1.861-8.39-2.952-16.316-3.592-22.628-.625-6.267-.785-10.95-.814-12.913v-1.905c.044-3.01.276-6.312.974-9.366.437-1.876 1.033-3.635 1.876-5.206.567-1.018 1.222-1.963 2.007-2.763 1.585-1.614 3.636-2.516 6.093-3.083 3.054-.698 6.719-.872 10.82-1.192 1.658-.131 3.388-.277 5.192-.51 2.98-.377 5.57-1.032 7.838-1.832 5.177-1.817 8.71-4.435 11.343-6.558 3.2-2.603 9.438-8.217 12.812-11.038.596-.509 1.12-.945 1.512-1.236C85.044 2.37 88.432 0 92.504 0c4.057 0 7.445 2.37 10.005 4.32.393.29.916.726 1.512 1.235 3.374 2.821 9.613 8.435 12.812 11.038 2.632 2.123 6.166 4.74 11.343 6.558 2.269.8 4.872 1.455 7.838 1.833 1.804.232 3.534.378 5.192.509 4.101.32 7.766.494 10.834 1.192Zm-44.921 134.779c.393-.408.872-.917 1.425-1.542-.407.456-.8.911-1.178 1.367a6.15 6.15 0 0 1-.247.175Zm-2.007 1.338a94.487 94.487 0 0 0 2.007-1.338c-1.425 1.468-1.891 1.643-2.007 1.338Z" clip-rule="evenodd" opacity=".3" style="mix-blend-mode:screen"/><path fill="url(#c)" d="M88.447 98.859c12.826-18.338 10.572-14.877 23.398-33.215.524.058 1.149.233 1.862.51-13.35 19.064-11.692 15.428-25.042 34.493-.116-.901-.116-.901-.218-1.788Zm.218 1.788c13.35-19.065 11.692-15.429 25.042-34.494.625.233 1.309.553 2.036.916-13.903 19.836-12.797 16.986-26.685 36.821a328.394 328.394 0 0 1-.393-3.243Zm.393 3.243c13.888-19.835 12.782-16.985 26.685-36.82a34.229 34.229 0 0 1 4.29 2.602 723.593 723.593 0 0 1-8.769 12.274c-6.995 9.642-10.02 13.292-21.29 29.376-.3-2.473-.606-4.95-.916-7.432Zm.916 7.432c11.27-16.084 14.295-19.734 21.29-29.376a723.593 723.593 0 0 0 8.769-12.274 34.784 34.784 0 0 1 3.912 3.156c-10.907 15.575-14.921 20.737-21.465 29.725a880.783 880.783 0 0 0-11.59 16.2c-.305-2.487-.61-4.945-.916-7.431Zm1.207 9.845c-.102-.8-.204-1.6-.291-2.414a880.783 880.783 0 0 1 11.59-16.2c6.544-8.988 10.558-14.15 21.465-29.725.61.553 1.134 1.076 1.57 1.585-14.048 20.054-17.029 23.442-27.892 38.668a712.623 712.623 0 0 0-5.526 7.766c-.29.145-.625.247-.916.32Zm5.511-3.65c-1.148 1.657-2.777 2.763-4.595 3.33a712.623 712.623 0 0 1 5.526-7.766c10.863-15.226 13.844-18.614 27.892-38.668.495.567.887 1.12 1.12 1.57-14.266 20.36-13.51 18.019-27.761 38.392l-2.182 3.142Zm15.153-51.873 2.036-2.908c.262-.364.553-.67.858-.99a7.035 7.035 0 0 1 2.269-.29l-3.301 4.697c-.713-.276-1.338-.45-1.862-.509Zm1.862.51 3.301-4.698c.771.014 1.571.145 2.414.363a995.816 995.816 0 0 0-3.679 5.25c-.727-.363-1.411-.683-2.036-.916Zm2.036.915a995.816 995.816 0 0 1 3.679-5.25c1.134.291 2.312.786 3.461 1.484.378.189.771.407 1.149.669l-2.996 4.275c-.329.475-.664.95-1.003 1.425a34.229 34.229 0 0 0-4.29-2.603Zm4.29 2.603c.339-.475.674-.95 1.003-1.425l2.996-4.275a14.268 14.268 0 0 1 3.592 3.592c-1.222 1.76-2.443 3.504-3.679 5.264a34.784 34.784 0 0 0-3.912-3.156Zm3.912 3.156c1.236-1.76 2.457-3.505 3.679-5.264a11.19 11.19 0 0 1 1.178 2.137 953.398 953.398 0 0 0-3.287 4.712 17.821 17.821 0 0 0-1.57-1.585Zm1.57 1.585a953.398 953.398 0 0 1 3.287-4.712c.291.771.451 1.527.494 2.24-.203.392-.378.77-.64 1.134a361.89 361.89 0 0 0-2.021 2.909c-.233-.451-.625-1.004-1.12-1.57Zm-10.776-12.666a9.154 9.154 0 0 1 2.283-1.76 9.152 9.152 0 0 1 3.069-.989c-1.163.51-2.24 1.236-3.01 2.356a.382.382 0 0 0-.073.102 7.035 7.035 0 0 0-2.269.29Zm2.269-.291a.382.382 0 0 1 .073-.102c.77-1.12 1.847-1.847 3.01-2.356a9.31 9.31 0 0 1 1.803-.058c-.48.335-.945.684-1.294 1.193-.398.562-.79 1.124-1.178 1.686-.843-.218-1.643-.349-2.414-.363Zm5.875 1.847a12.887 12.887 0 0 0-3.461-1.484c.388-.562.78-1.124 1.178-1.687.349-.508.814-.857 1.294-1.192 1.585.116 3.156.61 4.552 1.585a241.51 241.51 0 0 1-1.818 2.574c-.194.291-.392.582-.596.873a9.387 9.387 0 0 0-1.149-.67Zm1.149.669c.204-.291.402-.582.596-.873a241.51 241.51 0 0 0 1.818-2.574c1.381.96 2.385 2.269 3.025 3.709-.146.567-.306 1.134-.669 1.657-.388.553-.781 1.11-1.178 1.673a14.268 14.268 0 0 0-3.592-3.592Zm3.592 3.592c.397-.563.79-1.12 1.178-1.673.363-.523.523-1.09.669-1.657.261.596.465 1.192.596 1.817-.087 1.236-.436 2.472-1.207 3.563l-.058.087a11.19 11.19 0 0 0-1.178-2.137Zm1.178 2.137.058-.087c.771-1.09 1.12-2.327 1.207-3.563a8.893 8.893 0 0 1 .116 3.04 9.261 9.261 0 0 1-.887 2.85 7.667 7.667 0 0 0-.494-2.24Z"/><path fill="url(#d)" d="M88.447 98.873c.116.98.232 1.954.349 2.923-8.304-8.318-9.613-9.249-17.931-17.567.654-.392 1.25-.669 1.745-.829 7.606 7.62 8.216 7.853 15.837 15.473ZM70.094 80.9A613.46 613.46 0 0 0 72.61 83.4c-.494.16-1.09.437-1.745.83-1.357-1.348-2.715-2.7-4.072-4.058a7.305 7.305 0 0 1 2.298-.102c.349.262.698.51 1.003.83Zm-1.003-.829a7.305 7.305 0 0 0-2.298.102.584.584 0 0 0-.073-.087c-.945-.931-2.094-1.484-3.3-1.803.886-.03 1.759.072 2.602.305 1.091.29 2.123.785 3.069 1.483Zm19.705 21.726.436 3.52c-9.075-9.06-11.14-10.762-20.214-19.822a23.58 23.58 0 0 1 1.847-1.265c8.318 8.319 9.627 9.25 17.93 17.567ZM70.865 84.229a23.58 23.58 0 0 0-1.847 1.266c-1.503-1.513-3.01-3.025-4.523-4.538.771-.363 1.556-.625 2.298-.785 1.357 1.357 2.715 2.71 4.072 4.057Zm-4.145-4.144c.03.029.054.058.073.087-.742.16-1.527.422-2.298.785l-1.454-1.454c-.436-.436-.974-.698-1.512-.945a9.263 9.263 0 0 1 1.89-.277c1.207.32 2.356.873 3.301 1.804Zm22.512 25.231c.334 2.705.654 5.395.989 8.085-10.66-10.659-14.324-13.946-24.984-24.605a34.762 34.762 0 0 1 3.781-3.302c9.075 9.06 11.14 10.762 20.214 19.822ZM69.018 85.494a34.762 34.762 0 0 0-3.781 3.302c-1.643-1.644-3.272-3.287-4.915-4.916a14.067 14.067 0 0 1 4.173-2.923c1.513 1.513 3.02 3.025 4.523 4.538Zm-5.977-5.991 1.454 1.454a14.067 14.067 0 0 0-4.173 2.923 431.923 431.923 0 0 0-2.982-2.98c1.208-1.193 2.662-1.95 4.189-2.342.538.247 1.076.509 1.512.945Zm27.18 33.898c.32 2.589.64 5.192.96 7.766-.073 0-.19.043-.262.043-11.998-11.997-16.986-16.621-28.983-28.619a35.263 35.263 0 0 1 3.301-3.795c10.66 10.66 14.324 13.946 24.984 24.605ZM65.237 88.796a35.263 35.263 0 0 0-3.301 3.795c-1.513-1.512-3.025-3.04-4.537-4.552a14.477 14.477 0 0 1 2.923-4.159c1.643 1.629 3.272 3.272 4.915 4.916Zm-4.915-4.916a14.477 14.477 0 0 0-2.923 4.16l-1.455-1.455c-.436-.422-.698-.945-.945-1.483a8.987 8.987 0 0 1 2.341-4.203c1 .989 1.993 1.983 2.982 2.981Zm30.597 37.33a7.19 7.19 0 0 1-2.952.073c-11.43-11.416-15.851-15.458-27.267-26.874.334-.553.741-1.178 1.236-1.818 11.997 11.998 16.985 16.622 28.983 28.619ZM61.936 92.591c-.495.64-.902 1.265-1.236 1.818-1.353-1.353-2.72-2.705-4.072-4.057.145-.757.422-1.527.77-2.313 1.513 1.513 3.025 3.04 4.538 4.552Zm-5.992-6.006L57.4 88.04c-.35.786-.626 1.556-.771 2.313l-.087-.088c-.96-.96-1.498-2.137-1.803-3.373.029-.602.116-1.198.261-1.79.247.539.51 1.062.945 1.484Zm32.023 34.698a9.201 9.201 0 0 1-4-1.556c-.436-.291-.8-.654-1.148-1.003-9.511-9.482-12.987-12.594-22.963-22.57.146-.465.422-1.076.844-1.745 11.416 11.416 15.837 15.458 27.267 26.874ZM60.7 94.409c-.422.669-.698 1.28-.844 1.745-.843-.843-1.672-1.672-2.516-2.501-.305-.32-.567-.67-.814-1.004a6.884 6.884 0 0 1 .102-2.297c1.352 1.352 2.72 2.704 4.072 4.057Zm-4.16-4.145.088.088a6.884 6.884 0 0 0-.102 2.297 8.989 8.989 0 0 1-1.789-5.758c.306 1.236.844 2.414 1.804 3.373Z"/><defs><linearGradient id="a" x1="92.498" x2="80.235" y1="9.626" y2="161.029" gradientUnits="userSpaceOnUse"><stop stop-color="#887EFF"/><stop offset="1" stop-color="#55118B"/></linearGradient><linearGradient id="b" x1="92.498" x2="92.498" y1="167.79" y2="9.627" gradientUnits="userSpaceOnUse"><stop stop-color="#125CB3"/><stop offset="1" stop-color="#73CDFF"/></linearGradient><linearGradient id="c" x1="98.841" x2="121.861" y1="114.375" y2="58.962" gradientUnits="userSpaceOnUse"><stop stop-color="#432F95"/><stop offset="1" stop-color="#9188FD"/></linearGradient><linearGradient id="d" x1="63.465" x2="83.969" y1="78.309" y2="119.67" gradientUnits="userSpaceOnUse"><stop stop-color="#AC87FB"/><stop offset="1" stop-color="#4A247B"/></linearGradient></defs></svg>